<?xml version="1.0" encoding="utf-8"?>
<!-- Generator: Adobe Illustrator 26.5.0, SVG Export Plug-In . SVG Version: 6.00 Build 0)  -->
<svg id="Layer_1" style="enable-background:new 0 0 477 386;" version="1.1" viewBox="0 0 477 386" x="0px"
     xml:space="preserve"
     xmlns="http://www.w3.org/2000/svg" xmlns:xlink="http://www.w3.org/1999/xlink" y="0px">
<style type="text/css">
	.st0 {
    fill: #E6E6EE;
  }

  .st1 {
    fill: #EDEDED;
  }

  .st2 {
    fill: #004373;
  }

  .st3 {
    fill: #FEAF06;
  }

  .st4 {
    fill: #FBD82B;
  }

  .st5 {
    fill: #FFE278;
  }

  .st6 {
    fill: #FCC21B;
  }

  .st7 {
    fill: #444444;
  }

  .st8 {
    fill-rule: evenodd;
    clip-rule: evenodd;
    fill: #FFA11F;
  }

  .st9 {
    fill-rule: evenodd;
    clip-rule: evenodd;
    fill: #2C2C2C;
  }

  .st10 {
    fill-rule: evenodd;
    clip-rule: evenodd;
    fill: #FF6600;
  }

  .st11 {
    fill-rule: evenodd;
    clip-rule: evenodd;
    fill: #D53A07;
  }

  .st12 {
    fill-rule: evenodd;
    clip-rule: evenodd;
    fill: #FFAC1F;
  }

  .st13 {
    fill-rule: evenodd;
    clip-rule: evenodd;
  }

  .st14 {
    fill-rule: evenodd;
    clip-rule: evenodd;
    fill: #FFD761;
  }

  .st15 {
    fill: #FF9700;
  }

  .st16 {
    fill: #E0DFDE;
  }

  .st17 {
    fill: #DBA689;
  }

  .st18 {
    fill: #C1691A;
  }

  .st19 {
    fill: #719196;
  }

  .st20 {
    fill: #78A3AD;
  }

  .st21 {
    fill: #757575;
  }

  .st22 {
    fill: #E81224;
  }

  .st23 {
    fill: #AF0D1A;
  }

  .st24 {
    fill: #2B2B2B;
  }

  .st25 {
    fill: #E5E5E5;
  }

  .st26 {
    fill: #A6A6A6;
  }

  .st27 {
    fill: #701D1D;
  }

  .st28 {
    fill-rule: evenodd;
    clip-rule: evenodd;
    fill: #FFE3C2;
  }

  .st29 {
    fill-rule: evenodd;
    clip-rule: evenodd;
    fill: #701D1D;
  }
</style>
  <path class="st0" d="M0,339.1c0-131.7,106.8-238.5,238.5-238.5S477,207.4,477,339.1H0z"/>
  <g>
	<g>
		<path d="M283.5,386c-0.4,0-0.8-0.1-1.2-0.2l-16.6-5.1c-1.4-0.4-2.4-1.7-2.7-3.1l-12.7-75.8c-0.4-2.1,1.1-4.1,3.2-4.5
			s4.1,1.1,4.5,3.2l12.3,73.5l14.3,4.4c2,0.6,3.2,2.8,2.6,4.9C286.7,384.9,285.2,386,283.5,386z"/>
	</g>
    <g>
		<path d="M206.8,385.9c-1.6,0-3-1-3.6-2.5c-0.8-2,0.2-4.3,2.2-5.1l13.9-5.4l7-74.2c0.2-2.1,2.1-3.7,4.3-3.5
			c2.1,0.2,3.7,2.1,3.5,4.3l-7.2,76.5c-0.1,1.5-1.1,2.7-2.4,3.3l-16.2,6.3C207.7,385.8,207.3,385.9,206.8,385.9z"/>
	</g>
    <path class="st1" d="M310.4,194.9H167.2c-6.4,0-11.7-5.2-11.7-11.7v-13.9c0-6.4,5.2-11.7,11.7-11.7h143.2c6.4,0,11.7,5.2,11.7,11.7
		v13.9C322.1,189.6,316.8,194.9,310.4,194.9z"/>
    <g>
		<ellipse class="st2" cx="240.3" cy="282.5" rx="61.2" ry="26.4"/>
      <ellipse class="st3" cx="239.7" cy="54" rx="73.2" ry="29.1"/>
      <path class="st4" d="M166.5,54c0,16,32.8,29.1,73.2,29.1s73.2-13,73.2-29.1c0,0,0.4,210.5,0,215.1c-1.5,15.9-32.8,29.1-73.2,29.1
			s-73.2-13-73.2-29.1V54z"/>
      <path class="st5"
            d="M179.1,267V104.9V70.2c2.3,1.4,4.9,2.6,7.7,3.8v14.6v184.7v15.8c-2.8-1.2-5.3-2.4-7.7-3.8V267z"/>
      <path class="st5" d="M212.9,253.2V87.9V81c-2.6-0.4-5.2-0.9-7.7-1.5v6.2v167v41.9c2.5,0.5,5.1,1,7.7,1.5V253.2z"/>
      <path class="st5" d="M246.5,294.1v-204v-7c-2.2,0.1-4.5,0.1-6.8,0.1c-0.3,0-0.6,0-0.9,0v6.9v204v4.2c0.3,0,0.6,0,0.9,0
			c2.3,0,4.6,0,6.8-0.1V294.1z"/>
      <polygon class="st5" points="266.9,296.1 266.9,81 274.6,79.6 274.6,294.6 		"/>
      <path class="st5" d="M301.6,270.3V90.2V69.6c-2.2,1.4-4.9,2.6-7.7,4v16.7v180.1v18c2.3-1.1,6.1-3.2,7.7-4.2V270.3z"/>
	</g>
    <path class="st1" d="M164.4,217.7v53.5c0,16,34.2,29.1,76.4,29.1s74.8-13.1,76.4-29.1c0.2-1.5,0.2-25.2,0.2-56.3l-0.2-36.7
		c0,16-34.2,29.1-76.4,29.1s-76.4-13-76.4-29.1L164.4,217.7L164.4,217.7z"/>
    <path class="st6" d="M240,14.3" id="XMLID_82_"/>
    <path class="st7" d="M210.2,103.7" id="XMLID_81_"/>
    <path class="st7" d="M269.9,103.7" id="XMLID_80_"/>
    <path class="st6" d="M243.7,188.3" id="XMLID_60_"/>
    <path class="st8" d="M158.1,105.2c-2.9,35.3,19,44.3,58.5,42.1c20.9-1.2,12.6-25.3,23.2-25.3c10.6,0,2.3,24.1,23.2,25.3
		c39.6,2.2,61.4-6.8,58.5-42.1c0-0.1,0.1-1.8,0.1-1.8c1.5-1.9-44.2-6.4-73.3-7.4c-2.3-0.1-5.2-0.2-8.6-0.2s-6.2,0-8.6,0.2
		c-29,1-74.7,5.4-73.2,7.4C158.1,103.3,158.1,105.1,158.1,105.2L158.1,105.2z"/>
    <path class="st9" d="M154.9,99.4c1.2,6.6,1.6,8.5,4.2,8.6c6.3,0.1,17.1,1.8,20.7-1.7c4.6-4.6,9.9-5.1,16.3-5.6
		c10.1-0.8,21.6-0.5,31.5-0.7c2.4,0.4,3.9,1.6,5.7,1.8c3.3,0.7,9.6,0.7,13,0c1.8-0.3,3.3-1.5,5.7-1.8c9.9,0.2,21.4,0,31.5,0.7
		c6.4,0.5,11.8,1,16.3,5.6c3.6,3.7,14.4,1.8,20.7,1.7c2.6,0,3.1-1.9,4.2-8.6c0.4-2.2-42.1-6.3-84.8-6.3
		C197.3,93.2,154.6,97.2,154.9,99.4L154.9,99.4z"/>
    <path class="st10" d="M158.7,90.3c6.2-49.2,21.3-86.6,81.4-86.6s75.1,37.4,81.4,86.6C302.7,73.1,273.3,62,240,62
		S177.2,73.2,158.7,90.3L158.7,90.3z"/>
    <path class="st11" d="M221,5.2c5.8-1,12.2-1.5,19.1-1.5c6.9,0,13.2,0.5,19,1.5l11.3,60.1c-9.5-2-19.7-3.2-30.2-3.2
		c-10.6,0-20.7,1.2-30.2,3.2L221,5.2z"/>
    <path class="st12" d="M251,0h-22.2c-3.2,0-5.2,2.7-5.9,5.9l-13,62.1c-0.7,3.2,2.6,5.9,5.9,5.9h48.4c3.3,0,6.6-2.7,5.9-5.9
		L256.9,5.9C256.3,2.7,254.3,0,251,0L251,0z"/>
    <path class="st13" d="M210.4,74.8c2.2-4,9.2-13.2,17.1-5.2c2.5,2.5-1.5,2-3.3,1c-2.2-1.3-6.8-2.5-11,4.5
		C211.6,77.9,208.2,78.6,210.4,74.8L210.4,74.8z M269.7,74.8c-2.2-4-9.2-13.2-17.1-5.2c-2.5,2.5,1.4,2,3.3,1c2.2-1.3,6.9-2.5,11,4.5
		C268.4,77.9,271.7,78.6,269.7,74.8L269.7,74.8z"/>
    <path class="st10" d="M217.6,83.4c-27-2-36.9-1.3-52,4.6c-5.9,2.3-22.3,13.6-11.5-0.1c5.3-6.8,21.2-14,36.6-19.1
		c27.8-8.9,70.6-8.9,98.4,0c15.5,5,31.3,12.2,36.6,19.1c10.8,13.8-5.5,2.4-11.5,0.1c-15-5.8-27.3-6.8-52-4.6
		C251.6,84.4,228.4,84.2,217.6,83.4L217.6,83.4z"/>
    <path class="st14" d="M249.4,3.1h-19.3c-2.3,0-3.8,1.9-4.2,4.2c-3.1,15.6-4.9,28.4-7.9,43.5C216.4,58.5,265.5,3.1,249.4,3.1
		L249.4,3.1z"/>
    <path class="st12" d="M210.7,11.4c-27.2,9-39.1,31.2-45.1,62.9c7.8-3.3,17.4-7.6,29.7-9.3C197.2,39.3,199,22,210.7,11.4L210.7,11.4
		z M314.4,74.2c-6-31.6-17.9-53.8-45-62.7c11.6,10.5,13.4,27.9,15.3,53.5C297,66.7,306.7,70.9,314.4,74.2L314.4,74.2z"/>
    <path class="st12" d="M228,78.4c-6.9-0.3-67.6-1.3-14.5-10.3c15-2.5,38-2.5,52.9,0c53.6,9.1-8.2,10-14.4,10.3
		C246.2,78.7,233.7,78.6,228,78.4L228,78.4z"/>
    <path class="st15" d="M167.5,180.9c-0.8-0.7-1.8,0.1-1.5,1.1c2.8,6.7,8.2,20.5,8.2,28.1c0,10.2-9.8,24.7-9.8,24.7v28.2
		c0,0,5,27.5,72.2,27.5c0,0,4.9-25,7.1-24.3s6.7,24.3,6.7,24.3s59.6,0,67-30.1v-26.1c0,0-8-6.9-8-21c0-9.7,3.7-22.6,6-29.8
		c0.4-1.2-1.1-2.1-2-1.3c-7,6.6-23.9,19.3-54.1,24.1l-15.6,32.9l-11.9-32.2C231.9,206.9,198.6,207.4,167.5,180.9z"/>
    <path class="st16" d="M164.4,234.7c0,0,27.5,15.6,76.5,14.1v10.6c0,0-60.7,0-76.5-15.6V234.7z"/>
    <path class="st16" d="M317.4,239.1c0,0-22,11.3-70.9,9.6v10.6c0,0,53.6,0.5,70.9-11.7V239.1z"/>
    <path class="st16" d="M164.4,249.3c0,0,27.5,15.6,76.5,14.1l-4.3,10.6c0,0-56.4,0-72.2-15.7V249.3z"/>
    <path class="st16" d="M317.4,253.8c0,0-22,11.3-70.9,9.6l3.9,9.9c0,0,49.7,1.1,67-11V253.8z"/>
    <path class="st16"
          d="M193.3,196.8c0.2-2.3,13.2,5.5,13.2,5.5s0.2,28.1,5.7,47l-14.9-1.9C197.4,247.5,191.8,215.1,193.3,196.8z"/>
    <path class="st16"
          d="M295.8,195.9c-0.2-2.3-12.8,2.4-12.8,2.4s-0.5,31.2-6.1,50.2l14.9-1.9C291.7,246.5,297.3,214.1,295.8,195.9z"
    />
    <g>
		<g>
			<path class="st17" d="M342.1,268.7"/>
      <path class="st17" d="M344.7,259.2"/>
		</g>
      <g>
			<g>
				<g>
					<path class="st18" d="M338,275.4c-0.6,1.3-2.4,1.7-4.2,0.9c-1.7-0.8-2.7-2.4-2.1-3.7l21.3-49.7l7.6,3.4"/>
          <g>
						<g>
							<path class="st19" d="M338.1,214.8c4.9-4.3,11.4-4.8,16-3.9c1.3,0.2,2.3,0.7,3.2,1.1c1.5,0.6,4.5,2.1,4.5,2.1
								l3.8,1.7c0.1,0,0.2,0.1,0.3,0.2c0.8,0.4,1.7,0.7,2.6,0.9c1.1,0.2,1.7-0.3,3-0.2c0.6,0.1,1.3,0.2,1.7,0.4
								c0.2,0,0.4,0.1,0.6,0.2l0.4,0.2c0.2,0.1,0.4,0.2,0.4,0.2l3.3,1.6c1.4,0.6,1.9,2,1.5,3.2l-5.3,11.4c-0.5,1.2-2,1.6-3.4,0.9
								l-3.3-1.6c0,0-0.1-0.1-0.4-0.2l-0.4-0.2c-0.2-0.1-0.4-0.2-0.5-0.3c-0.5-0.3-1.5-2.6-1.9-3c-0.9-0.9-1.6,0.4-3,0.4
								c-0.8,0-1.7-0.4-1.9-0.5l-0.3-0.2c-0.3-0.1-0.5-0.2-0.6-0.3l0,0l-6.6-3.1c-1-0.4-1.5-1.3-1.7-2.1c0-0.2-0.1-1,0-1.2
								c0.1-1.8,0.1-4.3-1.8-5.2c-2.1-1-5-0.1-5-0.1s-2.5,1-4.4-0.3C337.1,215.9,338.1,214.8,338.1,214.8z" id="SVGID_2_"/>
						</g>
					</g>
				</g>
        <path class="st18" d="M357.3,211c-0.3,0.4-0.4,1-0.6,1.4c-0.1,0.4,0,0.9,0.2,1.3c0.3,0.4,0.7,0.7,1.1,1c0.8,0.5,1.6,1,2.3,1.3
					c0.4,0.2,0.9,0.3,1.3,0.4c0.4,0.1,0.9,0.2,1.3,0.2c0.4,0,0.8,0,1.2,0c0.5-0.1,0.8-0.1,1.1-0.5c0.3-0.4,0.5-0.8,0.7-1.3
					c0.3-0.6,0.3-1.1-0.2-1.6c-0.9-1-2.2-1.6-3.4-2c-1.1-0.5-2.3-0.8-3.5-0.8C358.1,210.4,357.7,210.4,357.3,211z"/>
			</g>
        <path class="st20" d="M371.6,222.3c-0.8-0.5-1-0.8-1.1-1.2c-0.1-0.6,0.3-1.2,0.6-1.7c0.3-0.4,1.1-0.4,1.8,0
				c0.8,0.4,2.5,1.1,2.7,1.2c0.3,0.2,0.6,0.4,0.8,0.6c0.5,0.7,0.2,1.7-0.4,2.2c-0.4,0.3-0.9,0.3-1.4,0.2
				C374.3,223.6,372.1,222.6,371.6,222.3z"/>
        <path class="st20" d="M364.8,221c-1.4-0.1-2.9-0.7-3.4-0.8c-1.7-0.5-3.7-1.3-5.6-2.4s-2.7-2.4-3.8-3.1c-0.9-0.5-2-0.7-2.9-1.1
				c-0.1,0-0.6-0.3-0.7-0.5c-0.1-0.5,0.5-0.6,1.4-0.7c0.5,0,2.4-0.1,4.4,0.4c0.1,0,0.6,0.2,0.7,0.5c0.6,1.6,1,2.3,2.6,3.1
				c1.5,0.8,3,1.5,5,1.9c1.9,0.5,2.2-0.5,3.2-0.2c0.2,0.1,0.5,0.2,0.8,0.3c0.6,0.3,0.5,0.7,0.4,0.9c-0.2,0.4-0.4,0.8-0.5,1.1
				C366,221.1,365.2,221.1,364.8,221z"/>
		</g>
	</g>
    <g>
		<g>
			<path d="M344,269.3c-1.7,0-3.3-1.2-3.8-3c0-0.1-2.9-12.1-10.9-31.4c0-0.1-0.1-0.2-0.1-0.3c-0.1-0.2-6.5-19.6-16.2-30.3
				c-1.5-1.6-1.4-4.1,0.3-5.5c1.6-1.5,4.1-1.4,5.5,0.3c10.5,11.5,17.1,30.9,17.8,33c8.2,19.8,11.1,31.9,11.2,32.4
				c0.5,2-0.8,4.2-2.9,4.7C344.6,269.3,344.3,269.3,344,269.3z"/>
		</g>
      <g>
			<path d="M336.7,267.5c-0.4,0-0.8-0.1-1.3-0.2c-2-0.7-3.1-2.9-2.4-5l4-12.1c0.5-1.4,1.6-2.3,2.9-2.6c1.4-0.3,2.8,0.2,3.7,1.4
				l7,8.4c1.4,1.7,1.2,4.1-0.5,5.4c-1.7,1.4-4.1,1.2-5.4-0.5l-2.5-3l-1.8,5.5C339.8,266.4,338.3,267.5,336.7,267.5z"/>
		</g>
	</g>
    <g>
		<path class="st21" d="M152.3,274.2h-6.1v-7.3H131v7.3h-6.1v-7.3c0-0.9,0.2-1.7,0.5-2.3c0.3-0.8,0.8-1.4,1.3-1.9
			c0.6-0.6,1.2-1,1.9-1.4c0.8-0.3,1.6-0.5,2.3-0.5h15.4c0.9,0,1.7,0.2,2.3,0.5c0.8,0.3,1.4,0.8,1.9,1.4c0.6,0.6,1,1.2,1.3,1.9
			c0.3,0.8,0.5,1.6,0.5,2.3L152.3,274.2L152.3,274.2z"/>
      <path class="st22" d="M164.6,320.2h-64.2l-3.1-1.4v-27.5l1.9-1.6l-1.9-1.6v-6.1c0-1.3,0.2-2.4,0.7-3.6c0.5-1.1,1.2-2,1.9-2.9
			c0.8-0.9,1.7-1.5,2.9-1.9c1.1-0.5,2.3-0.7,3.6-0.7h58.1V320.2z"/>
      <path class="st23" d="M173.7,273c1.3,0,2.4,0.2,3.6,0.7c1.1,0.5,2,1.2,2.9,1.9c0.8,0.9,1.5,1.8,1.9,2.9c0.5,1.1,0.7,2.3,0.7,3.6
			v6.1l-1.6,1.6l1.6,1.6v27.5c0,0.9-0.3,1.6-0.9,2.1c-0.6,0.6-1.4,0.9-2.1,0.9h-79.4c-0.9,0-1.6-0.3-2.1-0.9c-0.7-0.6-1-1.4-1-2.1
			h58v-27.5h-58v-3h58v-6.1c0-1.3,0.2-2.4,0.7-3.6c0.5-1.1,1.2-2,1.9-2.9c0.9-0.9,1.8-1.5,2.9-1.9c1.1-0.5,2.3-0.7,3.6-0.7
			L173.7,273L173.7,273z"/>
      <rect class="st24" height="3" width="27.5" x="155.4" y="288.2"/>
      <path class="st21" d="M114.1,285.2h3c0.4,0,0.8,0.2,1.1,0.5c0.3,0.3,0.5,0.7,0.5,1.1v9.1c0,0.7-0.1,1.3-0.4,1.8
			c-0.2,0.6-0.6,1.1-1,1.5c-0.4,0.4-0.9,0.8-1.5,1c-0.6,0.3-1.2,0.4-1.7,0.4H111L114.1,285.2z M144.7,285.2h3c0.4,0,0.8,0.2,1.1,0.5
			c0.3,0.3,0.5,0.7,0.5,1.1v9.1c0,0.6-0.1,1.2-0.4,1.7c-0.2,0.6-0.6,1.1-1,1.5c-0.4,0.4-0.9,0.8-1.5,1c-0.6,0.3-1.2,0.4-1.7,0.4h-3
			L144.7,285.2z"/>
      <path class="st25" d="M111,300.5c-0.6,0-1.2-0.1-1.7-0.4c-0.6-0.3-1.1-0.6-1.5-1c-0.4-0.4-0.8-0.9-1-1.5c-0.2-0.6-0.4-1.2-0.4-1.7
			v-4.6l1.5-1.6l-1.5-1.6v-1.5c0-0.4,0.2-0.8,0.5-1.1c0.3-0.3,0.7-0.5,1.1-0.5h6.1c0.4,0,0.8,0.2,1.1,0.5c0.3,0.3,0.5,0.7,0.5,1.1
			v1.6l-1.8,1.6l1.8,1.6v4.6c0,0.7-0.1,1.3-0.4,1.8c-0.2,0.6-0.6,1.1-1,1.5c-0.4,0.4-0.9,0.8-1.5,1
			C112.3,300.4,111.7,300.5,111,300.5 M141.6,300.5c-0.7,0-1.3-0.1-1.8-0.4c-0.6-0.3-1.1-0.6-1.5-1c-0.4-0.4-0.8-0.9-1-1.5
			c-0.3-0.6-0.4-1.2-0.4-1.8v-4.6l1.6-1.6l-1.6-1.6v-1.4c0-0.4,0.2-0.8,0.5-1.1c0.3-0.3,0.7-0.5,1.1-0.5h6.1c0.4,0,0.8,0.2,1.1,0.5
			c0.3,0.3,0.5,0.7,0.5,1.1v1.6l-1.5,1.6l1.5,1.6v4.6c0,0.6-0.1,1.2-0.4,1.7c-0.2,0.6-0.6,1.1-1,1.5c-0.4,0.4-0.9,0.8-1.5,1
			C142.8,300.4,142.2,300.5,141.6,300.5"/>
      <path class="st26" d="M115.7,291.3h-9.2v-3h9.1L115.7,291.3L115.7,291.3z M146.2,291.3h-9.1v-3h9.1
			C146.2,288.3,146.2,291.3,146.2,291.3z"/>
	</g>
    <g>
		<g>
			<path d="M139.1,271.6c-0.1,0-0.2,0-0.3,0c-2.1-0.2-3.7-2-3.6-4.2c0-0.5,1-11.3,11.8-47.4c0-0.1,0-0.1,0.1-0.2
				c0.1-0.2,1.6-4.4,4.4-9c4-6.6,8.5-10.8,13.4-12.3c2-0.7,4.3,0.5,4.9,2.5s-0.5,4.3-2.5,4.9c-6.4,2-11.4,12.4-12.7,16.4
				c-10.4,34.9-11.4,45.7-11.4,45.8C142.9,270,141.2,271.6,139.1,271.6z"/>
		</g>
      <g>
			<path d="M145.7,269.3c-1.7,0-3.4-1.3-3.8-3l-0.9-4l-3.8,3.7c-1.6,1.5-4,1.5-5.5-0.1c-1.5-1.6-1.5-4,0.1-5.5l8.8-8.7
				c1-1,2.4-1.4,3.8-1c1.4,0.4,2.3,1.6,2.7,2.9l2.4,10.8c0.5,2.1-0.9,4.2-2.9,4.7C146.3,269.3,146,269.3,145.7,269.3z"/>
		</g>
	</g>
    <g>
		<path class="st27" d="M239.5,185.6c-14.8,0-29.2-5.4-40.8-15.4c-1.7-1.4-1.8-3.9-0.4-5.4c1.4-1.7,3.9-1.8,5.4-0.4
			c10.8,9.2,24.2,14,37.7,13.5c13.4-0.5,25.5-6.2,33.7-15.9c1.4-1.7,3.9-1.8,5.4-0.4c1.7,1.4,1.8,3.9,0.4,5.4
			c-9.8,11.5-23.7,18.1-39.4,18.7C241,185.6,240.2,185.6,239.5,185.6z"/>
	</g>
    <circle class="st28" cx="214.9" cy="117.9" r="16.3"/>
    <circle class="st29" cx="214.9" cy="123.3" r="6.8"/>

    <ellipse class="st28" cx="264.8" cy="117.9" rx="16.3"
             ry="16.3" transform="matrix(0.1602 -0.9871 0.9871 0.1602 106.0012 360.4081)"/>
    <circle class="st29" cx="264.8" cy="123.3" r="6.8"/>
</g>
</svg>
