<?xml version="1.0" encoding="utf-8"?>
<!-- Generator: Adobe Illustrator 26.0.2, SVG Export Plug-In . SVG Version: 6.00 Build 0)  -->
<svg id="Layer_1" style="enable-background:new 0 0 476.9 386.6;" version="1.1" viewBox="0 0 476.9 386.6" x="0px"
     xml:space="preserve"
     xmlns="http://www.w3.org/2000/svg" xmlns:xlink="http://www.w3.org/1999/xlink" y="0px">
<style type="text/css">
	.st0 {
    fill: #E6E6EE;
  }

  .st1 {
    fill: #E8003D;
    stroke: #E8003D;
    stroke-miterlimit: 10;
  }

  .st2 {
    fill: #2D313F;
  }

  .st3 {
    fill: #FEAF06;
  }

  .st4 {
    fill: #FBD82B;
  }

  .st5 {
    fill: #FFE278;
  }

  .st6 {
    fill: #FFFFFF;
  }

  .st7 {
    fill: #701D1D;
  }

  .st8 {
    fill: #FEFCF9;
  }

  .st9 {
    fill: #B57817;
  }
</style>
  <path class="st0" d="M0,339.1c0-131.7,106.8-238.5,238.5-238.5s238.5,106.8,238.5,238.5H0z"/>
  <g>
	<path d="M161.9,261.8c-0.6,0-1.3-0.1-1.9-0.5c-15-7.9-22.7-26.7-17.7-42.9c1.6-5.1,4.1-9.1,7.5-11.8c4.4-3.6,10.1-4.8,14.9-3.1
		c2.1,0.7,3.2,3,2.5,5.1c-0.7,2.1-3,3.2-5.1,2.5c-2.2-0.8-5.1-0.1-7.3,1.7c-2.1,1.7-3.8,4.5-4.9,8c-3.9,12.4,2.3,27.4,13.8,33.4
		c2,1,2.7,3.5,1.7,5.4C164.7,261,163.3,261.8,161.9,261.8z"/>
</g>
  <g>
	<path d="M266.3,386.6c-0.6,0-1.2-0.1-1.8-0.4l-16-8c-1.4-0.7-2.2-2.1-2.2-3.6v-79.1c0-2.2,1.8-4,4-4s4,1.8,4,4v76.6l13.8,6.9
		c2,1,2.8,3.4,1.8,5.4C269.2,385.8,267.7,386.6,266.3,386.6z"/>
</g>
  <g>
	<path d="M209.5,386.6c-1.5,0-2.9-0.8-3.6-2.2c-1-2-0.2-4.4,1.8-5.4l13.8-6.9v-76.6c0-2.2,1.8-4,4-4s4,1.8,4,4v79.1
		c0,1.5-0.9,2.9-2.2,3.6l-16,8C210.7,386.5,210.1,386.6,209.5,386.6z"/>
</g>
  <g>
	<g>
		<path d="M332.2,234.7c-4.3,0-7.2-2.3-8-3.1l-21-17.5c-1.7-1.4-1.9-3.9-0.5-5.6c1.4-1.7,3.9-1.9,5.6-0.5l21,17.5
			c0.1,0.1,0.1,0.1,0.3,0.2c0.1,0.1,1.3,1.1,3.3,0.8c1.8-0.3,5.5-2,10.2-10.3c10.5-18.6,14.9-35.7,15-35.8c0.5-2.1,2.7-3.4,4.9-2.9
			c2.1,0.5,3.4,2.7,2.9,4.9c-0.2,0.7-4.7,18.3-15.8,37.8c-4.9,8.7-10.4,13.6-16.2,14.4C333.3,234.7,332.8,234.7,332.2,234.7z"/>
	</g>
    <g>
		<path d="M354,204.5c-1.2,0-2.4-0.6-3.1-1.5L340,189.1c-1.4-1.7-1.1-4.3,0.7-5.6c1.7-1.4,4.3-1.1,5.6,0.7l9.5,12.1l16.6-1.7
			c2.2-0.2,4.2,1.4,4.4,3.6s-1.4,4.2-3.6,4.4l-18.8,2C354.3,204.5,354.2,204.5,354,204.5z"/>
	</g>
</g>
  <path class="st1" d="M308.9,188.7H159c-6.6,0-12-5.4-12-12V167c0-6.6,5.4-12,12-12h150c6.6,0,12,5.4,12,12v9.7
	C320.9,183.3,315.5,188.7,308.9,188.7z"/>
  <g>
	<ellipse class="st2" cx="235.5" cy="278.9" rx="63" ry="27.2"/>
    <ellipse class="st3" cx="234.9" cy="43.8" rx="75.3" ry="29.9"/>

    <image height="458" style="overflow:visible;" transform="matrix(0.24 0 0 0.24 144.2637 0)" width="756"
           xlink:href="9D8E5D55EF181B3F.png">
	</image>
    <path class="st4" d="M159.6,43.8c0,16.5,33.7,29.9,75.3,29.9s75.3-13.4,75.3-29.9c0,0,0.4,216.6,0,221.3
		c-1.5,16.4-33.7,29.9-75.3,29.9s-75.3-13.4-75.3-29.9V43.8z"/>
    <path class="st5"
          d="M172.5,262.9V96.2l0-35.7c2.4,1.4,5,2.7,7.9,3.9l0,15v190l0,16.3c-2.9-1.2-5.5-2.5-7.9-3.9L172.5,262.9z"/>
    <path class="st5"
          d="M207.2,248.7V78.7l0-7.1c-2.7-0.4-5.4-0.9-7.9-1.5l0,6.4v171.8l0,43.1c2.6,0.5,5.2,1,7.9,1.5L207.2,248.7z"/>
    <path class="st5" d="M241.8,290.8V80.9l0-7.2c-2.3,0.1-4.6,0.1-7,0.1c-0.3,0-0.6,0-0.9,0v7.1v209.9l0,4.3c0.3,0,0.6,0,0.9,0
		c2.4,0,4.7,0,7-0.1V290.8z"/>
    <polygon class="st5" points="262.9,292.8 262.9,71.6 270.8,70.1 270.8,291.3 	"/>
    <path class="st5"
          d="M298.5,266.4V81.1l0-21.2c-2.3,1.4-5,2.7-7.9,4.1v17.2v185.3v18.5c2.4-1.1,6.3-3.3,7.9-4.3L298.5,266.4z"/>
</g>
  <path class="st1" d="M156.3,210v55c0,16.5,35.2,29.9,78.6,29.9s77-13.5,78.6-29.9c0.2-1.5,0.2-25.9,0.2-57.9l-0.2-37.8
	c0,16.5-35.2,29.9-78.6,29.9s-78.6-13.4-78.6-29.9V210z"/>
  <path class="st6" d="M238.9,211.4l-22,33.5l12.5,8.2l2.1-3.2L238,281l21.6-33.6l-12.1-7.9l-2.1,3.2L238.9,211.4z M248.8,245l5.3,3.6
	l-14.2,21.8l-6.5-31.2l-5.3,8.1l-5.2-3.4l14.3-21.9l6.5,30.9L248.8,245z"/>
  <g>
	<path class="st7" d="M229.2,173.5c-2.1,0-3.8-1.6-4-3.7c-0.2-2.2,1.5-4.1,3.7-4.3c20-1.4,22.1-15.9,22.1-16
		c0.3-2.2,2.3-3.7,4.5-3.5c2.2,0.3,3.7,2.3,3.5,4.5c-0.9,7.3-8.3,21.5-29.5,23C229.4,173.5,229.3,173.5,229.2,173.5z"/>
</g>
  <circle class="st8" cx="269.6" cy="119.4" r="16"/>
  <circle class="st7" cx="269.6" cy="119.4" r="8.3"/>
  <circle class="st8" cx="208.5" cy="119.4" r="16"/>
  <circle class="st7" cx="208.5" cy="119.4" r="8.3"/>
  <g>
	<path class="st9" d="M188.2,88.7c-0.4,0-0.9-0.1-1.3-0.2c-2-0.7-3.1-3-2.3-5c3.4-9.3,14.5-18.6,29.3-18.6c0.2,0,0.3,0,0.5,0
		c2.2,0,3.9,1.8,3.9,4c0,2.2-1.8,4-4,3.9c-12.6-0.2-20.4,8.1-22.3,13.4C191.3,87.7,189.8,88.7,188.2,88.7z"/>
</g>
  <g>
	<path class="st9" d="M290,88.7c-1.6,0-3.1-1-3.7-2.6c-1.9-5.2-9.5-13.4-21.9-13.4c-0.1,0-0.3,0-0.4,0c-2.1,0-3.9-1.7-3.9-3.9
		c0-2.2,1.7-4,3.9-4c0.2,0,0.3,0,0.5,0c14.8,0,25.9,9.3,29.3,18.6c0.7,2-0.3,4.3-2.3,5C290.9,88.6,290.4,88.7,290,88.7z"/>
</g>
</svg>
