<?xml version="1.0" encoding="utf-8"?>
<!-- Generator: Adobe Illustrator 27.0.0, SVG Export Plug-In . SVG Version: 6.00 Build 0)  -->
<svg id="Outline_Icons" style="enable-background:new 0 0 18.4 22.6;" version="1.1" viewBox="0 0 18.4 22.6"
     x="0px"
     xml:space="preserve" xmlns="http://www.w3.org/2000/svg" xmlns:xlink="http://www.w3.org/1999/xlink" y="0px">
<style type="text/css">
	.st0 {
    fill: url(#SVGID_1_);
  }

  .st1 {
    fill: url(#SVGID_00000123421269390841955330000001973694299329610152_);
  }

  .st2 {
    fill: url(#SVGID_00000179620093889439698660000016526196397658918536_);
  }

  .st3 {
    fill: url(#SVGID_00000158719867010572234540000004129829986472823719_);
  }

  .st4 {
    fill: #FFFFFF;
  }
</style>
  <linearGradient gradientUnits="userSpaceOnUse" id="SVGID_1_" x1="9.4389" x2="9.4389" y1="20.9724" y2="16.2748">
	<stop offset="0" style="stop-color:#FFFFFF;stop-opacity:0"/>
    <stop offset="1" style="stop-color:#FFFFFF;stop-opacity:0.3"/>
</linearGradient>
  <path class="st0" d="M11.3,18.1c0,1.6-1.8,2.9-1.8,2.9s-1.8-1.3-1.8-2.9c-0.1-0.9,0.8-1.8,1.7-1.8c0.1,0,0,0,0.1,0
	c0.9,0,1.7,0.5,1.8,1.4C11.3,17.8,11.3,18,11.3,18.1z"/>
  <g>
	<g>

			<linearGradient gradientUnits="userSpaceOnUse" id="SVGID_00000041275620861883368050000013248173966968946821_"
                      x1="9.438" x2="9.438" y1="14.0523" y2="0.676">
			<stop offset="0" style="stop-color:#FFFFFF;stop-opacity:0"/>
        <stop offset="1" style="stop-color:#FFFFFF;stop-opacity:0.3"/>
		</linearGradient>
    <path d="M9.4,0.7C4.4,4.8,6.3,9.4,7.6,14.1h3.7
			C12.6,9.4,14.5,4.8,9.4,0.7z" style="fill:url(#SVGID_00000041275620861883368050000013248173966968946821_);"/>

    <linearGradient gradientUnits="userSpaceOnUse" id="SVGID_00000080179244682457767290000010586197143370032277_"
                    x1="6.2091" x2="6.2091" y1="15.4808" y2="11.2848">
			<stop offset="0" style="stop-color:#FFFFFF;stop-opacity:0"/>
      <stop offset="1" style="stop-color:#FFFFFF;stop-opacity:0.3"/>
		</linearGradient>
    <path d="M6.8,11.3l-0.9,0.5c-0.6,0.3-1,1-1,1.7
			V15c0,0.2,0.1,0.3,0.2,0.4c0.1,0.1,0.3,0.1,0.5,0l2-1.4" style="fill:url(#SVGID_00000080179244682457767290000010586197143370032277_);"/>

    <linearGradient gradientUnits="userSpaceOnUse" id="SVGID_00000152260724967601122940000002986381020654289071_"
                    x1="12.6668" x2="12.6668" y1="15.4808" y2="11.2202">
			<stop offset="0" style="stop-color:#FFFFFF;stop-opacity:0"/>
      <stop offset="1" style="stop-color:#FFFFFF;stop-opacity:0.3"/>
		</linearGradient>
    <path d="M12.1,11.2l0.9,0.5c0.6,0.4,1,1,1,1.7V15
			c0,0.2-0.1,0.3-0.2,0.4c-0.1,0.1-0.3,0.1-0.5,0l-2-1.4" style="fill:url(#SVGID_00000152260724967601122940000002986381020654289071_);"/>
	</g>
</g>
  <g>
	<path class="st4" d="M9.5,15.6C9.5,15.6,9.5,15.6,9.5,15.6c-0.1,0-0.1,0-0.2,0c0,0,0,0,0,0c-0.6,0-1.3,0.3-1.7,0.8
		c-0.5,0.5-0.7,1.1-0.7,1.7c0,2,2.1,3.4,2.1,3.4c0.1,0.1,0.2,0.1,0.4,0.1s0.3,0,0.4-0.1c0.1-0.1,2.1-1.5,2.1-3.4c0-0.2,0-0.3,0-0.5
		C11.8,16.4,10.7,15.6,9.5,15.6z M10.6,18.1c0,0.8-0.7,1.6-1.2,2c-0.5-0.5-1.2-1.2-1.2-2.1c0-0.2,0.1-0.5,0.3-0.7
		C8.8,17.1,9,17,9.3,17c0,0,0,0,0,0c0,0,0.1,0,0.1,0c0,0,0,0,0.1,0c0.6,0,1.1,0.3,1.2,0.8C10.6,17.9,10.6,17.9,10.6,18.1
		C10.6,18,10.6,18.1,10.6,18.1z"/>
    <path class="st4" d="M15.9,2.1h0.4v0.4c0,0.3,0.2,0.5,0.5,0.5s0.5-0.2,0.5-0.5V2.1h0.4c0.3,0,0.5-0.2,0.5-0.5S18,1.1,17.7,1.1h-0.4
		V0.7c0-0.3-0.2-0.5-0.5-0.5s-0.5,0.2-0.5,0.5v0.4h-0.4c-0.3,0-0.5,0.2-0.5,0.5S15.6,2.1,15.9,2.1z"/>
    <path class="st4" d="M4.2,13.5V15c0,0.4,0.2,0.8,0.5,1c0.2,0.1,0.4,0.2,0.6,0.2c0.2,0,0.4-0.1,0.6-0.2l1.9-1.2h3.3L13,16
		c0.2,0.1,0.4,0.2,0.6,0.2c0.2,0,0.4-0.1,0.6-0.2c0.4-0.2,0.6-0.6,0.6-1v-1.5c0-1-0.5-1.9-1.4-2.3l-0.5-0.2c0.9-3.6,1.1-7.3-3-10.7
		C9.6-0.1,9.3-0.1,9,0.2c-4.2,3.4-4,7.1-3,10.8l-0.5,0.2C4.7,11.6,4.2,12.5,4.2,13.5z M11,12.8l-0.2,0.6H8.1l-0.2-0.6
		c0-0.1-0.1-0.2-0.1-0.4h3.2C11,12.5,11,12.7,11,12.8z M12.5,12.2l0.2,0.1c0.4,0.2,0.7,0.7,0.7,1.2v1.2l-1.3-0.9l0.2-0.6
		C12.3,12.9,12.4,12.5,12.5,12.2z M9.4,1.6c3.3,2.9,2.9,6.1,2,9.5h-4C6.5,7.7,6.2,4.5,9.4,1.6z M6.2,12.4l0.2-0.1
		c0.1,0.3,0.2,0.6,0.3,0.9l0.2,0.6l-1.3,0.9v-1.2C5.5,13,5.8,12.6,6.2,12.4z"/>
    <path class="st4" d="M9.4,8.1c1,0,1.9-0.8,1.9-1.9s-0.8-1.9-1.9-1.9S7.6,5.2,7.6,6.2S8.4,8.1,9.4,8.1z M9.4,5.3
		c0.5,0,0.9,0.4,0.9,0.9S9.9,7.1,9.4,7.1S8.6,6.7,8.6,6.2S9,5.3,9.4,5.3z"/>
    <path class="st4" d="M5.3,17.1c-1.3,0-2.4,0.8-2.5,1.8c-0.7,0-1.4,0.3-1.9,0.8C0.3,20.3,0,21,0,21.8v0.1c0,0.4,0.3,0.6,0.7,0.6
		c0,0,0,0,0,0c0.4,0,0.7-0.4,0.7-0.7c0-0.4,0.2-0.8,0.5-1.1s0.7-0.4,1.1-0.4h0.5c0.4,0,0.7-0.3,0.7-0.7v-0.5c0-0.4,0.6-0.7,1.2-0.7
		c0.4,0,0.7-0.3,0.7-0.7S5.7,17.1,5.3,17.1z"/>
    <path class="st4" d="M17.5,19.7c-0.5-0.5-1.2-0.8-1.9-0.8c-0.1-1.2-1.3-1.8-2.5-1.8c-0.4,0-0.7,0.3-0.7,0.7s0.3,0.7,0.7,0.7
		c0.6,0,1.2,0.3,1.2,0.7v0.5c0,0.4,0.3,0.7,0.7,0.7h0.5c0.4,0,0.8,0.1,1.1,0.4c0.3,0.3,0.5,0.7,0.5,1.2c0,0.4,0.3,0.7,0.7,0.7
		c0,0,0,0,0,0c0.4,0,0.7-0.3,0.7-0.7v-0.1C18.4,21,18.1,20.3,17.5,19.7z"/>
    <path class="st4" d="M0.7,10.3h0.4v0.4c0,0.3,0.2,0.5,0.5,0.5s0.5-0.2,0.5-0.5v-0.4h0.4C2.8,10.3,3,10,3,9.8S2.8,9.3,2.5,9.3H2.1
		V8.8c0-0.3-0.2-0.5-0.5-0.5S1.1,8.6,1.1,8.8v0.4H0.7c-0.3,0-0.5,0.2-0.5,0.5S0.4,10.3,0.7,10.3z"/>
    <path class="st4"
          d="M15.3,10.1c0.4,0,0.8-0.3,0.8-0.8s-0.3-0.8-0.8-0.8c-0.4,0-0.8,0.3-0.8,0.8S14.9,10.1,15.3,10.1z"/>
    <circle class="st4" cx="3.6" cy="2.5" r="0.8"/>
</g>
</svg>
