<?xml version="1.0" encoding="utf-8"?>
<!-- Generator: Adobe Illustrator 26.1.0, SVG Export Plug-In . SVG Version: 6.00 Build 0)  -->
<svg id="Layer_1" style="enable-background:new 0 0 49 49;" version="1.1" viewBox="0 0 49 49" x="0px"
     xml:space="preserve"
     xmlns="http://www.w3.org/2000/svg" xmlns:xlink="http://www.w3.org/1999/xlink" y="0px">
<style type="text/css">
	.st0 {
    fill: #658292;
  }

  .st1 {
    fill: none;
    stroke: #658292;
    stroke-width: 4;
    stroke-linecap: round;
    stroke-linejoin: round;
    stroke-miterlimit: 8.0007;
  }
</style>
  <g transform="matrix(2.000166680556713,0,0,2.000166680556713,0,0)">
	<g>
		<path class="st0" d="M12.2,24.5C5.5,24.5,0,19,0,12.2C0,5.5,5.5,0,12.2,0C19,0,24.5,5.5,24.5,12.2C24.5,19,19,24.5,12.2,24.5z
			 M12.2,2C6.6,2,2,6.6,2,12.2s4.6,10.3,10.3,10.3s10.3-4.6,10.3-10.3S17.9,2,12.2,2z"/>
	</g>
    <g>
		<path class="st0" d="M20.2,21.2c-0.3,0-0.5-0.1-0.7-0.3L3.6,5c-0.4-0.4-0.4-1,0-1.4c0.4-0.4,1-0.4,1.4,0l15.9,15.9
			c0.4,0.4,0.4,1,0,1.4C20.7,21.1,20.5,21.2,20.2,21.2z"/>
	</g>
    <g>
		<path class="st1" d="M12.8,12.8"/>
	</g>
    <g>
		<path class="st1" d="M12.8,17.1"/>
	</g>
</g>
</svg>
