<?xml version="1.0" encoding="utf-8"?>
<!-- Generator: Adobe Illustrator 26.1.0, SVG Export Plug-In . SVG Version: 6.00 Build 0)  -->
<svg id="Layer_1" style="enable-background:new 0 0 49 49;" version="1.1" viewBox="0 0 49 49" x="0px"
     xml:space="preserve"
     xmlns="http://www.w3.org/2000/svg" xmlns:xlink="http://www.w3.org/1999/xlink" y="0px">
<style type="text/css">
	.st0 {
    fill: #08DC5A;
  }

  .st1 {
    fill: #658292;
  }
</style>
  <g transform="matrix(2,0,0,2,0,0)">
	<g>
		<path class="st0" d="M12.2,8.5V16"/>
    <path d="M12.2,17c-0.6,0-1-0.4-1-1V8.5c0-0.6,0.4-1,1-1s1,0.4,1,1V16C13.2,16.6,12.8,17,12.2,17z"/>
	</g>
    <g>
		<path class="st0" d="M1,12.2c0,6.2,5,11.3,11.2,11.3s11.2-5,11.2-11.3l0,0C23.5,6,18.5,1,12.2,1S1,6,1,12.2L1,12.2z"/>
      <path class="st1" d="M12.2,24.5C5.5,24.5,0,19,0,12.2C0,5.5,5.5,0,12.2,0C19,0,24.5,5.5,24.5,12.2C24.5,19,19,24.5,12.2,24.5z
			 M12.2,2C6.6,2,2,6.6,2,12.2s4.6,10.2,10.2,10.2s10.2-4.6,10.2-10.2S17.9,2,12.2,2z"/>
	</g>
</g>
</svg>
