<svg fill="none" height="24" viewBox="0 0 24 24" width="24" xmlns="http://www.w3.org/2000/svg">
  <path d="M12 23.5C18.3513 23.5 23.5 18.3513 23.5 12C23.5 5.64873 18.3513 0.5 12 0.5C5.64873 0.5 0.5 5.64873 0.5 12C0.5 18.3513 5.64873 23.5 12 23.5Z"
        fill="#ffffff"></path>
  <path d="M12 20.5C9.21012 20.4996 6.51553 19.485 4.41821 17.6452C2.3209 15.8055 0.96389 13.266 0.599993 10.5C0.392797 12.0609 0.508369 13.6478 0.939549 15.1622C1.37073 16.6767 2.10833 18.0865 3.10664 19.3042C4.10495 20.5219 5.3427 21.5216 6.74319 22.2414C8.14368 22.9612 9.67707 23.3857 11.2483 23.4886C12.8196 23.5915 14.3953 23.3707 15.8777 22.8397C17.3601 22.3088 18.7177 21.4791 19.8663 20.402C21.0149 19.3249 21.9301 18.0234 22.5552 16.5781C23.1802 15.1329 23.5018 13.5746 23.5 12C23.4991 11.4984 23.4657 10.9973 23.4 10.5C23.0361 13.266 21.6791 15.8055 19.5818 17.6452C17.4845 19.485 14.7899 20.4996 12 20.5Z"
        fill="#E4F1F5"></path>
  <path d="M12 23.499C18.3513 23.499 23.5 18.3503 23.5 11.999C23.5 5.64773 18.3513 0.499001 12 0.499001C5.64873 0.499001 0.5 5.64773 0.5 11.999C0.5 18.3503 5.64873 23.499 12 23.499Z" stroke="#002567" stroke-linecap="round"
        stroke-linejoin="round"></path>
  <path d="M9.5 7.499H8.5C7.94772 7.499 7.5 7.94672 7.5 8.499V16.499C7.5 17.0513 7.94772 17.499 8.5 17.499H9.5C10.0523 17.499 10.5 17.0513 10.5 16.499V8.499C10.5 7.94672 10.0523 7.499 9.5 7.499Z" fill="#66E1FF" stroke="#002567" stroke-linecap="round"
        stroke-linejoin="round"></path>
  <path d="M15.5 7.499H14.5C13.9477 7.499 13.5 7.94672 13.5 8.499V16.499C13.5 17.0513 13.9477 17.499 14.5 17.499H15.5C16.0523 17.499 16.5 17.0513 16.5 16.499V8.499C16.5 7.94672 16.0523 7.499 15.5 7.499Z" fill="#66E1FF" stroke="#002567" stroke-linecap="round"
        stroke-linejoin="round"></path>
</svg>
