<?xml version="1.0" encoding="utf-8"?>
<!-- Generator: Adobe Illustrator 26.4.1, SVG Export Plug-In . SVG Version: 6.00 Build 0)  -->
<svg id="Layer_1" style="enable-background:new 0 0 35.1 35;" version="1.1" viewBox="0 0 35.1 35" x="0px"
     xml:space="preserve"
     xmlns="http://www.w3.org/2000/svg" xmlns:xlink="http://www.w3.org/1999/xlink" y="0px">
<style type="text/css">
	.st0 {
    fill: url(#SVGID_1_);
  }

  .st1 {
    fill: none;
  }

  .st2 {
    fill: #FFFFFF;
  }
</style>
  <linearGradient gradientTransform="matrix(1 0 0 -1 0 39)" gradientUnits="userSpaceOnUse" id="SVGID_1_" x1="1.2501" x2="33.8524" y1="21.5"
                  y2="21.5">
	<stop offset="0" style="stop-color:#FFFFFF;stop-opacity:0"/>
    <stop offset="1" style="stop-color:#FFFFFF;stop-opacity:0.3"/>
</linearGradient>
  <path class="st0" d="M31.7,29.5h-4L25,23.3h6.8l-7.9-12.1L25,23.3l-1.6-3.6v-4.3l7.9-1.9c0.7-0.2,1.1-0.7,1.1-1.4v-5
	c0-1.4-1.1-2.5-2.5-2.5s-2.5,1.1-2.5,2.5v1.7h-5.8V5.2c0-2.2-1.8-4-4-4s-4,1.8-4,4v3.6H7.8V7c0-1.4-1.1-2.5-2.5-2.5S2.7,5.6,2.7,7v5
	c0,0.7,0.5,1.3,1.1,1.4l7.9,1.9v4.3l-1.6,3.6l1.5-14l-8.3,14h6.8l-2.7,6.2h-4c-1.2,0-2.2,1-2.2,2.2s1,2.2,2.2,2.2h28.3
	c1.2,0,2.2-1,2.2-2.2S32.9,29.5,31.7,29.5z M12.2,29.5l5.4-7.2l5.4,7.2H12.2z"/>
  <g transform="matrix(2,0,0,2,0,0)">
	<path class="st1" d="M17.1,15.7c0,0.6-0.5,1.1-1.1,1.1H1.9c-0.6,0-1.1-0.5-1.1-1.1s0.5-1.1,1.1-1.1H16
		C16.6,14.7,17.1,15.1,17.1,15.7z"/>
    <path class="st1" d="M11,4.3h2.9V3.4c0-0.7,0.6-1.3,1.3-1.3s1.3,0.6,1.3,1.3v2.5c0,0.3-0.2,0.6-0.6,0.7l-4,1v2.2l2.2,4.9h-2.4L9,11
		l-2.7,3.6H3.9l2.2-4.9V7.6l-4-1c-0.3,0-0.6-0.3-0.6-0.7V3.4c0-0.7,0.6-1.3,1.3-1.3s1.3,0.6,1.3,1.3v0.9H7"/>
    <path class="st1" d="M11,4.3L9,5.2L7,4.3V2.5c0-1.1,0.9-2,2-2s2,0.9,2,2V4.3z"/>
    <polyline class="st1" points="4.1,7.1 1.9,11.6 5.3,11.6 	"/>
    <polyline class="st1" points="13.9,7.1 16,11.6 12.7,11.6 	"/>
    <line class="st1" x1="6.1" x2="11.9" y1="8.9" y2="8.9"/>
    <line class="st1" x1="7" x2="11" y1="2.5" y2="2.5"/>
</g>
  <path class="st2" d="M31.7,28.2h-3.2l-1.6-3.7h4.8c0.4,0,0.8-0.2,1.1-0.6c0.2-0.4,0.3-0.8,0.1-1.2l-3.7-7.5l2.4-0.6
	c1.2-0.3,2.1-1.4,2.1-2.6V7c0-2.1-1.7-3.8-3.8-3.8S26.1,4.9,26.1,7v0.6h-3.3V5.2c0-2.9-2.3-5.2-5.2-5.2s-5.2,2.3-5.2,5.2v2.4H9V7
	c0-2.1-1.7-3.8-3.8-3.8S1.4,4.9,1.4,7v5c0,1.3,0.9,2.3,2.1,2.6L6,15.2l-3.7,7.5c-0.2,0.4-0.2,0.8,0.1,1.2c0.2,0.4,0.6,0.6,1.1,0.6
	h4.8l-1.6,3.7H3.4c-1.9,0-3.4,1.5-3.4,3.4S1.5,35,3.4,35h28.3c1.9,0,3.4-1.5,3.4-3.4S33.6,28.2,31.7,28.2z M29.7,22h-3.9l-1.2-2.6
	v-3.1l2.1-0.5L29.7,22z M14.8,6.4h5.5V8l-2.7,1.2L14.9,8L14.8,6.4L14.8,6.4z M17.6,2.4c1.1,0,2,0.6,2.4,1.5h-4.8
	C15.6,3.1,16.5,2.4,17.6,2.4z M3.9,12V7c0-0.7,0.6-1.3,1.3-1.3S6.5,6.3,6.5,7v1.8c0,0.7,0.6,1.2,1.2,1.2h5.5l3.8,1.8
	c0.2,0.1,0.3,0.1,0.5,0.1s0.4,0,0.5-0.1l3.7-1.7h5.5c0.7,0,1.2-0.6,1.2-1.2V7c0-0.7,0.6-1.3,1.3-1.3S31,6.3,31,7v5
	c0,0.1-0.1,0.2-0.2,0.2l-7.9,1.9c-0.6,0.1-1,0.6-1,1.2v1.3H13v-1.3c0-0.6-0.4-1.1-1-1.2l-7.9-1.9C4,12.2,3.9,12.1,3.9,12z M5.4,22
	l3-6.2l2.1,0.5v3.1L9.3,22H5.4z M11.3,23.8L11.3,23.8l1.6-3.6C13,20,13,19.8,13,19.7v-0.6h9.1v0.6c0,0.2,0,0.3,0.1,0.5l1.6,3.6l0,0
	l2,4.4h-2.2l-5-6.7c-0.5-0.6-1.5-0.6-2,0l-5,6.7H9.3L11.3,23.8z M20.4,28.2h-5.7l2.9-3.9L20.4,28.2z M31.7,32.6H3.4
	c-0.5,0-0.9-0.4-0.9-0.9s0.4-0.9,0.9-0.9h4h4.8h10.7h4.8h4c0.5,0,0.9,0.4,0.9,0.9C32.6,32.2,32.2,32.6,31.7,32.6z"/>
</svg>
