<?xml version="1.0" encoding="utf-8"?>
<!-- Generator: Adobe Illustrator 27.5.0, SVG Export Plug-In . SVG Version: 6.00 Build 0)  -->
<svg version="1.1" id="Outline_Icons" xmlns="http://www.w3.org/2000/svg" xmlns:xlink="http://www.w3.org/1999/xlink" x="0px"
	 y="0px" viewBox="0 0 23.1 23" style="enable-background:new 0 0 23.1 23;" xml:space="preserve">
<style type="text/css">
	.st0{fill:#FFFFFF;stroke:#FFFFFF;stroke-width:1.5;stroke-linecap:round;stroke-linejoin:round;stroke-miterlimit:10;}
</style>
<path class="st0" d="M4.8,5.3H1.2C1,5.3,0.8,5.1,0.8,4.8V1.2C0.8,1,1,0.8,1.2,0.8h3.6c0.3,0,0.5,0.2,0.5,0.5v3.6
	C5.3,5.1,5.1,5.3,4.8,5.3z"/>
<path class="st0" d="M13.3,5.3H9.7c-0.3,0-0.5-0.2-0.5-0.5V1.2c0-0.3,0.2-0.5,0.5-0.5h3.6c0.3,0,0.5,0.2,0.5,0.5v3.6
	C13.8,5.1,13.6,5.3,13.3,5.3z"/>
<path class="st0" d="M4.8,13.7H1.2c-0.3,0-0.5-0.2-0.5-0.5V9.7c0-0.3,0.2-0.5,0.5-0.5h3.6c0.3,0,0.5,0.2,0.5,0.5v3.6
	C5.3,13.5,5.1,13.7,4.8,13.7z"/>
<path class="st0" d="M13.3,13.7H9.7c-0.3,0-0.5-0.2-0.5-0.5V9.7c0-0.3,0.2-0.5,0.5-0.5h3.6c0.3,0,0.5,0.2,0.5,0.5v3.6
	C13.8,13.5,13.6,13.7,13.3,13.7z"/>
<path class="st0" d="M4.8,22.2H1.2c-0.3,0-0.5-0.2-0.5-0.5v-3.6c0-0.3,0.2-0.5,0.5-0.5h3.6c0.3,0,0.5,0.2,0.5,0.5v3.6
	C5.3,22,5.1,22.2,4.8,22.2z"/>
<path class="st0" d="M13.3,22.2H9.7c-0.3,0-0.5-0.2-0.5-0.5v-3.6c0-0.3,0.2-0.5,0.5-0.5h3.6c0.3,0,0.5,0.2,0.5,0.5v3.6
	C13.8,22,13.6,22.2,13.3,22.2z"/>
<path class="st0" d="M21.8,5.3h-3.6c-0.3,0-0.5-0.2-0.5-0.5V1.2c0-0.3,0.2-0.5,0.5-0.5h3.6c0.3,0,0.5,0.2,0.5,0.5v3.6
	C22.3,5.1,22.1,5.3,21.8,5.3z"/>
<path class="st0" d="M21.8,13.7h-3.6c-0.3,0-0.5-0.2-0.5-0.5V9.7c0-0.3,0.2-0.5,0.5-0.5h3.6c0.3,0,0.5,0.2,0.5,0.5v3.6
	C22.3,13.5,22.1,13.7,21.8,13.7z"/>
<path class="st0" d="M21.8,22.2h-3.6c-0.3,0-0.5-0.2-0.5-0.5v-3.6c0-0.3,0.2-0.5,0.5-0.5h3.6c0.3,0,0.5,0.2,0.5,0.5v3.6
	C22.3,22,22.1,22.2,21.8,22.2z"/>
</svg>
