<?xml version="1.0" encoding="utf-8"?>
<!-- Generator: Adobe Illustrator 26.4.1, SVG Export Plug-In . SVG Version: 6.00 Build 0)  -->
<svg id="Layer_1" style="enable-background:new 0 0 48.3 48.3;" version="1.1" viewBox="0 0 48.3 48.3" x="0px"
     xml:space="preserve"
     xmlns="http://www.w3.org/2000/svg" xmlns:xlink="http://www.w3.org/1999/xlink" y="0px">
<style type="text/css">
	.st0 {
    fill: #66E1FF;
  }

  .st1 {
    fill: #C2F3FF;
  }

  .st2 {
    fill: #012566;
  }
</style>
  <path class="st0" d="M24.2,47c12.6,0,22.9-10.3,22.9-22.9c0-12.6-10.3-22.9-22.9-22.9C11.5,1.2,1.3,11.5,1.3,24.1
	C1.3,36.8,11.5,47,24.2,47z"/>
  <path class="st1" d="M8,40.4c-4.3-4.3-6.8-10.1-6.8-16.2c0-6.1,2.4-11.9,6.6-16.2C12.2,3.7,18,1.3,24,1.3c6.1,0,11.9,2.4,16.2,6.6
	L8,40.4z"/>
  <g>
	<path class="st2" d="M24.2,48.3C10.8,48.3,0,37.5,0,24.1S10.8,0,24.2,0c13.3,0,24.1,10.8,24.1,24.1S37.5,48.3,24.2,48.3z M24.2,2.5
		c-11.9,0-21.7,9.7-21.7,21.6c0,11.9,9.7,21.7,21.7,21.7s21.6-9.7,21.6-21.7C45.8,12.2,36.1,2.5,24.2,2.5z"/>
</g>
  <g>
	<path class="st2" d="M33.5,35.1H17v-3.5l5.9-6c1.8-1.8,2.9-3,3.4-3.7c0.5-0.7,0.9-1.3,1.2-1.9c0.2-0.6,0.4-1.2,0.4-1.8
		c0-0.9-0.3-1.7-0.8-2.1c-0.5-0.5-1.2-0.7-2.1-0.7c-0.9,0-1.8,0.2-2.7,0.6c-0.9,0.4-1.8,1-2.7,1.8l-2.7-3.2c1.2-1,2.1-1.7,2.9-2.1
		c0.8-0.4,1.6-0.7,2.5-0.9c0.9-0.2,1.9-0.3,3-0.3c1.5,0,2.8,0.3,3.9,0.8c1.1,0.5,2,1.3,2.6,2.3s0.9,2.1,0.9,3.3
		c0,1.1-0.2,2.1-0.6,3.1c-0.4,1-1,1.9-1.8,2.9s-2.2,2.4-4.2,4.3l-3,2.9v0.2h10.3V35.1z"/>
</g>
</svg>
