<?xml version="1.0" encoding="utf-8"?>
<!-- Generator: Adobe Illustrator 26.1.0, SVG Export Plug-In . SVG Version: 6.00 Build 0)  -->
<svg id="Innovation" style="enable-background:new 0 0 209.6 107.4;" version="1.1" viewBox="0 0 209.6 107.4" x="0px"
     xml:space="preserve"
     xmlns="http://www.w3.org/2000/svg" xmlns:xlink="http://www.w3.org/1999/xlink" y="0px">
<style type="text/css">
	.st0 {
    opacity: 0.96;
  }

  .st1 {
    fill: #9BF314;
  }

  .st2 {
    opacity: 0.7;
    fill: #CCE7FF;
    enable-background: new;
  }

  .st3 {
    fill: #006CFF;
  }

  .st4 {
    fill: #FFFFFF;
  }

  .st5 {
    fill: #0273FB;
  }

  .st6 {
    opacity: 0.3;
    fill: #006CFF;
    enable-background: new;
  }

  .st7 {
    fill: #9130FF;
  }

  .st8 {
    fill: #9BC7FF;
  }

  .st9 {
    fill: #DDE7FF;
  }

  .st10 {
    fill: #CCE7FF;
  }
</style>
  <g class="st0">
	<path class="st1" d="M196.6,69.2c-2.7,0-4.9,2.2-4.9,4.9c0,2.7,2.2,4.9,4.9,4.9s4.9-2.2,4.9-4.9C201.5,71.4,199.3,69.2,196.6,69.2z
		"/>
    <path class="st1"
          d="M54.4,34.9c1.8,0,3.2-1.4,3.2-3.2s-1.4-3.2-3.2-3.2s-3.2,1.4-3.2,3.2C51.2,33.5,52.6,34.9,54.4,34.9z"/>
    <path class="st1" d="M152.4,25.1h-6.1c-0.4,0-0.8,0.3-0.8,0.8s0.3,0.8,0.8,0.8h6.1c0.4,1.4,1.6,2.4,3.1,2.4s2.7-1,3.1-2.4h12.9
		c0.4,0,0.8-0.3,0.8-0.8s-0.3-0.8-0.8-0.8h-12.9c-0.3-1.4-1.6-2.5-3.1-2.5S152.7,23.7,152.4,25.1z"/>
    <path class="st1" d="M84.7,7.3c1.8,0,3.2-1.4,3.2-3.2s-1.4-3.2-3.2-3.2c-1.8,0-3.2,1.4-3.2,3.2S83,7.3,84.7,7.3z"/>
    <path class="st1"
          d="M194.8,87.2c0.7,0,1.3-0.6,1.3-1.3c0-0.7-0.6-1.3-1.3-1.3s-1.3,0.6-1.3,1.3S194.1,87.2,194.8,87.2z"/>
    <path class="st1" d="M154,4.1c0.5,0,1-0.4,1-1c0-0.5-0.4-1-1-1c-0.5,0-1,0.4-1,1S153.5,4.1,154,4.1z"/>
    <path class="st1" d="M55.7,9.4c0.7,0,1.3-0.6,1.3-1.3s-0.6-1.3-1.3-1.3s-1.3,0.6-1.3,1.3S55,9.4,55.7,9.4z"/>
    <path class="st1" d="M3.4,36.8c0-0.9-0.8-1.7-1.7-1.7S0,35.9,0,36.8s0.8,1.7,1.7,1.7C2.7,38.5,3.4,37.8,3.4,36.8z"/>
    <path class="st1"
          d="M207.9,47.7c-0.9,0-1.7,0.8-1.7,1.7s0.8,1.7,1.7,1.7s1.7-0.8,1.7-1.7C209.6,48.4,208.8,47.7,207.9,47.7z"/>
    <circle class="st1" cx="29.2" cy="29.9" r="7.3"/>
    <path class="st1" d="M9.6,82.9c0-0.9-0.8-1.7-1.7-1.7S6.2,82,6.2,82.9c0,0.9,0.8,1.7,1.7,1.7S9.6,83.8,9.6,82.9z"/>
    <circle class="st1" cx="7.9" cy="63.5" r="6.9"/>
    <path class="st1"
          d="M141.2,26.6h2.4c0.4,0,0.8-0.3,0.8-0.8s-0.3-0.8-0.8-0.8h-2.4c-0.4,0-0.8,0.3-0.8,0.8S140.8,26.6,141.2,26.6z"
    />
    <path class="st1" d="M200.6,52.8v1.4h-1.4c-0.4,0-0.8,0.3-0.8,0.8s0.3,0.8,0.8,0.8h1.4v1.4c0,0.4,0.3,0.8,0.8,0.8s0.8-0.3,0.8-0.8
		v-1.4h1.4c0.4,0,0.8-0.3,0.8-0.8s-0.3-0.8-0.8-0.8h-1.4v-1.4c0-0.4-0.3-0.8-0.8-0.8S200.6,52.4,200.6,52.8z"/>
    <path class="st1" d="M12.9,51.9h1.4v1.4c0,0.4,0.3,0.8,0.8,0.8s0.8-0.3,0.8-0.8v-1.4h1.4c0.4,0,0.8-0.3,0.8-0.8s-0.3-0.8-0.8-0.8
		h-1.4V49c0-0.4-0.3-0.8-0.8-0.8s-0.8,0.3-0.8,0.8v1.4h-1.4c-0.4,0-0.8,0.3-0.8,0.8S12.5,51.9,12.9,51.9z"/>
    <path class="st1" d="M142.3,10.1h1.4v1.4c0,0.4,0.3,0.8,0.8,0.8s0.8-0.3,0.8-0.8v-1.4h1.4c0.4,0,0.8-0.3,0.8-0.8s-0.3-0.8-0.8-0.8
		h-1.4V7.2c0-0.4-0.3-0.8-0.8-0.8s-0.8,0.3-0.8,0.8v1.4h-1.4c-0.4,0-0.8,0.3-0.8,0.8S141.9,10.1,142.3,10.1z"/>
    <path class="st1" d="M36.6,31.8l1,1l-1,1c-0.3,0.3-0.3,0.8,0,1.1c0.1,0.1,0.3,0.2,0.5,0.2s0.4-0.1,0.5-0.2l1-1l1,1
		c0.1,0.1,0.3,0.2,0.5,0.2s0.4-0.1,0.5-0.2c0.3-0.3,0.3-0.8,0-1.1l-1-1l1-1c0.3-0.3,0.3-0.8,0-1.1s-0.8-0.3-1.1,0l-1,1l-1-1
		c-0.3-0.3-0.8-0.3-1.1,0S36.3,31.5,36.6,31.8z"/>
    <polygon class="st1" points="41.7,18.2 41.7,16 39.8,14.9 37.9,16 37.9,18.2 39.8,19.3 	"/>
    <path class="st1" d="M187.4,26.2c-1.7,1.3-2.7,3.3-2.7,5.6c0,3.9,3.2,7,7,7c3.9,0,7-3.2,7-7c0-3.9-3.2-7-7-7c-1.3,0-2.6,0.4-3.6,1
		v-2.1l-1.9-1.1l-1.9,1.1v2.2l1.9,1.1L187.4,26.2z"/>
    <polygon class="st1" points="193.1,67.1 195,68.2 196.9,67.1 196.9,64.9 195,63.9 193.1,64.9 	"/>
    <polygon class="st1" points="15,76.5 15,78.7 16.9,79.8 18.8,78.7 18.8,76.5 16.9,75.5 	"/>
    <polygon class="st1" points="98.9,6.9 98.9,3.9 96.4,2.5 93.8,3.9 93.8,6.9 96.4,8.4 	"/>
    <path class="st1" d="M199.8,105.9h-7c0-2.8-0.2-5.6-0.5-8.3l1.2-0.3c0.3-0.1,0.6-0.4,0.6-0.7v-2.9c0-0.3-0.2-0.6-0.6-0.7l-2-0.5
		c-0.2-0.9-0.3-1.8-0.5-2.7l0.8-1.3c0.2-0.3,0.1-0.7-0.1-0.9l-1.6-1.6c-1.2-4.8-2.8-9.5-4.8-13.9c1.7-3.5,2.7-7.5,2.7-11.7
		c0-6.2-2.1-11.9-5.6-16.4h17.8c0.4,0,0.8-0.3,0.8-0.8s-0.3-0.8-0.8-0.8h-19c-4.9-5.5-12.1-9-20.1-9c-2.8,0-5.5,0.4-8,1.2
		c-5-3.2-10.3-5.9-16-7.9c0.4,0,0.7-0.3,0.7-0.7c0-0.4-0.3-0.8-0.8-0.8h-1.4v-1.4c0-0.4-0.3-0.8-0.8-0.8s-0.8,0.3-0.8,0.8v1.4h-1
		c0,0,0,0-0.1,0c-2.4-0.8-4.9-1.4-7.4-2c0.1-0.9-0.1-1.7-0.7-2.4c0.4,0.1,0.9,0.1,1.3,0.1c4.1,0,7.5-3.4,7.5-7.5s-3.4-7.5-7.5-7.5
		c-4.1,0-7.5,3.4-7.5,7.5c0,1.5,0.5,3,1.3,4.2c-0.7,0.1-1.4,0.4-1.9,0.9l-2.3,2.3c-1.5-0.9-3-1.5-4.7-2v-3.3c0-0.9-0.3-1.7-0.9-2.3
		s-1.4-1-2.3-1h-2.9l0,0c-0.9,0-1.7,0.3-2.3,0.9c-0.6,0.6-1,1.4-1,2.3v3.3c-1,0.3-2,0.6-3,1.1c-1.4-0.8-3-1.4-4.6-1.9
		c-0.5-0.3-1.1-0.5-1.8-0.5l0,0c-0.1,0-0.2,0-0.3,0C90.6,17.2,89.3,17,88,17c-7.3,0-13.8,3.6-17.8,9.1h-13c-0.4,0-0.8,0.3-0.8,0.8
		s0.3,0.8,0.8,0.8h11.9c-0.7,1.1-1.3,2.3-1.7,3.5c-6.5,3.4-12.5,7.7-17.8,12.6c-1.7-0.4-3.5-0.6-5.4-0.6s-3.8,0.2-5.6,0.7h-9.8
		c-0.4,0-0.8,0.3-0.8,0.8s0.3,0.8,0.8,0.8h5.4c-8.5,3.8-14.4,12.3-14.4,22.2c0,5.9,2.1,11.3,5.5,15.5c-1.3,4.6-2.3,9.4-2.8,14.4
		h-2.3c-0.5,0-0.9,0.4-0.9,0.9v7.4v0.1h-3.6c-0.4,0-0.8,0.3-0.8,0.8s0.3,0.8,0.8,0.8h18.4h46.6h119.2c0.4,0,0.8-0.3,0.8-0.8
		S200.3,105.9,199.8,105.9z"/>
    <path class="st1" d="M205.3,105.9h-2.7c-0.4,0-0.8,0.3-0.8,0.8s0.3,0.8,0.8,0.8h2.7c0.4,0,0.8-0.3,0.8-0.8S205.7,105.9,205.3,105.9
		z"/>
    <path class="st1"
          d="M13,105.9H8.4c-0.4,0-0.8,0.3-0.8,0.8s0.3,0.8,0.8,0.8H13c0.4,0,0.8-0.3,0.8-0.8S13.4,105.9,13,105.9z"/>
</g>
  <g id="XMLID_17_">
	<g id="XMLID_798_">
		<path class="st2" d="M192.8,105.8c0-12.4-2.6-24.1-7.4-34.7c1.7-3.5,2.7-7.5,2.7-11.7c0-14.9-12.1-26.9-26.9-26.9
			c-2.8,0-5.5,0.4-8,1.2c-13.2-8.4-29-13.3-45.8-13.3c-2.1,0-4.2,0.1-6.2,0.2c-3.7-2.8-8.3-4.4-13.2-4.4c-9.4,0-17.4,5.9-20.6,14.1
			c-6.5,3.4-12.5,7.7-17.8,12.6c-1.7-0.4-3.5-0.6-5.4-0.6c-13.5,0-24.4,10.9-24.4,24.4c0,5.9,2.1,11.3,5.5,15.5
			c-2.2,7.5-3.3,15.4-3.3,23.6C22,105.8,192.8,105.8,192.8,105.8z" id="XMLID_821_"/>
    <path class="st2" d="M169.4,105.8c0-34.3-27.8-62.1-62.1-62.1s-62.1,27.8-62.1,62.1H169.4z" id="XMLID_820_"/>
    <path class="st2" d="M201.5,73.2c0,2.7-2.2,4.9-4.9,4.9s-4.9-2.2-4.9-4.9c0-2.7,2.2-4.9,4.9-4.9
			S201.5,70.5,201.5,73.2z" id="XMLID_819_"/>
    <ellipse class="st2" cx="126" cy="12.5" id="XMLID_818_" rx="7.5" ry="7.5"/>
    <path class="st2" d="M57.6,30.8c0,1.8-1.4,3.2-3.2,3.2s-3.2-1.4-3.2-3.2s1.4-3.2,3.2-3.2
			C56.2,27.6,57.6,29,57.6,30.8z" id="XMLID_817_"/>
    <circle class="st2" cx="155.5" cy="24.9" id="XMLID_816_" r="3.2"/>
    <path class="st2" d="M87.9,3.2c0,1.8-1.4,3.2-3.2,3.2c-1.8,0-3.2-1.4-3.2-3.2S82.9,0,84.7,0S87.9,1.4,87.9,3.2z"
          id="XMLID_815_"
    />
    <path class="st3" d="M196.1,84.9c0,0.7-0.6,1.3-1.3,1.3s-1.3-0.6-1.3-1.3c0-0.7,0.6-1.3,1.3-1.3
			S196.1,84.2,196.1,84.9z" id="XMLID_814_"/>
    <path class="st3" d="M155,2.2c0,0.5-0.4,1-1,1c-0.5,0-1-0.4-1-1c0-0.5,0.4-1,1-1C154.5,1.2,155,1.7,155,2.2z"
          id="XMLID_813_"/>
    <circle class="st3" cx="55.7" cy="7.1" id="XMLID_812_" r="1.3"/>
    <path class="st3" d="M3.4,35.9c0,0.9-0.8,1.7-1.7,1.7S0,36.9,0,35.9c0-0.9,0.8-1.7,1.7-1.7S3.4,35,3.4,35.9z"
          id="XMLID_804_"/>
    <path class="st3" d="M209.6,48.5c0,0.9-0.8,1.7-1.7,1.7s-1.7-0.8-1.7-1.7s0.8-1.7,1.7-1.7
			C208.8,46.7,209.6,47.5,209.6,48.5z" id="XMLID_803_"/>
    <circle class="st2" cx="29.2" cy="29" id="XMLID_802_" r="7.3"/>
    <path class="st3" d="M9.6,81.9c0,0.9-0.8,1.7-1.7,1.7s-1.7-0.8-1.7-1.7c0-0.9,0.8-1.7,1.7-1.7
			C8.8,80.2,9.6,81,9.6,81.9z" id="XMLID_801_"/>
    <path class="st2" d="M198.8,30.8c0,3.9-3.2,7-7,7c-3.9,0-7-3.2-7-7c0-3.9,3.2-7,7-7S198.8,26.9,198.8,30.8z"
          id="XMLID_800_"/>
    <circle class="st2" cx="7.9" cy="62.6" id="XMLID_799_" r="6.9"/>
	</g>
    <g id="IoT_1_">
		<g id="XMLID_1_">
			<g id="XMLID_171_">
				<path class="st4" d="M114.6,50.1l3.7,3.7c1,1,2.6,1,3.5,0l2-2.1c1-1,1-2.6,0-3.5l-2.7-2.8c1.1-1.7,1.9-3.6,2.3-5.6h3.9
					c1.4,0,2.5-1.1,2.5-2.5v-2.9c0-1.4-1.1-2.5-2.5-2.5h-3.9c-0.4-2-1.2-3.8-2.3-5.5l2.7-2.7c1-1,1-2.6,0-3.6l-2-2.1
					c-1-1-2.5-1-3.5,0l-2.7,2.7c-1.7-1.1-3.6-1.9-5.6-2.3v-3.9c0-1.4-1.1-2.5-2.5-2.5h-2.9c-1.4,0-2.5,1.1-2.5,2.5v3.9
					c-2,0.5-3.9,1.2-5.6,2.3L94,18c-1-1-2.6-1-3.5,0l-2.1,2c-1,1-1,2.6,0,3.5l2.7,2.8c-1.1,1.7-1.9,3.6-2.3,5.6h-3.9
					c-1.4,0-2.5,1.1-2.5,2.5v2.9c0,1.4,1.1,2.5,2.5,2.5h3.9c0.5,2,1.2,3.9,2.3,5.6l-2.7,2.7c-1,1-1,2.6,0,3.6l2,2c1,1,2.6,1,3.5,0
					l3.6-3.5"/>
        <path class="st5" d="M120.1,55.3c-0.9,0-1.7-0.4-2.3-1l-3.7-3.7l1.1-1.1l3.7,3.7c0.3,0.3,0.8,0.6,1.3,0.5c0.4,0,0.8-0.2,1.1-0.5
					l2-2.1c0.4-0.4,0.6-0.8,0.5-1.3c0-0.4-0.2-0.8-0.5-1.1l-3.2-3.3l0.3-0.5c1.1-1.7,1.8-3.5,2.2-5.3l0.1-0.6h4.5
					c1,0,1.8-0.8,1.8-1.8v-2.9c0-1-0.8-1.8-1.8-1.8h-4.5l-0.1-0.6c-0.4-1.8-1.1-3.5-2.2-5.2l-0.3-0.5l3.1-3.1c0.7-0.7,0.7-1.8,0-2.5
					l-2-2.1c-0.7-0.7-1.7-0.7-2.4,0l-3.1,3.1l-0.5-0.3c-1.7-1.1-3.5-1.8-5.3-2.2l-0.6-0.1v-4.5c0-1-0.8-1.8-1.8-1.8h-2.9
					c-1,0-1.8,0.8-1.8,1.8V19l-0.6,0.1c-2.2,0.5-3.9,1.3-5.4,2.2l-0.5,0.3l-2.9-3.2c-0.3-0.3-0.8-0.5-1.3-0.5
					c-0.4,0-0.8,0.2-1.1,0.5l-2.1,2c-0.3,0.3-0.5,0.8-0.5,1.3c0,0.4,0.2,0.8,0.5,1.1l3.2,3.3l-0.3,0.5c-1.1,1.7-1.8,3.5-2.2,5.3
					l-0.1,0.6h-4.5c-1,0-1.8,0.8-1.8,1.8v2.9c0,1,0.8,1.8,1.8,1.8h4.5l0.1,0.6c0.5,2.2,1.3,3.9,2.2,5.4l0.3,0.5l-3.1,3.1
					c-0.7,0.7-0.7,1.8,0,2.5l2,2c0.3,0.3,0.8,0.5,1.3,0.5c0.4,0,0.8-0.2,1.1-0.5l3.6-3.5l1,1.1l-3.6,3.5c-0.5,0.6-1.3,0.9-2.2,1
					c-0.9,0-1.8-0.3-2.4-1l-2-2c-1.3-1.3-1.3-3.4,0-4.7l2.3-2.3c-0.8-1.3-1.4-2.9-1.9-4.7h-3.3c-1.8,0-3.2-1.4-3.2-3.2v-2.9
					c0-1.8,1.4-3.2,3.2-3.2h3.3c0.4-1.7,1.1-3.2,2-4.8L87.9,24c-0.6-0.5-0.9-1.3-1-2.1c0-0.9,0.3-1.8,1-2.4l2.1-2
					c0.5-0.6,1.3-0.9,2.1-1c0.9,0,1.8,0.3,2.4,1l2.1,2.3c1.3-0.8,2.9-1.4,4.7-1.9v-3.3c0-1.8,1.4-3.2,3.2-3.2h2.9
					c1.8,0,3.2,1.4,3.2,3.2v3.3c1.6,0.4,3.2,1.1,4.7,2l2.3-2.3c1.3-1.3,3.3-1.3,4.6,0l2,2.1c1.3,1.3,1.3,3.4,0,4.6l-2.3,2.3
					c0.9,1.5,1.6,3.1,2,4.6h3.3c1.8,0,3.2,1.4,3.2,3.2v2.9c0,1.8-1.4,3.2-3.2,3.2H124c-0.4,1.7-1.1,3.2-2,4.8l2.3,2.4
					c0.6,0.5,0.9,1.3,1,2.1c0,0.9-0.3,1.8-1,2.4l-2,2.1C121.8,54.9,121,55.3,120.1,55.3C120.1,55.3,120.1,55.3,120.1,55.3z"/>
			</g>
		</g>
	</g>
    <g id="XMLID_377_">
		<path class="st6" d="M66.6,69.5c-0.2-1-0.6-2-1.2-2.9l1.9-2.9L65,61.5l-2.9,1.9c-0.9-0.6-1.9-1-2.9-1.2l-0.6-3.3
			h-3.1l-0.8,3.3c-1,0.2-2,0.6-3,1.2l-2.9-1.8l-2.2,2.2l1.9,2.9c-0.6,0.9-1,1.9-1.2,2.9l-3.4,0.6v1.7h8c0-2.8,2.3-5.2,5.2-5.2
			c2.8,0,5.2,2.3,5.2,5.2h8.4v-1.7L66.6,69.5z" id="XMLID_504_"/>
      <path class="st4" d="M33.9,73.1v32.5c0,0.1,0.1,0.2,0.2,0.2h46.6c0.1,0,0.2-0.1,0.2-0.2v-30l4.9-6.1l0,0H75.2l0,0
			l-3.3,3.7L33.9,73.1L33.9,73.1z" id="XMLID_503_"/>
      <path class="st2" d="M85.8,69.4H74.6l-3.2,3.8V102c0,0.1-0.1,0.2-0.2,0.2H33.9v3.3c0,0.1,0.1,0.2,0.2,0.2h46.6
			c0.1,0,0.2-0.1,0.2-0.2v-30L85.8,69.4L85.8,69.4z" id="XMLID_502_"/>
      <path class="st2" d="M37.6,67.2C37.6,67.1,37.5,67.1,37.6,67.2h-7.5c-0.1,0-0.1,0.1-0.1,0.1l3.9,5.8H42L37.6,67.2
			z" id="XMLID_488_"/>
      <g id="XMLID_479_">
			<g id="XMLID_485_">
				<path class="st3" d="M43.8,73.5c-0.4,0-0.8-0.3-0.8-0.8v-2.6c0-0.4,0.3-0.7,0.6-0.7l2.9-0.5c0.2-0.8,0.6-1.5,0.9-2.2l-1.7-2.5
					c-0.2-0.3-0.2-0.7,0.1-0.9l2.2-2.2c0.2-0.2,0.6-0.3,0.9-0.1l2.5,1.6c0.7-0.4,1.5-0.8,2.4-1l0.7-2.8c0.1-0.3,0.4-0.6,0.7-0.6h3.1
					c0.4,0,0.7,0.3,0.7,0.6l0.5,2.8c0.8,0.2,1.5,0.5,2.2,0.9l2.5-1.6c0.3-0.2,0.7-0.2,0.9,0.1l2.2,2.2c0.3,0.3,0.3,0.6,0.1,0.9
					l-1.6,2.5c0.4,0.7,0.7,1.4,0.9,2.2l3.4,0.4c0.4,0,0.7,0.4,0.7,0.7v2.7c0,0.4-0.3,0.8-0.8,0.8s-0.8-0.3-0.8-0.8v-2l-3.2-0.4
					c-0.3,0-0.6-0.3-0.6-0.6c-0.2-0.9-0.6-1.8-1.1-2.6c-0.2-0.2-0.2-0.6,0-0.8l1.6-2.4l-1.3-1.3l-2.4,1.6c-0.3,0.2-0.6,0.2-0.8,0
					c-0.8-0.5-1.7-0.9-2.6-1.1c-0.3-0.1-0.5-0.3-0.6-0.6l-0.5-2.7H56l-0.7,2.7c-0.1,0.3-0.3,0.5-0.6,0.6c-1,0.2-1.9,0.5-2.7,1.1
					c-0.2,0.2-0.6,0.2-0.8,0l-2.4-1.5l-1.3,1.3l1.6,2.4c0.2,0.2,0.2,0.5,0,0.8c-0.5,0.8-0.9,1.8-1.1,2.7c-0.1,0.3-0.3,0.5-0.6,0.6
					l-2.8,0.5v2C44.5,73.1,44.2,73.5,43.8,73.5z"/>
			</g>
        <g id="XMLID_481_">
				<path class="st3" d="M62.1,72.5c-0.4,0-0.8-0.3-0.8-0.8c0-2.5-2-4.5-4.5-4.5s-4.4,2-4.4,4.5c0,0.4-0.3,0.8-0.8,0.8
					S51,72.2,51,71.8c0-3.3,2.7-6,5.9-6s6,2.7,6,6C62.9,72.2,62.5,72.5,62.1,72.5z"/>
			</g>
		</g>
      <g id="XMLID_478_">
			<path class="st3" d="M51.2,94.6l-4.1-4.1c-0.3-0.3-0.3-0.8,0-1.1s0.8-0.3,1.1,0l3.1,3.1l7.4-7.5c0.3-0.3,0.8-0.3,1.1,0
				s0.3,0.8,0,1.1L51.2,94.6z"/>
		</g>
      <g id="XMLID_477_">
			<path class="st3" d="M80.7,106.5H34.1c-0.5,0-1-0.4-1-1V73.1c0-0.4,0.3-0.8,0.8-0.8c0.1,0,0.3,0,0.4,0.1h37.3l3.1-3.4
				c0.1-0.2,0.3-0.3,0.6-0.3h10.6c0.3,0,0.6,0.2,0.7,0.4c0.1,0.3,0.1,0.6-0.1,0.8l-4.7,5.9v29.7C81.6,106.1,81.2,106.5,80.7,106.5z
				 M34.6,105h45.5V75.6c0-0.2,0.1-0.3,0.2-0.5l3.9-4.9h-8.7l-3.1,3.4c-0.1,0.2-0.3,0.3-0.6,0.3H34.6V105z"/>
		</g>
      <g id="XMLID_476_">
			<path class="st3" d="M33.8,73.8c-0.2,0-0.5-0.1-0.6-0.3l-3.9-5.8c-0.1-0.1-0.1-0.3-0.1-0.4c0-0.5,0.4-0.8,0.9-0.8h7.6
				c0.2,0,0.5,0.1,0.6,0.3l4.3,5.9c0.2,0.3,0.2,0.8-0.2,1c-0.3,0.2-0.8,0.2-1-0.2L37.2,68h-6l3.2,4.7c0.2,0.3,0.1,0.8-0.2,1
				C34.1,73.8,33.9,73.8,33.8,73.8z"/>
		</g>
      <g id="XMLID_471_">
			<rect class="st3" height="29.9" width="1.5" x="71.1" y="75.9"/>
		</g>
      <g id="XMLID_470_">
			<rect class="st3" height="1.5" width="4.1" x="74.6" y="75.2"/>
		</g>
      <g id="XMLID_469_">
			<path class="st7" d="M63.3,93.7l-1.3-0.7c0.3-0.6,0.4-1.1,0.5-1.7l1.5,0.2C63.8,92.4,63.6,93,63.3,93.7z"/>
		</g>
      <g id="XMLID_456_">

				<rect class="st7" height="1.5" transform="matrix(0.7812 -0.6243 0.6243 0.7812 -47.6075 58.5704)" width="1.9"
              x="58.8" y="96.4"/>
		</g>
      <g id="XMLID_454_">
			<path class="st7" d="M53.4,100.2v-1.5c0.7,0,1.3-0.1,1.9-0.2l0.2,1.5C54.9,100.1,54.2,100.2,53.4,100.2z"/>
		</g>
      <g id="XMLID_453_">
			<path class="st7" d="M49.3,99.4c-0.7-0.2-1.4-0.6-1.9-1l0.9-1.2c0.4,0.3,0.9,0.6,1.5,0.8L49.3,99.4z"/>
		</g>
      <g id="XMLID_449_">
			<path class="st3" d="M45,95.8c-0.3,0-0.5-0.1-0.6-0.4c-0.3-0.5-0.6-1.1-0.9-1.8c-0.2-0.4,0-0.8,0.3-1c0.4-0.2,0.8,0,1,0.3
				c0.3,0.6,0.6,1.2,0.9,1.6c0.2,0.4,0.1,0.8-0.3,1C45.3,95.8,45.1,95.8,45,95.8z"/>
		</g>
      <g id="XMLID_447_">
			<path class="st3" d="M43.3,90.2c-0.4,0-0.8-0.3-0.8-0.8c0-0.7,0.1-1.3,0.2-1.9l0-0.2c0.1-0.4,0.4-0.7,0.8-0.6
				c0.4,0.1,0.7,0.4,0.6,0.8l0,0.2c-0.1,0.6-0.2,1.1-0.2,1.7C44,89.9,43.7,90.2,43.3,90.2z"/>
		</g>
      <g id="XMLID_444_">
			<path class="st3" d="M45.1,84.7c-0.1,0-0.3,0-0.4-0.1c-0.4-0.2-0.5-0.7-0.3-1c0.3-0.5,0.8-1.1,1.3-1.6c0.3-0.3,0.8-0.3,1.1,0
				s0.3,0.8,0,1.1c-0.5,0.5-0.8,0.9-1.1,1.4C45.6,84.5,45.4,84.7,45.1,84.7z"/>
		</g>
      <g id="XMLID_443_">
			<path class="st3" d="M49.4,81c-0.3,0-0.5-0.2-0.7-0.4c-0.2-0.4,0-0.8,0.3-1c0.7-0.4,1.4-0.6,2.1-0.7c0.4-0.1,0.8,0.2,0.8,0.6
				c0.1,0.4-0.2,0.8-0.6,0.8c-0.6,0.1-1.1,0.3-1.7,0.5C49.6,81,49.5,81,49.4,81z"/>
		</g>
      <g id="XMLID_442_">
			<path class="st3" d="M63.4,90.2c-0.4,0-0.8-0.3-0.8-0.8c0-5.1-4.1-9.2-9.2-9.2c-0.4,0-0.8-0.3-0.8-0.8s0.3-0.8,0.8-0.8
				c5.9,0,10.8,4.8,10.8,10.8C64.1,89.9,63.8,90.2,63.4,90.2z"/>
		</g>
	</g>
    <g id="XMLID_411_">
		<path class="st4" d="M181.2,55.7h-39.1c-0.1,0-0.3,0.1-0.3,0.3v49.2h39.6V55.9C181.5,55.8,181.3,55.7,181.2,55.7z
			" id="XMLID_398_"/>
      <path class="st8" d="M181.2,55.7h-39.1c-0.1,0-0.3,0-0.3,0v5.7h39.6v-5.7C181.5,55.7,181.3,55.7,181.2,55.7z"
            id="XMLID_394_"/>
      <g id="XMLID_393_">
			<path class="st3" d="M182,105.8h-1.5V56.2h-38v49.5H141V55.7c0-0.5,0.4-1,1-1H181c0.5,0,1,0.4,1,1V105.8z"/>
		</g>
      <g id="XMLID_390_">
			<rect class="st3" height="1.5" width="39.4" x="141.8" y="61"/>
		</g>
      <g id="XMLID_515_">
			<path class="st3" d="M146.9,59.5h-2.5c-0.4,0-0.8-0.3-0.8-0.8s0.3-0.8,0.8-0.8h2.5c0.4,0,0.8,0.3,0.8,0.8S147.3,59.5,146.9,59.5z
				"/>
		</g>
      <g id="XMLID_385_">
			<path class="st3" d="M151.8,59.5h-2.5c-0.4,0-0.8-0.3-0.8-0.8s0.3-0.8,0.8-0.8h2.5c0.4,0,0.8,0.3,0.8,0.8S152.2,59.5,151.8,59.5z
				"/>
		</g>
      <g id="XMLID_382_">
			<path class="st3" d="M156.7,59.5h-2.5c-0.4,0-0.8-0.3-0.8-0.8s0.3-0.8,0.8-0.8h2.5c0.4,0,0.8,0.3,0.8,0.8S157.1,59.5,156.7,59.5z
				"/>
		</g>
      <g id="XMLID_373_">
			<path class="st3" d="M177.2,77.5h-31.5c-0.4,0-0.8-0.3-0.8-0.8V66.3c0-0.4,0.3-0.8,0.8-0.8s0.8,0.3,0.8,0.8V76h30.8
				c0.4,0,0.8,0.3,0.8,0.8S177.6,77.5,177.2,77.5z"/>
		</g>
      <g id="XMLID_237_">
			<polygon class="st7" points="152.2,88.5 145,88.5 145,82.2 146.5,82.2 146.5,87 152.2,87 			"/>
		</g>
      <g id="XMLID_214_">
			<path class="st3" d="M164.7,88.5h-6.6c-0.4,0-0.8-0.3-0.8-0.8v-5.5c0-0.4,0.3-0.8,0.8-0.8s0.8,0.3,0.8,0.8V87h5.9
				c0.4,0,0.8,0.3,0.8,0.8S165.1,88.5,164.7,88.5z"/>
		</g>
      <g id="XMLID_206_">
			<path class="st3" d="M177.2,88.5h-6.6c-0.4,0-0.8-0.3-0.8-0.8v-5.5c0-0.4,0.3-0.8,0.8-0.8s0.8,0.3,0.8,0.8V87h5.9
				c0.4,0,0.8,0.3,0.8,0.8S177.6,88.5,177.2,88.5z"/>
		</g>
      <g id="XMLID_203_">
			<rect class="st3" height="1.5" width="11" x="155.7" y="92.8"/>
		</g>
	</g>
    <g id="XMLID_196_">
		<path class="st8" d="M20.2,105.1h41c0.1,0,0.2-0.1,0.2-0.2v-7.4c0-0.1-0.1-0.2-0.2-0.2h-41
			c-0.1,0-0.2,0.1-0.2,0.2v7.4C20,105,20,105.1,20.2,105.1z" id="XMLID_380_"/>
      <path class="st3" d="M20.2,105.1h41c0.1,0,0.2-0.1,0.2-0.2v-2.4c0-0.1-0.1-0.2-0.2-0.2h-41
			c-0.1,0-0.2,0.1-0.2,0.2v2.4C20,105,20,105.1,20.2,105.1z" id="XMLID_378_"/>
      <g id="XMLID_238_">
			<g id="XMLID_271_">
				<path class="st3" d="M61.2,105.8h-41c-0.5,0-1-0.3-1-0.9v-7.4c0-0.5,0.4-1,1-1h41c0.5,0,0.9,0.4,0.9,1v7.4
					C62.1,105.4,61.7,105.8,61.2,105.8z M20,104.9l0.8,0c0,0,0,0,0,0H20z M20.8,104.3h39.9V98H20.8V104.3z"/>
			</g>
        <g id="XMLID_247_">
				<rect class="st7" height="3.2" width="1.5" x="56.6" y="97.3"/>
			</g>
        <g id="XMLID_246_">
				<rect class="st7" height="3.2" width="1.5" x="52.5" y="97.3"/>
			</g>
        <g id="XMLID_245_">
				<rect class="st7" height="3.2" width="1.5" x="48.4" y="97.3"/>
			</g>
        <g id="XMLID_244_">
				<rect class="st3" height="3.2" width="1.5" x="44.2" y="97.3"/>
			</g>
        <g id="XMLID_243_">
				<rect class="st3" height="3.2" width="1.5" x="40.1" y="97.3"/>
			</g>
        <g id="XMLID_242_">
				<rect class="st3" height="3.2" width="1.5" x="36" y="97.3"/>
			</g>
        <g id="XMLID_241_">
				<rect class="st3" height="3.2" width="1.5" x="31.9" y="97.3"/>
			</g>
        <g id="XMLID_240_">
				<rect class="st3" height="3.2" width="1.5" x="27.6" y="97.3"/>
			</g>
        <g id="XMLID_239_">
				<rect class="st3" height="3.2" width="1.5" x="23.5" y="97.3"/>
			</g>
		</g>
	</g>
    <g id="XMLID_769_">
		<path class="st3" d="M171.5,25.8h-25.2c-0.4,0-0.8-0.3-0.8-0.8s0.3-0.8,0.8-0.8h25.2c0.4,0,0.8,0.3,0.8,0.8S171.9,25.8,171.5,25.8
			z"/>
	</g>
    <g id="XMLID_768_">
		<path class="st3"
          d="M143.6,25.8h-2.4c-0.4,0-0.8-0.3-0.8-0.8s0.3-0.8,0.8-0.8h2.4c0.4,0,0.8,0.3,0.8,0.8S144,25.8,143.6,25.8z"/>
	</g>
    <g id="XMLID_765_">
		<g id="XMLID_767_">
			<path class="st3" d="M137.2,25.8h-4.3c-0.4,0-0.8-0.3-0.8-0.8s0.3-0.8,0.8-0.8h4.3c0.4,0,0.8,0.3,0.8,0.8S137.6,25.8,137.2,25.8z
				"/>
		</g>
      <g id="XMLID_766_">
			<path class="st3" d="M135.1,27.9c-0.4,0-0.8-0.3-0.8-0.8v-4.3c0-0.4,0.3-0.8,0.8-0.8s0.8,0.3,0.8,0.8v4.3
				C135.8,27.5,135.5,27.9,135.1,27.9z"/>
		</g>
	</g>
    <g id="XMLID_762_">
		<g id="XMLID_764_">
			<path class="st3"
            d="M76.8,44.5h-4.2c-0.4,0-0.8-0.3-0.8-0.8s0.3-0.8,0.8-0.8h4.2c0.4,0,0.8,0.3,0.8,0.8S77.2,44.5,76.8,44.5z"/>
		</g>
      <g id="XMLID_763_">
			<path class="st3" d="M74.7,46.6c-0.4,0-0.8-0.3-0.8-0.8v-4.3c0-0.4,0.3-0.8,0.8-0.8s0.8,0.3,0.8,0.8v4.3
				C75.5,46.3,75.1,46.6,74.7,46.6z"/>
		</g>
	</g>
    <g id="XMLID_70_">
		<g id="XMLID_312_">
			<path class="st3" d="M203.5,54.8h-4.3c-0.4,0-0.8-0.3-0.8-0.8s0.3-0.8,0.8-0.8h4.3c0.4,0,0.8,0.3,0.8,0.8S203.9,54.8,203.5,54.8z
				"/>
		</g>
      <g id="XMLID_71_">
			<path class="st3" d="M201.3,56.8c-0.4,0-0.8-0.3-0.8-0.8v-4.2c0-0.4,0.3-0.8,0.8-0.8s0.8,0.3,0.8,0.8v4.2
				C202,56.5,201.7,56.8,201.3,56.8z"/>
		</g>
	</g>
    <g id="XMLID_15_">
		<g id="XMLID_19_">
			<path class="st3"
            d="M17.1,51h-4.2c-0.4,0-0.8-0.3-0.8-0.8s0.3-0.8,0.8-0.8h4.2c0.4,0,0.8,0.3,0.8,0.8S17.5,51,17.1,51z"/>
		</g>
      <g id="XMLID_16_">
			<path class="st3" d="M15,53.1c-0.4,0-0.8-0.3-0.8-0.8v-4.3c0-0.4,0.3-0.8,0.8-0.8s0.8,0.3,0.8,0.8v4.3
				C15.8,52.8,15.4,53.1,15,53.1z"/>
		</g>
	</g>
    <g id="XMLID_18_">
		<g id="XMLID_22_">
			<path class="st3"
            d="M146.6,9.1h-4.3c-0.4,0-0.8-0.3-0.8-0.8s0.3-0.8,0.8-0.8h4.3c0.4,0,0.8,0.3,0.8,0.8S147,9.1,146.6,9.1z"/>
		</g>
      <g id="XMLID_21_">
			<path class="st3" d="M144.4,11.4c-0.4,0-0.8-0.3-0.8-0.8V6.3c0-0.4,0.3-0.8,0.8-0.8s0.8,0.3,0.8,0.8v4.3
				C145.2,11,144.8,11.4,144.4,11.4z"/>
		</g>
	</g>
    <g id="XMLID_759_">
		<g id="XMLID_761_">
			<path class="st3" d="M158.3,44c-0.2,0-0.4-0.1-0.5-0.2l-3-3c-0.3-0.3-0.3-0.8,0-1.1s0.8-0.3,1.1,0l3,3c0.3,0.3,0.3,0.8,0,1.1
				C158.7,44,158.5,44,158.3,44z"/>
		</g>
      <g id="XMLID_760_">
			<path class="st3" d="M155.3,44c-0.2,0-0.4-0.1-0.5-0.2c-0.3-0.3-0.3-0.8,0-1.1l3-3c0.3-0.3,0.8-0.3,1.1,0s0.3,0.8,0,1.1l-3,3
				C155.7,44,155.5,44,155.3,44z"/>
		</g>
	</g>
    <g id="XMLID_754_">
		<g id="XMLID_758_">
			<path class="st3" d="M37.1,34c-0.2,0-0.4-0.1-0.5-0.2c-0.3-0.3-0.3-0.8,0-1.1l3.1-3c0.3-0.3,0.8-0.3,1.1,0c0.3,0.3,0.3,0.8,0,1.1
				l-3.1,3C37.5,34,37.3,34,37.1,34z"/>
		</g>
      <g id="XMLID_757_">
			<path class="st3" d="M40.2,34c-0.2,0-0.4-0.1-0.5-0.2l-3.1-3c-0.3-0.3-0.3-0.8,0-1.1c0.3-0.3,0.8-0.3,1.1,0l3.1,3
				c0.3,0.3,0.3,0.8,0,1.1C40.6,34,40.4,34,40.2,34z"/>
		</g>
	</g>
    <g id="XMLID_750_">
		<path class="st3"
          d="M83.4,26.8H57.2c-0.4,0-0.8-0.3-0.8-0.8s0.3-0.8,0.8-0.8h26.2c0.4,0,0.8,0.3,0.8,0.8S83.8,26.8,83.4,26.8z"/>
	</g>
    <g id="XMLID_749_">
		<path class="st3"
          d="M58.8,44.5h-30c-0.4,0-0.8-0.3-0.8-0.8s0.3-0.8,0.8-0.8h30c0.4,0,0.8,0.3,0.8,0.8S59.2,44.5,58.8,44.5z"/>
	</g>
    <g id="XMLID_745_">
		<path class="st3"
          d="M200.3,43h-38.8c-0.4,0-0.8-0.3-0.8-0.8s0.3-0.8,0.8-0.8h38.8c0.4,0,0.8,0.3,0.8,0.8S200.7,43,200.3,43z"/>
	</g>
    <g id="XMLID_627_">
		<path class="st3"
          d="M68.9,44.5h-4.8c-0.4,0-0.8-0.3-0.8-0.8s0.3-0.8,0.8-0.8h4.8c0.4,0,0.8,0.3,0.8,0.8S69.3,44.5,68.9,44.5z"/>
	</g>
    <polygon class="st3" id="XMLID_626_" points="37.9,15.1 39.8,14 41.7,15.1 41.7,17.3 39.8,18.4 37.9,17.3 	"/>
    <polygon class="st3" id="XMLID_51_" points="184.3,22.7 186.2,21.6 188.1,22.7 188.1,24.9 186.2,26 184.3,24.9 	"/>
    <polygon class="st3" id="XMLID_625_" points="193.1,64 195,62.9 196.9,64 196.9,66.2 195,67.3 193.1,66.2 	"/>
    <polygon class="st3" id="XMLID_624_" points="15,75.6 16.9,74.5 18.8,75.6 18.8,77.8 16.9,78.9 15,77.8 	"/>
    <polygon class="st3" id="XMLID_622_" points="93.8,3 96.4,1.5 98.9,3 98.9,6 96.4,7.5 93.8,6 	"/>
    <path class="st6" d="M81.2,105.4v-28l4.5-5.6l0.3-0.4l-0.4-0.8l0,0H79c-3.6,1.1-6.4,3.9-7.5,7.5
		c-1-0.1-2.1,0-3,0.5c-0.3,0.2-0.5,0.6-0.3,1c0,0,0,0,0.1,0.1c-0.4,0.3-0.8,0.7-1,1.2c-0.1,0-0.3,0-0.4,0c-3.8,0-6.8,3.1-6.8,6.8
		c0,0.8,0.1,1.6,0.4,2.3c-1.1,0.8-1.9,1.7-2.6,2.8c-0.8-0.3-1.7-0.5-2.6-0.5c-2.1,0-4,0.9-5.2,2.4c-3.2,0.2-5.9,2.8-5.9,5.8
		c0,3.2,2.6,5.8,5.8,5.8c0.4,0,0.7-0.3,0.7-0.7l0,0c0.1,0,0.2,0,0.3,0h30.2V105.4z" id="XMLID_535_"/>
    <path class="st2" d="M169.6,99.5c0.1-1.6-0.4-3.1-1.5-4.3c-1.2-1.4-3.1-2.2-4.9-2.2l0,0c-0.3-0.6-0.7-1.1-1.1-1.6
		c-1.8-2-4.6-3.1-7.3-2.9c0.1-0.3,0.1-0.7,0.2-1c0.2-2.3-0.6-4.6-2.2-6.4c-1.7-1.9-4.2-3-6.8-3.2c-0.9-1.6-2.6-2.6-4.4-2.6
		c-0.2,0-0.3,0-0.5,0v29.8h21.5l0,0l0,0h3.6C168,104.1,169.3,102.1,169.6,99.5z" id="XMLID_537_"/>
    <g id="XMLID_112_">
		<path class="st4" d="M161.4,105.8H53.7c-4.3,0,1.7-2.1,1.7-5.8l0,0c0-3.7,6.7-7.7,11-7.7h88.1
			c4.3,0,7.8,3,7.8,6.8l0,0C162.4,102.7,163.4,105.8,161.4,105.8z" id="XMLID_195_"/>
      <ellipse class="st4" cx="84.7" cy="81.9" id="XMLID_194_" rx="10.3" ry="10.3"/>
      <path class="st4" d="M77.5,83.5c0,2.3-1.8,4.1-4.1,4.1c-2.3,0-4.1-1.8-4.1-4.1c0-2.3,1.8-4.1,4.1-4.1
			S77.5,81.2,77.5,83.5z" id="XMLID_193_"/>
      <path class="st4" d="M75.5,88.1c0,3.3-2.7,6-6,6s-6-2.7-6-6s2.7-6,6-6S75.5,84.8,75.5,88.1z" id="XMLID_192_"/>
      <path class="st4" d="M64.2,99.6c0,3.4-2.8,6.2-6.2,6.2s-6.2-2.8-6.2-6.2c0-3.4,2.8-6.2,6.2-6.2
			C61.5,93.4,64.2,96.2,64.2,99.6z" id="XMLID_416_"/>
      <path class="st4" d="M57.8,100.8c0,2.8-2.2,5-5,5s-5-2.2-5-5s2.2-5,5-5C55.5,95.7,57.8,98,57.8,100.8z"
            id="XMLID_417_"/>
      <path class="st4" d="M76.4,97.6c0,4.5-3.6,8.1-8.1,8.1s-8.1-3.6-8.1-8.1s3.6-8.1,8.1-8.1
			C72.7,89.5,76.4,93.1,76.4,97.6z" id="XMLID_191_"/>
      <g id="XMLID_190_">
			<path class="st3" d="M60.1,98.3c-0.4,0-0.8-0.3-0.8-0.8c0-2.9,1.4-5.6,3.8-7.3c0.3-0.2,0.8-0.2,1,0.2c0.2,0.3,0.2,0.8-0.2,1
				c-2,1.4-3.2,3.7-3.2,6.1C60.9,98,60.5,98.3,60.1,98.3z"/>
		</g>
      <path class="st4" d="M97.3,90.2c0,1.9-1.5,3.4-3.4,3.4s-3.4-1.5-3.4-3.4s1.5-3.4,3.4-3.4
			C95.8,86.7,97.3,88.3,97.3,90.2z" id="XMLID_188_"/>
      <circle class="st4" cx="129.6" cy="81.5" id="XMLID_186_" r="9.4"/>
      <path class="st4" d="M140.6,86.7c-0.3,3.3-2.7,6-6,6s-6-2.7-6-6s2.7-6,6-6C137.9,80.7,140.9,83.4,140.6,86.7z"
            id="XMLID_185_"/>
      <path class="st4" d="M134.6,90.9c-0.3,3.3-2.7,6-6,6s-6-2.7-6-6s2.7-6,6-6C131.9,84.9,134.9,87.6,134.6,90.9z"
            id="XMLID_183_"/>
      <path class="st4" d="M93.2,91c-0.6,3.3-5.1,6-11.5,6c-6.3,0-11.5-2.7-11.5-6s5.1-6,11.5-6S93.8,87.7,93.2,91z"
            id="XMLID_182_"/>
      <path class="st4" d="M152.6,88.2c-0.4,4.9-3.9,8.8-8.8,8.8c-4.9,0-8.8-3.9-8.8-8.8s3.9-8.8,8.8-8.8
			C148.7,79.4,153.1,83.4,152.6,88.2z" id="XMLID_176_"/>
      <path class="st4" d="M161.7,97.9c-0.4,4.4-3.5,7.9-7.9,7.9s-7.9-3.5-7.9-7.9s3.5-7.9,7.9-7.9
			S162.1,93.5,161.7,97.9z" id="XMLID_418_"/>
      <path class="st4" d="M167.2,100.1c-0.3,3.1-2.5,5.7-5.7,5.7c-3.1,0-5.7-2.5-5.7-5.7c0-3.1,2.5-5.7,5.7-5.7
			S167.5,97,167.2,100.1z" id="XMLID_421_"/>
      <path class="st4" d="M150.2,97.3c-0.4,4.7-3.8,8.5-8.5,8.5s-8.5-3.8-8.5-8.5s3.8-8.5,8.5-8.5
			S150.7,92.6,150.2,97.3z" id="XMLID_175_"/>
      <path class="st4" d="M127.1,87.7c0,3.1-2.5,5.5-5.5,5.5s-5.5-2.5-5.5-5.5s2.5-5.5,5.5-5.5S127.1,84.7,127.1,87.7z
			" id="XMLID_174_"/>
      <path class="st4" d="M120,92.6c0,1.8-1.4,3.2-3.2,3.2c-1.8,0-3.2-1.4-3.2-3.2c0-1.8,1.4-3.2,3.2-3.2
			C118.6,89.3,120,90.8,120,92.6z" id="XMLID_170_"/>
      <g id="XMLID_169_">
			<path class="st3" d="M113.3,93.7c-0.4,0-0.8-0.3-0.8-0.8c0-2.3,1.6-4,3.8-4c0.4,0,0.8,0.3,0.8,0.8s-0.3,0.8-0.8,0.8
				c-1.3,0-2.2,1-2.2,2.5C114,93.3,113.7,93.7,113.3,93.7z"/>
		</g>
      <path class="st4" d="M106.8,94.6c0,2.1-2.9,3.7-6.4,3.7S94,96.6,94,94.6c0-2.1,2.9-3.7,6.4-3.7
			S106.8,92.6,106.8,94.6z" id="XMLID_158_"/>
      <path class="st4" d="M144,79.7c0,2.4-4.1,8.8-4.1,5.8c0-2.4-4.3-1.9-4.3-4.3s1.9-4.3,4.3-4.3
			C142.4,76.8,144,77.3,144,79.7z" id="XMLID_434_"/>
      <g id="XMLID_157_">
			<path class="st3" d="M143.8,80c-0.3,0-0.6-0.2-0.7-0.5c-0.5-1.2-1.8-2-3.2-2c-0.5,0-1,0.2-1.4,0.3c-0.4,0.2-0.8,0-1-0.4
				c-0.2-0.4,0-0.8,0.4-1c0.5-0.2,1.2-0.5,2-0.5c2.1,0,3.9,1.2,4.6,3c0.2,0.4,0,0.8-0.4,1C144,80,143.9,80,143.8,80z"/>
		</g>
      <g id="XMLID_154_">
			<path class="st3" d="M122.9,88.8c-0.2,0-0.4-0.1-0.5-0.2c-1.9-1.9-3-4.5-3-7.1s1.1-5.2,3-7.1c1.9-1.9,4.5-3,7.1-3
				c2.7,0,5.2,1.1,7.1,3c1.9,1.9,3,4.5,3,7.1c0,0.4-0.3,0.8-0.8,0.8s-0.8-0.3-0.8-0.8c0-2.2-0.9-4.4-2.6-6.1
				c-1.7-1.7-3.8-2.6-6.1-2.6c-2.2,0-4.4,0.9-6.1,2.6c-1.6,1.6-2.6,3.9-2.6,6.1s0.9,4.4,2.6,6.1c0.3,0.3,0.3,0.8,0,1.1
				C123.3,88.8,123.1,88.8,122.9,88.8z"/>
		</g>
      <g id="XMLID_440_">
			<path class="st3" d="M121.6,94c-3.4,0-6.2-2.9-6.2-6.2c0-2.9,1.9-5.3,4.7-6c0.4-0.1,0.8,0.1,0.9,0.5c0.1,0.4-0.1,0.8-0.5,0.9
				c-2.1,0.5-3.5,2.4-3.5,4.6c0,2.6,2.2,4.8,4.8,4.8c0.4,0,0.8,0.3,0.8,0.8S122,94,121.6,94z"/>
		</g>
      <g id="XMLID_153_">
			<path class="st3" d="M89.8,91.7c-0.3,0-0.5-0.1-0.6-0.4c-0.2-0.4-0.1-0.8,0.3-1c3-1.7,4.8-4.9,4.8-8.4c0-5.3-4.3-9.6-9.5-9.6
				c-5.3,0-9.6,4.3-9.6,9.6c0,0.4-0.3,0.8-0.8,0.8s-0.8-0.3-0.8-0.8c0-6.1,5-11.1,11.1-11.1c6.1,0,11,5,11,11.1c0,4-2.1,7.7-5.6,9.6
				C90.1,91.6,89.9,91.7,89.8,91.7z"/>
		</g>
      <g id="XMLID_152_">
			<path class="st3" d="M71.5,80.7c-0.3,0-0.5-0.2-0.7-0.4c-0.2-0.4,0-0.8,0.3-1c0.8-0.4,1.5-0.6,2.2-0.6c0.5,0,0.9,0.1,1.4,0.2
				c0.4,0.1,0.6,0.5,0.5,0.9c-0.1,0.4-0.5,0.6-0.9,0.5c-1-0.2-1.6-0.2-2.6,0.2C71.7,80.6,71.6,80.7,71.5,80.7z"/>
		</g>
      <g id="XMLID_151_">
			<path class="st3" d="M93.9,94.2c-0.4,0-0.8-0.3-0.8-0.8s0.3-0.8,0.8-0.8c1.5,0,2.6-1.2,2.6-2.7c0-1.5-1.2-2.6-2.6-2.6
				c-0.4,0-0.8-0.3-0.8-0.8s0.3-0.8,0.8-0.8c2.3,0,4.1,1.8,4.1,4.1S96.2,94.2,93.9,94.2z"/>
		</g>
      <path class="st4" d="M119.9,98.1H95.6l7-7.9V60.8h7.5l-0.3,26.8c0,1.6,0.7,3.1,2,4.1L119.9,98.1z" id="XMLID_150_"/>
      <g id="XMLID_514_">
			<path class="st3" d="M113.8,92.3H113c-2,0-3.7-1.6-3.7-3.6V60.8h1.5v27.9c0,1.2,1,2.1,2.2,2.1h0.8V92.3z"/>
		</g>
      <g id="XMLID_512_">
			<path class="st3" d="M100,91.8h-2.7v-1.5h2.7c1.1,0,2-0.9,2-2V60.8h1.5v27.5C103.5,90.2,101.9,91.8,100,91.8z"/>
		</g>
      <g id="XMLID_149_">
			<path class="st3" d="M99.3,104.5c-0.4,0-0.8-0.3-0.8-0.8c0-0.6,0.1-1.2,0.3-1.9c0.3-0.7,0.6-1.2,1.1-1.7c0.4-0.4,1-0.9,1.7-1.2
				l0.3-0.1c0.5-0.2,1.1-0.4,1.7-0.4c0.6,0,1.2,0.1,1.9,0.3c0.7,0.3,1.3,0.6,1.7,1.1c0.3,0.3,0.3,0.8,0,1.1s-0.8,0.3-1.1,0
				c-0.3-0.3-0.7-0.6-1.1-0.7c-0.9-0.3-1.6-0.3-2.7,0l-0.2,0.1c-0.3,0.1-0.7,0.4-1.1,0.8c-0.3,0.3-0.6,0.7-0.7,1.1
				c-0.2,0.5-0.2,0.9-0.2,1.4C100,104.1,99.7,104.5,99.3,104.5z"/>
		</g>
      <g id="XMLID_148_">
			<path class="st3" d="M77.5,93.8c-0.4,0-0.8-0.3-0.8-0.8c0-0.6,0.1-1.2,0.3-1.9c0.3-0.7,0.6-1.3,1.1-1.7c0.4-0.4,1-0.9,1.7-1.2
				l0.3-0.1c0.5-0.2,1.1-0.4,1.7-0.4c0.6,0,1.2,0.1,1.9,0.3c0.7,0.3,1.2,0.6,1.7,1.1c0.3,0.3,0.3,0.8,0,1.1c-0.3,0.3-0.8,0.3-1.1,0
				c-0.3-0.3-0.7-0.6-1.1-0.7c-1-0.3-1.6-0.3-2.7,0l-0.2,0.1c-0.3,0.1-0.7,0.4-1.1,0.8c-0.3,0.3-0.6,0.7-0.7,1.1
				c-0.2,0.5-0.2,0.9-0.2,1.4C78.2,93.5,77.9,93.8,77.5,93.8z"/>
		</g>
      <g id="XMLID_141_">
			<path class="st3" d="M133,91.2c-0.1,0-0.2,0-0.2,0c-0.4-0.1-0.6-0.6-0.5-0.9c0.2-0.6,0.3-1,0.3-1.5c0-0.3-0.1-0.7-0.3-1.3
				c-0.1-0.3-0.4-0.7-0.8-1.1c-0.4-0.3-0.8-0.6-1.2-0.7c-0.5-0.2-0.9-0.2-1.4-0.2c-0.3,0-0.7,0.1-1.3,0.3c-0.4,0.2-0.8,0-1-0.4
				c-0.2-0.4,0-0.8,0.4-1c0.8-0.3,1.4-0.5,1.9-0.5c0.6,0,1.2,0.1,1.9,0.3c0.6,0.2,1.2,0.6,1.7,1c0.4,0.4,1,1,1.2,1.7
				c0.3,0.8,0.5,1.4,0.5,1.9c0,0.6-0.1,1.2-0.3,1.9C133.6,91.1,133.3,91.2,133,91.2z"/>
		</g>
      <g id="XMLID_139_">
			<path class="st3" d="M104.4,99.8c0,0-0.1,0-0.1,0c-0.4-0.1-0.7-0.5-0.6-0.9c0.1-0.7,0.3-1.1,0.6-1.7c0.4-0.7,0.9-1.2,1.5-1.6
				c0.5-0.3,1.1-0.7,1.7-0.8c0.6-0.1,1.3-0.2,2-0.1c0.4,0.1,0.7,0.5,0.6,0.9c-0.1,0.4-0.5,0.7-0.9,0.6c-0.5-0.1-1,0-1.4,0.1
				c-0.4,0.1-0.8,0.3-1.3,0.6c-0.3,0.2-0.7,0.6-0.9,1c-0.2,0.4-0.3,0.6-0.4,1.1C105.1,99.6,104.8,99.8,104.4,99.8z"/>
		</g>
      <g id="XMLID_136_">
			<path class="st3" d="M133.3,101c0,0-0.1,0-0.1,0c-0.4-0.1-0.7-0.5-0.6-0.9c0.1-0.7,0.3-1.3,0.7-1.9c0.4-0.7,0.9-1.2,1.5-1.6
				c0.5-0.3,1.1-0.7,1.7-0.8c0.6-0.1,1.3-0.2,2-0.1c0.4,0.1,0.7,0.5,0.6,0.9c-0.1,0.4-0.5,0.7-0.9,0.6c-0.5-0.1-1,0-1.4,0.1
				c-0.4,0.1-0.8,0.3-1.3,0.6c-0.3,0.2-0.7,0.6-0.9,1c-0.3,0.4-0.4,0.9-0.5,1.3C134,100.8,133.7,101,133.3,101z"/>
		</g>
      <g id="XMLID_133_">
			<path class="st3" d="M119.1,106c-0.1,0-0.2,0-0.3-0.1c-0.8-0.3-1.3-0.7-1.8-1.1c-0.5-0.4-0.9-1-1.2-1.5l-0.1-0.1
				c-0.3-0.8-0.5-1.4-0.5-1.9c0-0.6,0-1.2,0.2-1.9c0.1-0.4,0.6-0.6,0.9-0.5c0.4,0.1,0.6,0.6,0.5,0.9c-0.2,0.5-0.2,0.9-0.2,1.5
				c0,0.3,0.1,0.7,0.3,1.3c0.3,0.5,0.5,0.8,0.9,1.1c0.3,0.3,0.8,0.6,1.3,0.8c0.4,0.2,0.6,0.6,0.4,1C119.7,105.8,119.4,106,119.1,106
				z"/>
		</g>
      <g id="XMLID_129_">
			<path class="st3" d="M65.2,93.2c-0.2,0-0.4-0.1-0.5-0.2c-1.3-1.3-2-3-2-4.8c0-3.7,3-6.8,6.8-6.8c1.7,0,3.1,0.6,4.3,1.6
				c0.3,0.3,0.3,0.8,0.1,1.1s-0.8,0.3-1.1,0.1c-0.9-0.8-2-1.2-3.3-1.2c-2.9,0-5.2,2.4-5.2,5.2c0,1.4,0.6,2.8,1.6,3.8
				c0.3,0.3,0.3,0.8,0,1.1C65.6,93.1,65.4,93.2,65.2,93.2z"/>
		</g>
      <g id="XMLID_128_">
			<path class="st3" d="M147.6,97c-0.3,0-0.5-0.1-0.7-0.4c-0.2-0.4,0-0.8,0.3-1c2.7-1.4,4.4-4.1,4.7-7.4c0.2-1.9-0.5-3.8-1.9-5.3
				c-1.6-1.7-3.8-2.7-6.2-2.7c-0.7,0-1.3,0-1.9,0.2c-0.4,0.1-0.8-0.1-0.9-0.5s0.1-0.8,0.5-0.9c0.8-0.2,1.6-0.2,2.3-0.2
				c2.8,0,5.4,1.2,7.3,3.2c1.7,1.8,2.5,4.1,2.3,6.4c-0.3,3.8-2.4,7-5.5,8.6C147.8,96.9,147.7,97,147.6,97z"/>
		</g>
      <g id="XMLID_127_">
			<path class="st3" d="M51.8,100.3c-0.4,0-0.8-0.3-0.8-0.8c0-3.8,3.1-6.9,7-6.9c1.1,0,2.1,0.2,3.1,0.7c0.4,0.2,0.5,0.6,0.4,1
				c-0.2,0.4-0.6,0.5-1,0.4c-0.8-0.4-1.6-0.5-2.5-0.5c-3,0-5.5,2.4-5.5,5.4C52.5,100,52.2,100.3,51.8,100.3z"/>
		</g>
      <g id="XMLID_420_">
			<path class="st3" d="M52.7,106.5c-3.2,0-5.8-2.5-5.8-5.8c0-3.1,2.9-5.8,6.2-5.8c0.4,0,0.8,0.3,0.8,0.8s-0.3,0.8-0.8,0.8
				c-2.5,0-4.8,2-4.8,4.2c0,2.4,1.9,4.2,4.2,4.2c0.4,0,0.8,0.3,0.8,0.8S53.1,106.5,52.7,106.5z"/>
		</g>
      <g id="XMLID_120_">
			<path class="st3" d="M159.7,103.8c-0.2,0-0.3-0.1-0.5-0.2c-0.3-0.3-0.4-0.7-0.1-1.1c1.1-1.2,1.7-2.9,1.9-4.8
				c0.2-1.7-0.4-3.3-1.6-4.6c-1.4-1.5-3.4-2.4-5.5-2.4c-0.6,0-0.9,0-1.4,0.1c-0.4,0.1-0.8-0.2-0.9-0.6s0.2-0.8,0.6-0.9
				c0.6-0.1,1-0.1,1.6-0.1c2.5,0,4.9,1.1,6.6,2.9c1.5,1.6,2.2,3.7,2,5.8c-0.2,2.2-1,4.1-2.3,5.6
				C160.1,103.8,159.9,103.8,159.7,103.8z"/>
		</g>
      <g id="XMLID_115_">
			<path class="st3" d="M161.6,106.5c-0.4,0-0.8-0.3-0.8-0.8s0.3-0.8,0.8-0.8c2.6,0,4.7-2.1,5-5c0.1-1.1-0.3-2.2-1.1-3.2
				c-1-1.1-2.4-1.7-3.8-1.7c-0.4,0-0.8-0.3-0.8-0.8s0.3-0.8,0.8-0.8c1.8,0,3.7,0.8,4.9,2.2c1.1,1.2,1.7,2.8,1.5,4.3
				C167.7,103.9,165,106.5,161.6,106.5z"/>
		</g>
	</g>
    <g id="XMLID_5_">
		<polygon class="st8" id="XMLID_396_" points="114,57.8 98.5,57.8 97.5,55.6 97.5,49 115,49 115,55.5 		"/>
      <rect class="st9" height="2.8" id="XMLID_395_" width="4.9" x="103.8" y="57.8"/>
      <path class="st4" d="M118.8,35.5c0-6.8-5.5-12.3-12.3-12.3s-12.3,5.5-12.3,12.3c0,4.3,2.3,8.2,5.6,10.3V49h13.3
			v-3.1C116.5,43.7,118.8,39.9,118.8,35.5z" id="XMLID_392_"/>
      <path class="st10" d="M106.4,23.2c-0.8,0-1.5,0.1-2.2,0.2c5.7,1.1,10.1,6.1,10.1,12.1c0,4.3-2.3,8.2-5.6,10.3V49
			h4.5v-3.1c3.4-2.2,5.6-6,5.6-10.3C118.8,28.7,113.2,23.2,106.4,23.2z" id="XMLID_542_"/>
      <g id="XMLID_391_">
			<path class="st3" d="M113.9,58.5H98.5c-0.3,0-0.6-0.2-0.7-0.4l-1-2.2c0-0.1-0.1-0.2-0.1-0.3V49c0-0.4,0.3-0.8,0.8-0.8h17.4
				c0.4,0,0.8,0.3,0.8,0.8v6.5c0,0.1,0,0.2-0.1,0.3l-1,2.3C114.5,58.4,114.2,58.5,113.9,58.5z M99,57h14.4l0.7-1.7v-5.6H98.2v5.7
				L99,57z"/>
		</g>
      <g id="XMLID_111_">
			<rect class="st8" height="2.8" width="4.9" x="103.7" y="57.8"/>
        <path class="st3" d="M109.3,61.3H103V57h6.4V61.3z M104.5,59.8h3.4v-1.3h-3.4V59.8z"/>
		</g>
      <g id="XMLID_389_">
			<path class="st3" d="M113.8,49.8H99v-3.5c-3.5-2.3-5.7-6.4-5.7-10.7c0-7.2,5.9-13,13-13c7.2,0,13,5.9,13,13
				c0,4.3-2.1,8.3-5.6,10.8V49.8z M100.5,48.2h11.8v-2.8l0.3-0.2c3.3-2.2,5.3-5.9,5.3-9.8c0-6.4-5.2-11.5-11.5-11.5
				c-6.4,0-11.5,5.2-11.5,11.5c0,3.9,2,7.6,5.3,9.7l0.4,0.2V48.2z"/>
		</g>
      <g id="XMLID_109_">
			<path class="st3"
            d="M105,54.1h-7.5c-0.4,0-0.8-0.3-0.8-0.8s0.3-0.8,0.8-0.8h7.5c0.4,0,0.8,0.3,0.8,0.8S105.4,54.1,105,54.1z"/>
		</g>
      <g id="XMLID_387_">
			<path class="st3" d="M104.4,39.8l-3.6-3.6c-0.3-0.3-0.3-0.8,0-1.1s0.8-0.3,1.1,0l2.6,2.6l5.7-5.7c0.3-0.3,0.8-0.3,1.1,0
				s0.3,0.8,0,1.1L104.4,39.8z"/>
		</g>
	</g>
    <g id="XMLID_202_">
		<path class="st4" d="M193.5,95.6v-2.9l-2.4-0.7c-0.2-1-0.6-1.9-1.1-2.7l1.4-2.3l-2-2l-2.4,1.4
			c-0.8-0.5-1.7-0.9-2.7-1.1l-0.7-2.6h-2.9l-0.7,2.6c-1,0.2-1.9,0.6-2.7,1.1l-2.3-1.3l-2,2l1.3,2.3c-0.5,0.8-0.9,1.7-1.1,2.7
			l-2.4,0.8v2.9l2.4,0.6c0.2,1,0.6,1.9,1.1,2.7l-1.4,2.2l2,2l2.4-1.3c0.8,0.5,1.7,0.9,2.7,1.1l0.7,2.7h2.9l0.6-2.7
			c1-0.2,1.9-0.6,2.7-1.1l2.4,1.4l2-2L190,99c0.5-0.8,0.9-1.7,1.1-2.7L193.5,95.6z" id="XMLID_439_"/>
      <circle class="st2" cx="181.9" cy="94.2" id="XMLID_438_" r="4"/>
      <g id="XMLID_431_">
			<g id="XMLID_436_">
				<path class="st3" d="M182.1,96.2c-0.2,0-0.4-0.1-0.5-0.2l-1.7-1.7c-0.3-0.3-0.3-0.8,0-1.1c0.3-0.3,0.8-0.3,1.1,0l1.2,1.2
					l4.1-4.2c0.3-0.3,0.8-0.3,1.1,0c0.3,0.3,0.3,0.8,0,1.1l-4.6,4.7C182.5,96.1,182.3,96.1,182.1,96.2
					C182.1,96.2,182.1,96.2,182.1,96.2z"/>
			</g>
        <g id="XMLID_433_">
				<path class="st3" d="M182,98.8c-2.6,0-4.8-2.1-4.8-4.8s2.1-4.8,4.8-4.8c0.7,0,1.4,0.2,2.2,0.6c0.4,0.2,0.5,0.6,0.3,1
					c-0.2,0.4-0.6,0.5-1,0.3c-0.6-0.3-1.1-0.4-1.6-0.4c-1.8,0-3.2,1.5-3.2,3.2s1.5,3.2,3.2,3.2s3.2-1.5,3.2-3.2
					c0-0.4,0.3-0.8,0.8-0.8s0.8,0.3,0.8,0.8C186.8,96.7,184.6,98.8,182,98.8z"/>
			</g>
		</g>
      <g id="XMLID_399_">
			<g id="XMLID_430_">
				<path class="st3" d="M183.5,106.5h-2.9c-0.3,0-0.6-0.2-0.7-0.6l-0.6-2.3c-0.7-0.2-1.4-0.5-2.1-0.9l-2,1.1
					c-0.3,0.2-0.7,0.1-0.9-0.1l-2-2c-0.2-0.2-0.3-0.6-0.1-0.9l1.2-1.8c-0.4-0.7-0.7-1.4-0.8-2.1l-2-0.5c-0.3-0.1-0.6-0.4-0.6-0.7
					v-2.9c0-0.3,0.2-0.6,0.5-0.7l2-0.7c0.2-0.7,0.5-1.4,0.9-2.1l-1.1-1.9c-0.2-0.3-0.1-0.7,0.1-0.9l2-2c0.2-0.2,0.6-0.3,0.9-0.1
					l1.9,1.1c0.7-0.4,1.4-0.7,2.1-0.9l0.6-2.2c0.1-0.3,0.4-0.6,0.7-0.6h2.9c0.3,0,0.6,0.2,0.7,0.6l0.6,2.2c0.7,0.2,1.4,0.5,2.1,0.9
					l2-1.2c0.3-0.2,0.7-0.1,0.9,0.1l2,2c0.2,0.2,0.3,0.6,0.1,0.9l-1.2,1.9c0.4,0.7,0.7,1.4,0.9,2.1l2,0.6c0.3,0.1,0.5,0.4,0.5,0.7
					v2.9c0,0.3-0.2,0.6-0.5,0.7l-2.1,0.7c-0.2,0.7-0.5,1.4-0.9,2.1l1.2,1.9c0.2,0.3,0.1,0.7-0.1,0.9l-2,2c-0.2,0.2-0.6,0.3-0.9,0.1
					l-2-1.2c-0.7,0.4-1.4,0.7-2.1,0.9l-0.5,2.2C184.2,106.3,183.9,106.5,183.5,106.5z M181.2,105h1.7l0.5-2.1
					c0.1-0.3,0.3-0.5,0.6-0.6c0.8-0.2,1.7-0.5,2.4-1c0.2-0.1,0.5-0.2,0.8,0l1.9,1.1l1.2-1.2l-1.1-1.8c-0.1-0.2-0.1-0.5,0-0.8
					c0.5-0.8,0.8-1.6,1-2.4c0.1-0.3,0.2-0.5,0.5-0.6l2-0.6v-1.8l-1.9-0.5c-0.3-0.1-0.5-0.3-0.5-0.6c-0.2-0.8-0.5-1.7-1-2.5
					c-0.2-0.2-0.2-0.5,0-0.8l1.1-1.8l-1.2-1.2l-1.9,1.1c-0.2,0.1-0.5,0.1-0.8,0c-0.8-0.5-1.6-0.8-2.5-1c-0.3-0.1-0.5-0.3-0.6-0.5
					l-0.6-2h-1.8l-0.5,2c-0.1,0.3-0.3,0.5-0.6,0.5c-0.8,0.2-1.7,0.5-2.5,1c-0.2,0.1-0.5,0.2-0.8,0l-1.8-1l-1.2,1.2l1,1.8
					c0.1,0.2,0.1,0.5,0,0.8c-0.5,0.8-0.8,1.6-1,2.4c-0.1,0.3-0.2,0.5-0.5,0.6l-1.9,0.6v1.8l1.8,0.5c0.3,0.1,0.5,0.3,0.6,0.6
					c0.2,0.8,0.5,1.7,1,2.4c0.2,0.2,0.2,0.6,0,0.8l-1.1,1.7l1.2,1.2l1.9-1c0.2-0.1,0.5-0.1,0.8,0c0.8,0.5,1.6,0.8,2.4,1
					c0.3,0.1,0.5,0.3,0.6,0.5L181.2,105z M193.4,95.6L193.4,95.6L193.4,95.6z"/>
			</g>
        <g id="XMLID_425_">
				<path class="st3" d="M182.7,86.8h-1.2c-0.4,0-0.8-0.3-0.8-0.8s0.3-0.8,0.8-0.8h1.2c0.4,0,0.8,0.3,0.8,0.8S183.1,86.8,182.7,86.8
					z"/>
			</g>
        <g id="XMLID_424_">
				<path class="st3" d="M188.4,89.7c-0.2,0-0.4-0.1-0.5-0.2l-0.9-0.9c-0.3-0.3-0.3-0.8,0-1.1s0.8-0.3,1.1,0l0.9,0.9
					c0.3,0.3,0.3,0.8,0,1.1C188.8,89.6,188.6,89.7,188.4,89.7z"/>
			</g>
        <g id="XMLID_415_">
				<path class="st3" d="M190.4,95.7c-0.4,0-0.8-0.3-0.8-0.8v-1.2c0-0.4,0.3-0.8,0.8-0.8s0.8,0.3,0.8,0.8v1.2
					C191.2,95.3,190.8,95.7,190.4,95.7z"/>
			</g>
        <g id="XMLID_414_">
				<path class="st3" d="M187.5,101.3c-0.2,0-0.4-0.1-0.5-0.2c-0.3-0.3-0.3-0.8,0-1.1l0.9-0.9c0.3-0.3,0.8-0.3,1.1,0
					c0.3,0.3,0.3,0.8,0,1.1l-0.9,0.9C187.9,101.3,187.7,101.3,187.5,101.3z"/>
			</g>
        <g id="XMLID_413_">
				<path class="st3" d="M182.7,103.2h-1.2c-0.4,0-0.8-0.3-0.8-0.8s0.3-0.8,0.8-0.8h1.2c0.4,0,0.8,0.3,0.8,0.8
					S183.1,103.2,182.7,103.2z"/>
			</g>
        <g id="XMLID_412_">
				<path class="st3" d="M176.7,101.2c-0.2,0-0.4-0.1-0.5-0.2l-0.9-0.8c-0.3-0.3-0.3-0.7-0.1-1.1c0.3-0.3,0.7-0.3,1.1-0.1l0.9,0.8
					c0.3,0.3,0.3,0.7,0.1,1.1C177.1,101.2,176.9,101.2,176.7,101.2z"/>
			</g>
        <g id="XMLID_404_">
				<path class="st3" d="M173.9,95.7c-0.4,0-0.8-0.3-0.8-0.8v-1.3c0-0.4,0.3-0.8,0.8-0.8s0.8,0.3,0.8,0.8v1.3
					C174.7,95.3,174.3,95.7,173.9,95.7z"/>
			</g>
        <g id="XMLID_403_">
				<path class="st3" d="M175.9,89.5c-0.2,0-0.4-0.1-0.5-0.2c-0.3-0.3-0.3-0.8,0-1.1l0.8-0.8c0.3-0.3,0.8-0.3,1.1,0s0.3,0.8,0,1.1
					l-0.8,0.8C176.3,89.5,176.1,89.5,175.9,89.5z"/>
			</g>
		</g>
	</g>
    <g id="XMLID_142_">
		<g id="XMLID_145_">
			<path class="st3" d="M199.8,106.5H15.7c-0.4,0-0.8-0.3-0.8-0.8s0.3-0.8,0.8-0.8h184.1c0.4,0,0.8,0.3,0.8,0.8
				S200.2,106.5,199.8,106.5z"/>
		</g>
      <g id="XMLID_144_">
			<path class="st3" d="M205.3,106.5h-2.7c-0.4,0-0.8-0.3-0.8-0.8s0.3-0.8,0.8-0.8h2.7c0.4,0,0.8,0.3,0.8,0.8
				S205.7,106.5,205.3,106.5z"/>
		</g>
      <g id="XMLID_143_">
			<path class="st3"
            d="M13,106.5H8.4c-0.4,0-0.8-0.3-0.8-0.8S8,105,8.4,105H13c0.4,0,0.8,0.3,0.8,0.8S13.4,106.5,13,106.5z"/>
		</g>
	</g>
</g>
</svg>
