<?xml version="1.0" encoding="utf-8"?>
<!-- Generator: Adobe Illustrator 27.5.0, SVG Export Plug-In . SVG Version: 6.00 Build 0)  -->
<svg version="1.1" id="Layer_1" xmlns="http://www.w3.org/2000/svg" xmlns:xlink="http://www.w3.org/1999/xlink" x="0px" y="0px"
	 viewBox="0 0 212.5 212.4" style="enable-background:new 0 0 212.5 212.4;" xml:space="preserve">
<style type="text/css">
	.st0{fill:url(#SVGID_1_);}
	.st1{fill:none;}
	.st2{fill:#E2DDED;}
	.st3{opacity:0.1;fill:url(#SVGID_00000090981069436288262330000004615455081339051199_);enable-background:new    ;}
	.st4{fill:#ECE7F6;}
	.st5{fill:#EC1F2E;}
	.st6{fill:#EFEFEF;}
	.st7{opacity:0.1;fill:url(#SVGID_00000069385510752668880800000001075060205196116650_);enable-background:new    ;}
	.st8{opacity:0.1;fill:url(#SVGID_00000116929662105199390390000007967877442201573276_);enable-background:new    ;}
	.st9{opacity:5.000000e-02;fill:url(#SVGID_00000056400152519699711570000002718241178769758126_);enable-background:new    ;}
	.st10{fill:#F2F2F9;}
	.st11{fill:none;stroke:#C61E1E;stroke-width:0.25;stroke-miterlimit:10;}
	.st12{opacity:5.000000e-02;fill:url(#SVGID_00000003074222329779348810000002738515861097708453_);enable-background:new    ;}
	.st13{fill:none;stroke:#FFFFFF;stroke-miterlimit:10;}
</style>
<g>
	
		<linearGradient id="SVGID_1_" gradientUnits="userSpaceOnUse" x1="20.652" y1="191.7481" x2="191.3531" y2="21.0469" gradientTransform="matrix(1 0 0 -1 0 212.4)">
		<stop  offset="3.091156e-03" style="stop-color:#1BB3FD"/>
		<stop  offset="1" style="stop-color:#0C5DD8"/>
	</linearGradient>
	<path class="st0" d="M212.4,162.7c0,27.3-22.4,49.7-49.7,49.7h-113C22.4,212.4,0,190,0,162.7v-113C0,22.4,22.4,0,49.7,0h113
		c27.3,0,49.7,22.4,49.7,49.7V162.7z"/>
	<path class="st1" d="M151.7,74.6c-1.8-2.6-3.9-5-6.1-7.2c-2.2-2.2-4.6-4.3-7.2-6.1c-5.3-3.8-11.4-6.7-17.9-8.4
		c-4.5-1.2-9.2-1.8-14-1.8s-9.5,0.6-14,1.8c-6.5,1.7-12.6,4.6-17.9,8.4c-2.6,1.8-5,3.9-7.2,6.1s-4.3,4.6-6.1,7.2
		c-3.8,5.3-6.7,11.4-8.4,17.9c-1.2,4.5-1.8,9.2-1.8,14l0,0c0,4.8,0.6,9.5,1.8,14c1.7,6.5,4.6,12.6,8.4,17.9c1.8,2.6,3.9,5,6.1,7.2
		s4.6,4.3,7.2,6.1c5.3,3.8,11.4,6.7,17.9,8.4c4.5,1.2,9.2,1.8,14,1.8s9.5-0.6,14-1.8c6.5-1.7,12.6-4.6,17.9-8.4
		c2.6-1.8,5-3.9,7.2-6.1c2.2-2.2,4.3-4.6,6.1-7.2c3.8-5.3,6.7-11.4,8.4-17.9c1.2-4.5,1.8-9.2,1.8-14l0,0c0-4.8-0.6-9.5-1.8-14
		C158.4,86,155.5,79.9,151.7,74.6z M106.6,106.5L106.6,106.5L106.6,106.5L106.6,106.5L106.6,106.5z"/>
	<path class="st2" d="M194.2,106.5l-23.6-9.7c-1.8-12.1-7.1-23.2-14.7-32.1l5.4-12.9l0,0l-12.9,5.4c-9-7.6-20-12.8-32.1-14.7
		l-9.7-23.6l-9.7,23.6c-12.1,1.8-23.2,7.1-32.1,14.7l-12.9-5.4l5.4,12.9c-7.6,9-12.8,20-14.7,32.1L19,106.5l0,0l23.6,9.7
		c1.8,12.1,7.1,23.2,14.7,32.1l-5.5,12.9l0,0l12.9-5.4c9,7.6,20,12.8,32.1,14.7l9.7,23.6l9.7-23.6c12.1-1.8,23.2-7.1,32.1-14.7
		l12.9,5.4l0,0l-5.4-12.9c7.6-9,12.8-20,14.7-32.1L194.2,106.5z M161.9,106.5c0,4.8-0.6,9.5-1.8,14c-1.7,6.5-4.6,12.6-8.4,17.9
		c-1.8,2.6-3.9,5-6.1,7.2c-2.2,2.2-4.6,4.3-7.2,6.1c-5.3,3.8-11.4,6.7-17.9,8.4c-4.5,1.2-9.2,1.8-14,1.8s-9.5-0.6-14-1.8
		c-6.5-1.7-12.6-4.6-17.9-8.4c-2.6-1.8-5-3.9-7.2-6.1c-2.2-2.2-4.3-4.6-6.1-7.2c-3.8-5.3-6.7-11.4-8.4-17.9c-1.2-4.5-1.8-9.2-1.8-14
		l0,0c0-4.8,0.6-9.5,1.8-14c1.7-6.5,4.6-12.6,8.4-17.9c1.8-2.6,3.9-5,6.1-7.2s4.6-4.3,7.2-6.1c5.3-3.8,11.4-6.7,17.9-8.4
		c4.5-1.2,9.2-1.8,14-1.8s9.5,0.6,14,1.8c6.5,1.7,12.6,4.6,17.9,8.4c2.6,1.8,5,3.9,7.2,6.1s4.3,4.6,6.1,7.2
		c3.8,5.3,6.7,11.4,8.4,17.9C161.3,96.9,161.9,101.6,161.9,106.5L161.9,106.5z"/>
	<g>
		
			<linearGradient id="SVGID_00000168100237278886998420000013821954954050750119_" gradientUnits="userSpaceOnUse" x1="87.6515" y1="142.0682" x2="189.1593" y2="7.4194" gradientTransform="matrix(1 0 0 -1 0 212.4)">
			<stop  offset="0" style="stop-color:#000000"/>
			<stop  offset="1" style="stop-color:#FFFFFF"/>
		</linearGradient>
		<path style="opacity:0.1;fill:url(#SVGID_00000168100237278886998420000013821954954050750119_);enable-background:new    ;" d="
			M144.6,27.4l67.9,67.9v67.4c0,27.3-22.4,49.7-49.7,49.7H95.5l-26.6-26.3"/>
		<polygon class="st4" points="119.4,110.4 107,106.8 94.3,102.7 68.9,186 152.6,141.3 141.9,120.4 111.3,136.7 		"/>
		<polygon class="st5" points="94.3,102.7 106.5,106.7 119.4,110.4 144.6,27.4 60.9,72.2 71.6,93 102.2,76.7 		"/>
		<path class="st6" d="M163,129.6"/>
		
			<linearGradient id="SVGID_00000036246597507928908570000002065143761496614810_" gradientUnits="userSpaceOnUse" x1="-98.1982" y1="45.6872" x2="-34.4772" y2="45.6872" gradientTransform="matrix(0.9404 -0.3399 -0.3399 -0.9404 190.3068 148.872)">
			<stop  offset="0" style="stop-color:#000000"/>
			<stop  offset="1" style="stop-color:#FFFFFF"/>
		</linearGradient>
		
			<polygon style="opacity:0.1;fill:url(#SVGID_00000036246597507928908570000002065143761496614810_);enable-background:new    ;" points="
			90.1,160.5 90.1,160.5 106.5,106.6 119.4,110.4 111.3,136.7 141.9,120.4 146.9,130.2 		"/>
		
			<linearGradient id="SVGID_00000085956637505522165090000009749733581977013890_" gradientUnits="userSpaceOnUse" x1="-95.6445" y1="95.0351" x2="-1.6946" y2="95.0351" gradientTransform="matrix(0.9404 -0.3399 -0.3399 -0.9404 190.3068 148.872)">
			<stop  offset="0" style="stop-color:#000000"/>
			<stop  offset="1" style="stop-color:#FFFFFF"/>
		</linearGradient>
		
			<polygon style="opacity:0.1;fill:url(#SVGID_00000085956637505522165090000009749733581977013890_);enable-background:new    ;" points="
			66.2,82.5 60.9,72.2 144.6,27.4 119.4,110.4 106.5,106.7 123.9,52.1 		"/>
		
			<linearGradient id="SVGID_00000066493695504845016330000012024379858145232804_" gradientUnits="userSpaceOnUse" x1="156.6084" y1="152.4651" x2="182.275" y2="126.7985" gradientTransform="matrix(0.9954 9.586549e-02 9.586549e-02 -0.9954 -62.9326 238.7777)">
			<stop  offset="0" style="stop-color:#000000"/>
			<stop  offset="1" style="stop-color:#FFFFFF"/>
		</linearGradient>
		
			<polygon style="opacity:5.000000e-02;fill:url(#SVGID_00000066493695504845016330000012024379858145232804_);enable-background:new    ;" points="
			136.9,145.6 99.7,111.1 110.8,99.2 148.7,133.3 		"/>
		<circle class="st10" cx="106.5" cy="106.6" r="8.3"/>
	</g>
	<path class="st11" d="M99.7,112.1"/>
</g>
<linearGradient id="SVGID_00000036971534089512223090000012479529231316115597_" gradientUnits="userSpaceOnUse" x1="100.6663" y1="104.55" x2="114.7829" y2="104.55" gradientTransform="matrix(1 0 0 -1 0 212.4)">
	<stop  offset="0" style="stop-color:#000000"/>
	<stop  offset="1" style="stop-color:#FFFFFF"/>
</linearGradient>
<path style="opacity:5.000000e-02;fill:url(#SVGID_00000036971534089512223090000012479529231316115597_);enable-background:new    ;" d="
	M112.4,100.8c3.2,3.2,3.2,8.4-0.1,11.7c-3.2,3.2-8.5,3.2-11.7,0L112.4,100.8z"/>
<path class="st13" d="M144.6,27.4"/>
<path class="st13" d="M69.1,186"/>
</svg>
