<?xml version="1.0" encoding="utf-8"?>
<!-- Generator: Adobe Illustrator 26.4.1, SVG Export Plug-In . SVG Version: 6.00 Build 0)  -->
<svg id="Layer_1" style="enable-background:new 0 0 92.9 97;" version="1.1" viewBox="0 0 92.9 97" x="0px"
     xml:space="preserve"
     xmlns="http://www.w3.org/2000/svg" xmlns:xlink="http://www.w3.org/1999/xlink" y="0px">
<style type="text/css">
	.st0 {
    fill: #FFC400;
  }

  .st1 {
    fill: #002567;
  }

  .st2 {
    fill: #F4044D;
  }

  .st3 {
    fill: #C6CCD7;
  }
</style>
  <g id="Group_179">
	<g id="Path_483">
		<path class="st0" d="M14.4,18c-0.6,0-1.2-0.4-1.4-1c-0.7-2.1-2.4-3.8-4.5-4.6c-0.6-0.2-1-0.8-0.9-1.4c0-0.6,0.4-1.2,1-1.4
			c2-0.7,3.7-2.5,4.5-4.6c0.2-0.6,0.8-1,1.4-1s1.2,0.4,1.4,1c0.7,2.1,2.4,3.8,4.5,4.6c0.6,0.2,0.9,0.8,0.9,1.4s-0.4,1.2-0.9,1.4
			c-2.1,0.9-3.8,2.5-4.5,4.6C15.6,17.6,15,18,14.4,18z M12.1,11c0.9,0.7,1.7,1.4,2.3,2.3c0.7-0.9,1.4-1.7,2.3-2.3
			c-0.9-0.7-1.7-1.4-2.3-2.3C13.8,9.6,13,10.3,12.1,11z"/>
	</g>
    <g id="Path_484">
		<path class="st0" d="M83.8,49.9c-0.6,0-1.2-0.4-1.4-1c-1.1-3.1-3.6-5.7-6.7-6.9c-0.6-0.2-0.9-0.8-0.9-1.4c0-0.6,0.4-1.2,1-1.4
			c3.2-1.3,5.7-3.8,6.7-6.9c0.2-0.6,0.8-1,1.4-1c0.6,0,1.2,0.4,1.4,1c1.1,3.1,3.6,5.7,6.7,6.9c0.6,0.2,0.9,0.8,0.9,1.4
			S92.5,41.7,92,42c-3.2,1.3-5.6,3.8-6.7,6.9C85,49.5,84.4,49.9,83.8,49.9z M79.5,40.6c1.7,1.2,3.2,2.7,4.3,4.4
			c1.1-1.8,2.6-3.3,4.4-4.4c-1.7-1.1-3.2-2.6-4.3-4.4C82.7,38,81.2,39.5,79.5,40.6z"/>
	</g>
    <g id="Line_45">
		<path class="st1" d="M83.8,16.1c-0.8,0-1.5-0.7-1.5-1.5V7.7c0-0.8,0.7-1.5,1.5-1.5s1.5,0.7,1.5,1.5v6.9
			C85.3,15.4,84.6,16.1,83.8,16.1z"/>
	</g>
    <g id="Line_46">
		<path class="st1"
          d="M87.2,12.6h-6.7c-0.8,0-1.5-0.7-1.5-1.5s0.7-1.5,1.5-1.5h6.7c0.8,0,1.5,0.7,1.5,1.5S88,12.6,87.2,12.6z"/>
	</g>
    <g id="Line_47">
		<path class="st1" d="M2.7,41.4c-0.4,0-0.7-0.1-1-0.4c-0.6-0.6-0.6-1.5,0-2.1l4.7-4.9c0.6-0.6,1.5-0.6,2.1,0c0.6,0.6,0.6,1.5,0,2.1
			l-4.7,4.9C3.5,41.2,3.1,41.4,2.7,41.4z"/>
	</g>
    <g id="Line_48">
		<path class="st1" d="M7.4,41.4c-0.4,0-0.8-0.2-1.1-0.5L1.6,36c-0.6-0.6-0.6-1.5,0-2.1c0.6-0.6,1.5-0.6,2.1,0l4.7,4.9
			c0.6,0.6,0.6,1.5,0,2.1C8.1,41.2,7.8,41.4,7.4,41.4z"/>
	</g>
    <g id="Path_485">
		<path class="st2" d="M64.9,8.7c-2.2,0-4-1.7-4-3.9c0-2.3,1.7-4.1,3.9-4.1c2.2,0,4,1.7,4,3.9v0.1C68.8,6.9,67.1,8.7,64.9,8.7z
			 M64.8,3.7c-0.6,0-0.9,0.5-0.9,1c0,0.7,0.5,1,1,1c0.6,0,0.9-0.5,0.9-1V4.6C65.8,4,65.3,3.7,64.8,3.7z"/>
	</g>
    <g id="Path_486">
		<path class="st2" d="M19.7,47.6c-2.2,0-3.9-1.8-3.9-4c0-2.1,1.8-3.9,3.9-3.9c2.2,0,4,1.8,4,4C23.7,45.8,21.9,47.6,19.7,47.6z
			 M19.7,42.7c-0.5,0-0.9,0.4-0.9,0.9c0,0.6,0.4,1,0.9,1c0.6,0,1-0.4,1-0.9C20.7,43.1,20.3,42.7,19.7,42.7z"/>
	</g>
    <g id="Line_49">
		<path class="st2" d="M56.9,29.5c-0.4,0-0.8-0.1-1.1-0.4l-5.2-5.3c-0.6-0.6-0.6-1.5,0-2.1c0.6-0.6,1.5-0.6,2.1,0l5.2,5.3
			c0.6,0.6,0.6,1.5,0,2.1C57.7,29.3,57.3,29.5,56.9,29.5z"/>
	</g>
    <g id="Line_50">
		<path class="st2" d="M57.1,39.1c-0.4,0-0.8-0.1-1.1-0.4L41.3,23.7c-0.6-0.6-0.6-1.5,0-2.1c0.6-0.6,1.5-0.6,2.1,0l14.7,14.9
			c0.6,0.6,0.6,1.5,0,2.1C57.9,38.9,57.5,39.1,57.1,39.1z"/>
	</g>
    <g id="Line_51">
		<path class="st2" d="M56.4,47.8c-0.4,0-0.8-0.2-1.1-0.5l-22.5-23c-0.6-0.6-0.6-1.5,0-2.1c0.6-0.6,1.5-0.6,2.1,0l22.5,23
			c0.6,0.6,0.6,1.5,0,2.1C57.2,47.6,56.8,47.8,56.4,47.8z"/>
	</g>
    <g id="Line_52">
		<path class="st2" d="M53,53.3c-0.4,0-0.8-0.2-1.1-0.5L32.2,32.7c-0.6-0.6-0.6-1.5,0-2.1c0.6-0.6,1.5-0.6,2.1,0l19.7,20.1
			c0.6,0.6,0.6,1.5,0,2.1C53.8,53.1,53.4,53.3,53,53.3z"/>
	</g>
    <g id="Line_53">
		<path class="st2" d="M47,55.6c-0.4,0-0.8-0.1-1.1-0.4L32.6,41.6c-0.6-0.6-0.6-1.5,0-2.1c0.6-0.6,1.5-0.6,2.1,0L48.1,53
			c0.6,0.6,0.6,1.5,0,2.1C47.8,55.4,47.4,55.6,47,55.6z"/>
	</g>
    <g id="Path_488">
		<path class="st1" d="M64.3,24.2h-38c-0.6,0-1.1-0.4-1.4-0.9c-0.2-0.5-0.1-1.2,0.3-1.6L44.2,1c0.6-0.6,1.6-0.6,2.2,0l19,20.7
			c0.4,0.4,0.5,1.1,0.3,1.6S64.9,24.2,64.3,24.2z M29.7,21.2h31.2l-15.6-17L29.7,21.2z"/>
	</g>
    <g id="Path_489">
		<path class="st2" d="M43.5,96.5c-0.8,0-1.5-0.7-1.5-1.5c0-2.2,0.7-3.3,1.3-4.3c0.5-0.8,0.8-1.4,0.8-2.7s-0.4-1.9-0.8-2.7
			C42.7,84.3,42,83.1,42,81s0.7-3.3,1.3-4.3c0.5-0.8,0.8-1.4,0.8-2.7s-0.4-1.9-0.8-2.7C42.7,70.3,42,69.1,42,67s0.7-3.3,1.3-4.3
			c0.5-0.8,0.8-1.4,0.8-2.7c0-0.8,0.7-1.5,1.5-1.5s1.5,0.7,1.5,1.5c0,2.2-0.7,3.3-1.3,4.3C45.4,65.1,45,65.6,45,67s0.4,1.9,0.8,2.7
			c0.6,0.9,1.3,2.1,1.3,4.3s-0.7,3.3-1.3,4.3C45.4,79.1,45,79.6,45,81s0.4,1.9,0.8,2.7c0.6,0.9,1.3,2.1,1.3,4.3s-0.7,3.3-1.3,4.3
			C45.4,93.1,45,93.6,45,95C45,95.8,44.3,96.5,43.5,96.5z"/>
	</g>
    <g id="Path_490">
		<path class="st2" d="M26.3,82.9c-0.2,0-0.5-0.1-0.7-0.2c-0.7-0.4-1-1.3-0.6-2c0.5-1.1,0.5-1.7,0.4-2.5c-0.1-1.1-0.2-2.4,0.7-4.2
			c1-1.8,2.1-2.4,3-2.9c0.8-0.4,1.3-0.7,1.8-1.7c0.5-1,0.5-1.6,0.4-2.4c-0.1-1.1-0.2-2.4,0.7-4.2c1-1.8,2.1-2.4,3-2.9
			c0.8-0.4,1.3-0.7,1.8-1.7c0.4-0.7,1.3-1,2-0.6c0.7,0.4,1,1.3,0.6,2c-1,1.8-2.1,2.4-3,2.9c-0.8,0.4-1.3,0.7-1.8,1.7
			c-0.5,1-0.5,1.6-0.4,2.4c0.1,1.1,0.2,2.4-0.7,4.2c-1,1.8-2.1,2.4-3,2.9c-0.8,0.4-1.3,0.7-1.8,1.7c-0.5,1-0.5,1.6-0.4,2.4
			c0.1,1.1,0.2,2.4-0.7,4.2C27.4,82.6,26.8,82.9,26.3,82.9z"/>
	</g>
    <g id="Path_491">
		<path class="st2" d="M64.9,81.9c-0.5,0-1.1-0.3-1.3-0.8c-0.5-1-1-1.2-1.8-1.6c-0.9-0.5-2.1-1.1-3.1-3c-1-1.9-0.8-3.2-0.7-4.2
			c0.1-0.9,0.2-1.5-0.4-2.4c-0.5-1-1-1.3-1.8-1.7c-0.9-0.5-2-1.1-3-2.9c-1-1.8-0.8-3.1-0.7-4.2c0.1-0.9,0.2-1.4-0.4-2.4
			c-0.4-0.7-0.1-1.6,0.6-2c0.7-0.4,1.6-0.1,2,0.6c1,1.8,0.8,3.1,0.7,4.2c-0.1,0.9-0.2,1.4,0.4,2.4c0.5,1,1,1.3,1.8,1.7
			c0.9,0.5,2,1.1,3,2.9c1,1.8,0.8,3.1,0.7,4.2c-0.1,0.9-0.2,1.5,0.4,2.5c0.5,1.1,1,1.3,1.8,1.7c0.9,0.5,2,1.1,3,2.9
			c0.4,0.7,0.1,1.6-0.6,2C65.4,81.8,65.1,81.9,64.9,81.9z"/>
	</g>
    <g id="Path_492">
		<path class="st3" d="M72.7,58.4c-0.4,0-0.8-0.2-0.9-0.6c-0.2-0.4-0.4-0.7-0.8-1c-0.5-0.3-0.7-0.9-0.4-1.4c0.3-0.5,0.9-0.7,1.4-0.4
			c1.1,0.6,1.5,1.4,1.7,2c0.2,0.5-0.1,1.1-0.6,1.3C72.9,58.4,72.8,58.4,72.7,58.4z M67.7,57.1c-0.6,0-1.1-0.1-1.6-0.4l0.5-0.9
			l0.5-0.9l-0.5,0.9l0.5-0.9c0.3,0.2,0.7,0.2,1.2,0.1c0.5-0.1,1.1,0.2,1.2,0.7c0.1,0.5-0.2,1.1-0.7,1.2C68.4,57,68.1,57.1,67.7,57.1
			z M65,54.4c-0.4,0-0.8-0.2-0.9-0.6c-0.2-0.4-0.4-0.7-0.8-1c-0.5-0.3-0.7-0.9-0.4-1.4c0.3-0.5,0.9-0.7,1.4-0.4
			c1.1,0.6,1.5,1.4,1.7,2c0.2,0.5,0,1.1-0.6,1.3C65.2,54.3,65.1,54.4,65,54.4z"/>
	</g>
    <g id="Path_493">
		<path class="st3" d="M84.6,85.4c-0.3,0-0.5-0.1-0.7-0.3c-0.7-0.8-1-1.5-1.2-2.2c-0.1-0.5,0.2-1.1,0.7-1.2c0.5-0.1,1.1,0.2,1.2,0.7
			c0.1,0.5,0.3,0.9,0.7,1.3c0.4,0.4,0.4,1,0,1.4C85.1,85.4,84.9,85.4,84.6,85.4z M82.4,81.1c-0.2,0-0.5-0.1-0.7-0.3
			c0,0-0.1-0.1-0.2-0.1c-0.5-0.4-0.8-0.5-1.1-0.5C80,80,79.6,79.5,79.7,79c0.1-0.5,0.6-0.9,1.2-0.8c0.7,0.1,1.4,0.4,2,1
			c0.1,0.1,0.2,0.1,0.2,0.2c0.4,0.4,0.4,1,0,1.4C82.9,81,82.7,81.1,82.4,81.1z M77.7,79.8c-0.1,0-0.3,0-0.4-0.1
			c-0.4-0.2-0.8-0.4-1.1-0.7c-0.3-0.3-0.6-0.5-0.8-0.8c-0.3-0.4-0.3-1.1,0.2-1.4c0.4-0.3,1.1-0.3,1.4,0.2c0.1,0.2,0.3,0.3,0.5,0.5
			c0.2,0.2,0.4,0.3,0.7,0.4c0.5,0.2,0.7,0.8,0.5,1.3C78.5,79.6,78.1,79.8,77.7,79.8z M75.1,75.8c-0.4,0-0.8-0.2-0.9-0.6
			c-0.1-0.3-0.3-0.7-0.9-1.1c-0.4-0.3-0.5-1-0.2-1.4c0.3-0.4,1-0.5,1.4-0.2c0.7,0.6,1.2,1.2,1.5,2c0.2,0.5-0.1,1.1-0.6,1.3
			C75.3,75.8,75.2,75.8,75.1,75.8z"/>
	</g>
    <g id="Path_494">
		<path class="st3" d="M57.9,97c-0.1,0-0.2,0-0.3,0c-0.5-0.2-0.8-0.7-0.7-1.2c0.2-0.5,0.5-1,0.7-1.4c0.1-0.2,0.3-0.4,0.3-0.5
			c0.3-0.5,0.9-0.7,1.3-0.4c0.5,0.3,0.7,0.9,0.4,1.3c-0.1,0.3-0.3,0.5-0.5,0.8c-0.2,0.3-0.4,0.5-0.4,0.8C58.8,96.8,58.4,97,57.9,97z
			 M58.1,92.8c-0.2,0-0.3,0-0.5-0.1c-0.1-0.1-0.3-0.1-0.4-0.2c-0.5-0.2-1.1-0.5-1.6-1.2c-0.3-0.5-0.2-1.1,0.2-1.4
			c0.5-0.3,1.1-0.2,1.4,0.2c0.1,0.2,0.4,0.3,0.8,0.5c0.2,0.1,0.4,0.2,0.5,0.3c0.5,0.3,0.7,0.9,0.4,1.4
			C58.8,92.6,58.5,92.8,58.1,92.8z M56.9,88.9c-0.2,0-0.4-0.1-0.6-0.2c-0.5-0.3-0.6-0.9-0.3-1.4c0.3-0.4,0.4-0.6,0.4-0.9
			c0-0.1,0-0.1,0-0.2c-0.1-0.5,0.2-1.1,0.7-1.2c0.5-0.1,1.1,0.2,1.2,0.7c0.1,0.2,0.1,0.5,0.1,0.7c0,0.8-0.4,1.5-0.7,2
			C57.5,88.8,57.2,88.9,56.9,88.9z"/>
	</g>
    <g id="Path_495">
		<path class="st3" d="M29.8,92.8c-0.2,0-0.4-0.1-0.6-0.2c-0.4-0.3-0.5-1-0.2-1.4c0.5-0.6,1-0.9,1.4-1.3l0.3-0.2
			c0.4-0.3,1.1-0.2,1.4,0.2c0.3,0.4,0.2,1.1-0.2,1.4l-0.3,0.2c-0.4,0.3-0.7,0.5-1,0.9C30.4,92.7,30.1,92.8,29.8,92.8z M33,89.2
			c-0.1,0-0.2,0-0.3,0c-0.5-0.1-0.8-0.7-0.7-1.2c0.1-0.3,0.1-0.5,0.1-0.7c0-0.2,0-0.5-0.1-0.7c-0.1-0.5,0.2-1.1,0.7-1.2
			c0.5-0.1,1.1,0.2,1.2,0.7c0.1,0.4,0.2,0.8,0.2,1.2c0,0.4-0.1,0.8-0.2,1.3C33.8,88.9,33.4,89.2,33,89.2z M32.5,84.3
			c-0.1,0-0.1,0-0.2,0c-0.5-0.1-0.9-0.6-0.8-1.1c0-0.3,0.1-0.6,0.2-0.9c0.2-0.5,0.4-0.9,0.6-1.3c0.3-0.5,0.9-0.6,1.4-0.3
			c0.5,0.3,0.6,0.9,0.3,1.4c-0.2,0.2-0.3,0.5-0.4,0.8c-0.1,0.2-0.1,0.4-0.2,0.6C33.4,83.9,33,84.3,32.5,84.3z M35.5,80.5
			c-0.3,0-0.5-0.1-0.7-0.3c-0.4-0.4-0.4-1,0-1.4c0.2-0.2,0.5-0.6,0.8-1.3c0.2-0.5,0.7-0.8,1.3-0.6c0.5,0.2,0.8,0.7,0.6,1.3
			c-0.3,0.9-0.7,1.5-1.3,2.1C36,80.4,35.7,80.5,35.5,80.5z"/>
	</g>
    <g id="Path_496">
		<path class="st3" d="M17.4,60.7c-0.3,0-0.6-0.1-0.8-0.4c-0.3-0.4-0.2-1.1,0.2-1.4l0.2-0.1c0.5-0.3,1.1-0.2,1.4,0.3
			c0.3,0.5,0.2,1.1-0.3,1.4L18,60.5C17.8,60.6,17.6,60.7,17.4,60.7z M20.7,60.4c-0.1,0-0.2,0-0.4,0c-0.6,0-1-0.5-0.9-1.1
			c0-0.5,0.5-1,1.1-0.9c0.3,0,0.6,0.1,1.1-0.3c0.4-0.3,1.1-0.3,1.4,0.2c0.3,0.4,0.3,1-0.1,1.4l-0.1,0.1
			C22.1,60.2,21.5,60.4,20.7,60.4z M23.5,57.2c-0.1,0-0.2,0-0.3,0c-0.5-0.1-0.9-0.7-0.7-1.2c0.2-0.6,0.5-1.4,1.5-2.1
			c0.4-0.3,1.1-0.2,1.4,0.2c0.3,0.4,0.2,1.1-0.2,1.4l-0.6-0.8l0.6,0.8c-0.5,0.3-0.6,0.6-0.7,1.1C24.4,56.9,24,57.2,23.5,57.2z
			 M27.9,55.3c-0.2,0-0.3,0-0.5,0c-0.5-0.1-0.9-0.6-0.9-1.1s0.6-0.9,1.1-0.9c0.3,0,0.7,0.1,1.2-0.3c0.4-0.3,1.1-0.2,1.4,0.2
			c0.3,0.4,0.2,1.1-0.2,1.4C29.3,55.1,28.7,55.3,27.9,55.3z"/>
	</g>
    <g id="Path_497">
		<path class="st3" d="M8.1,80.4c-0.3,0-0.6-0.2-0.8-0.4c-0.3-0.5-0.2-1.1,0.3-1.4c0.9-0.6,1.7-0.7,2.4-0.7c0.5,0,1,0.4,1,1
			c0,0.6-0.4,1-1,1c-0.5,0-0.9,0.1-1.4,0.4C8.5,80.3,8.3,80.4,8.1,80.4z M12.8,79.1c-0.3,0-0.6-0.1-0.8-0.4
			c-0.3-0.4-0.2-1.1,0.2-1.4c0,0,0.1-0.1,0.1-0.1c0.4-0.3,0.6-0.6,0.8-1c0.2-0.5,0.8-0.8,1.3-0.6c0.5,0.2,0.8,0.8,0.6,1.3
			c-0.3,0.7-0.7,1.3-1.3,1.8c-0.1,0.1-0.2,0.1-0.2,0.2C13.2,79.1,13,79.1,12.8,79.1z M14.9,74.7c-0.2,0-0.4,0-0.5-0.2
			c-0.5-0.3-0.6-0.9-0.3-1.4c0.2-0.4,0.6-0.8,1-1.1c0.3-0.2,0.6-0.4,0.9-0.6c0.5-0.3,1.1-0.1,1.4,0.4s0.1,1.1-0.4,1.4
			c-0.2,0.1-0.3,0.2-0.5,0.4c-0.2,0.2-0.4,0.4-0.6,0.6C15.6,74.6,15.3,74.7,14.9,74.7z M19.3,72.9c-0.5,0-0.9-0.4-1-0.9
			c-0.1-0.5,0.3-1.1,0.8-1.1c0.3,0,0.8-0.2,1.3-0.6c0.4-0.4,1.1-0.3,1.4,0.1c0.4,0.4,0.3,1.1-0.1,1.4c-0.7,0.6-1.4,0.9-2.3,1.1
			C19.4,72.9,19.4,72.9,19.3,72.9z"/>
	</g>
    <g id="Line_54">
		<path class="st2" d="M29.7,4.7c-0.1,0-0.2,0-0.3,0c-0.1,0-0.2-0.1-0.3-0.1c-0.1,0-0.2-0.1-0.3-0.1c-0.1-0.1-0.2-0.1-0.2-0.2
			c-0.1-0.1-0.1-0.1-0.2-0.2c0-0.1-0.1-0.2-0.1-0.3c0-0.1-0.1-0.2-0.1-0.3c0-0.1,0-0.2,0-0.3s0-0.2,0-0.3c0-0.1,0-0.2,0.1-0.3
			c0-0.1,0.1-0.2,0.1-0.3c0.1-0.1,0.1-0.2,0.2-0.2C28.7,2,28.8,2,28.9,1.9c0.1,0,0.2-0.1,0.3-0.1c0.1,0,0.2-0.1,0.3-0.1
			c0.5-0.1,1,0.1,1.4,0.4c0.1,0.1,0.1,0.1,0.2,0.2C31,2.4,31,2.5,31.1,2.6c0,0.1,0.1,0.2,0.1,0.3c0,0.1,0,0.2,0,0.3s0,0.2,0,0.3
			c0,0.1-0.1,0.2-0.1,0.3C31,3.8,31,3.9,30.9,4c-0.1,0.1-0.1,0.2-0.2,0.2C30.5,4.5,30.1,4.7,29.7,4.7z"/>
	</g>
    <g id="Line_55">
		<path class="st2" d="M5.1,60.4c-0.4,0-0.8-0.2-1.1-0.4c-0.3-0.3-0.4-0.7-0.4-1.1c0-0.1,0-0.2,0-0.3c0-0.1,0-0.2,0.1-0.3
			c0-0.1,0.1-0.2,0.1-0.3C3.9,58,4,57.9,4,57.8c0.6-0.6,1.6-0.6,2.1,0C6.2,57.9,6.3,58,6.3,58c0.1,0.1,0.1,0.2,0.1,0.3
			c0,0.1,0.1,0.2,0.1,0.3c0,0.1,0,0.2,0,0.3c0,0.4-0.2,0.8-0.4,1.1C5.9,60.2,5.5,60.4,5.1,60.4z"/>
	</g>
    <g id="Line_56">
		<path class="st2" d="M22.2,94.7c-0.4,0-0.8-0.2-1.1-0.4c-0.3-0.3-0.4-0.7-0.4-1.1c0-0.4,0.2-0.8,0.4-1.1c0.3-0.3,0.9-0.5,1.4-0.4
			c0.1,0,0.2,0.1,0.3,0.1c0.1,0,0.2,0.1,0.3,0.1c0.1,0.1,0.2,0.1,0.2,0.2c0.3,0.3,0.4,0.7,0.4,1.1c0,0.4-0.2,0.8-0.4,1.1
			C23,94.5,22.6,94.7,22.2,94.7z"/>
	</g>
    <g id="Line_57">
		<path class="st2" d="M76.2,90.8c-0.4,0-0.8-0.2-1.1-0.4c-0.3-0.3-0.4-0.7-0.4-1.1s0.2-0.8,0.4-1.1c0.1-0.1,0.1-0.1,0.2-0.2
			c0.1,0,0.2-0.1,0.3-0.1c0.1,0,0.2-0.1,0.3-0.1c0.5-0.1,1,0.1,1.3,0.4c0.1,0.1,0.1,0.1,0.2,0.2c0,0.1,0.1,0.2,0.1,0.3
			c0,0.1,0.1,0.2,0.1,0.3c0,0.1,0,0.2,0,0.3c0,0.4-0.2,0.8-0.4,1.1C77,90.6,76.6,90.8,76.2,90.8z"/>
	</g>
    <g id="Line_58">
		<path class="st2" d="M1.5,90.8c-0.4,0-0.8-0.2-1.1-0.4C0.2,90.1,0,89.7,0,89.3s0.2-0.8,0.4-1.1c0.6-0.6,1.6-0.6,2.1,0
			C2.8,88.5,3,88.9,3,89.3s-0.2,0.8-0.4,1.1C2.3,90.6,1.9,90.8,1.5,90.8z"/>
	</g>
    <g id="Line_59">
		<path class="st2" d="M17.3,26.8c-0.1,0-0.2,0-0.3,0c-0.1,0-0.2-0.1-0.3-0.1c-0.1,0-0.2-0.1-0.3-0.1c-0.1-0.1-0.2-0.1-0.2-0.2
			c-0.1-0.1-0.1-0.1-0.2-0.2c0-0.1-0.1-0.2-0.1-0.3c0-0.1-0.1-0.2-0.1-0.3c0-0.1,0-0.2,0-0.3s0-0.2,0-0.3c0-0.1,0.1-0.2,0.1-0.3
			c0-0.1,0.1-0.2,0.1-0.3c0.1-0.1,0.1-0.2,0.2-0.2c0.1-0.1,0.1-0.1,0.2-0.2c0.1,0,0.2-0.1,0.3-0.1c0.1,0,0.2-0.1,0.3-0.1
			c0.2,0,0.4,0,0.6,0c0.1,0,0.2,0.1,0.3,0.1c0.1,0,0.2,0.1,0.3,0.1c0.1,0.1,0.2,0.1,0.2,0.2c0.1,0.1,0.1,0.1,0.2,0.2
			c0,0.1,0.1,0.2,0.1,0.3c0,0.1,0.1,0.2,0.1,0.3c0,0.1,0,0.2,0,0.3s0,0.2,0,0.3c0,0.1-0.1,0.2-0.1,0.3c0,0.1-0.1,0.2-0.1,0.3
			c-0.1,0.1-0.1,0.2-0.2,0.2s-0.1,0.1-0.2,0.2c-0.1,0-0.2,0.1-0.3,0.1c-0.1,0-0.2,0.1-0.3,0.1C17.5,26.8,17.4,26.8,17.3,26.8z"/>
	</g>
    <g id="Line_60">
		<path class="st2" d="M86.6,3c-0.1,0-0.2,0-0.3,0c-0.1,0-0.2,0-0.3-0.1c-0.1,0-0.2-0.1-0.3-0.1c-0.1-0.1-0.2-0.1-0.2-0.2
			c-0.3-0.3-0.4-0.7-0.4-1.1c0-0.4,0.2-0.8,0.4-1.1c0.6-0.6,1.6-0.6,2.1,0c0.3,0.3,0.4,0.7,0.4,1.1c0,0.4-0.2,0.8-0.4,1.1
			C87.4,2.8,87,3,86.6,3z"/>
	</g>
    <g id="Line_61">
		<path class="st2" d="M76.2,26.8c-0.4,0-0.8-0.2-1.1-0.4c-0.3-0.3-0.4-0.7-0.4-1.1c0-0.1,0-0.2,0-0.3c0-0.1,0.1-0.2,0.1-0.3
			c0-0.1,0.1-0.2,0.1-0.3c0.1-0.1,0.1-0.2,0.2-0.2c0.6-0.6,1.6-0.6,2.1,0c0.1,0.1,0.1,0.1,0.2,0.2c0,0.1,0.1,0.2,0.1,0.3
			c0,0.1,0.1,0.2,0.1,0.3c0,0.1,0,0.2,0,0.3c0,0.4-0.2,0.8-0.4,1.1C77,26.6,76.6,26.8,76.2,26.8z"/>
	</g>
    <g id="Line_62">
		<path class="st2" d="M2.7,8c-0.1,0-0.2,0-0.3,0c-0.1,0-0.2,0-0.3-0.1C2,7.8,1.9,7.8,1.9,7.7C1.8,7.7,1.7,7.6,1.6,7.5
			C1.4,7.3,1.2,6.9,1.2,6.5c0-0.1,0-0.2,0-0.3c0-0.1,0-0.2,0.1-0.3c0-0.1,0.1-0.2,0.1-0.3c0.1-0.1,0.1-0.2,0.2-0.2
			c0.1-0.1,0.2-0.1,0.2-0.2C1.9,5.2,2,5.1,2.1,5.1C2.2,5.1,2.3,5,2.4,5c0.5-0.1,1,0.1,1.4,0.4c0.1,0.1,0.1,0.1,0.2,0.2
			C4,5.7,4,5.8,4.1,5.9c0,0.1,0.1,0.2,0.1,0.3c0,0.1,0,0.2,0,0.3c0,0.4-0.2,0.8-0.4,1.1C3.5,7.8,3.1,8,2.7,8z"/>
	</g>
    <g id="Line_63">
		<path class="st2" d="M85,63.1c-0.4,0-0.8-0.2-1.1-0.4c-0.3-0.3-0.4-0.7-0.4-1.1c0-0.1,0-0.2,0-0.3c0-0.1,0-0.2,0.1-0.3
			c0-0.1,0.1-0.2,0.1-0.2c0.1-0.1,0.1-0.2,0.2-0.2c0.1-0.1,0.1-0.1,0.2-0.2c0.1,0,0.2-0.1,0.3-0.1c0.1,0,0.2-0.1,0.3-0.1
			c0.5-0.1,1,0.1,1.3,0.4c0.3,0.3,0.4,0.7,0.4,1.1c0,0.4-0.2,0.8-0.4,1.1C85.8,62.9,85.4,63.1,85,63.1z"/>
	</g>
    <g id="Path_487">
		<path class="st1" d="M45.3,56.2C45.3,56.2,45.3,56.2,45.3,56.2c-7.6-0.1-13.6-6.3-13.5-13.8V24.5c0-1.8,1.4-3.2,3.2-3.4
			c0,0,0.1,0,0.1,0h20.4c1.9,0,3.3,1.5,3.3,3.4v17.9c0.1,3.7-1.3,7.2-3.9,9.8C52.3,54.8,48.9,56.2,45.3,56.2z M35.2,24.1
			c-0.2,0-0.4,0.2-0.4,0.4v17.9c-0.1,5.9,4.6,10.7,10.5,10.8c2.8,0,5.5-1.1,7.4-3.1c2-2,3.1-4.8,3.1-7.7V24.5c0-0.2-0.1-0.4-0.3-0.4
			H35.2z"/>
	</g>
</g>
</svg>
