<?xml version="1.0" encoding="utf-8"?>
<!-- Generator: Adobe Illustrator 26.0.2, SVG Export Plug-In . SVG Version: 6.00 Build 0)  -->
<svg id="Layer_1" style="enable-background:new 0 0 48 48;" version="1.1" viewBox="0 0 48 48" x="0px"
     xml:space="preserve"
     xmlns="http://www.w3.org/2000/svg" xmlns:xlink="http://www.w3.org/1999/xlink" y="0px">
<style type="text/css">
	.st0 {
    fill: #FFE000;
  }

  .st1 {
    fill: #0045AA;
  }

  .st2 {
    fill: #2E85ED;
  }

  .st3 {
    fill: #002567;
  }

  .st4 {
    fill: #6B6B6B;
  }
</style>
  <g transform="matrix(2,0,0,2,0,0)">
	<circle class="st0" cx="12" cy="13" r="7"/>
    <path class="st1" d="M19.5,9.5c2.2,0,4,1.8,4,4c0,1.7-1.1,3.2-2.7,3.8c-0.5,0.2-1.1-0.1-1.3-0.6c0-0.1-0.1-0.2-0.1-0.3V9.5H19.5z
		 M4.5,9.5c-2.2,0-4,1.8-4,4c0,1.7,1.1,3.2,2.7,3.8c0.5,0.2,1.1-0.1,1.3-0.6c0-0.1,0.1-0.2,0.1-0.3L4.5,9.5L4.5,9.5z"/>
    <path class="st2" d="M23.3,14.8c0.7-2.1-0.5-4.4-2.5-5c-0.4-0.1-0.8-0.2-1.3-0.2V12C21.2,12,22.8,13.1,23.3,14.8z M0.5,13.5
		c0,0.4,0.1,0.8,0.2,1.2C1.2,13.1,2.8,12,4.5,12V9.5C2.3,9.5,0.5,11.3,0.5,13.5z"/>
    <g>
		<path class="st3" d="M17,23h-1c-0.3,0-0.5-0.2-0.5-0.5S15.7,22,16,22h1c1.5,0,3-0.8,3-2.5v-2.2c0-0.3,0.2-0.5,0.5-0.5
			S21,17,21,17.3v2.2C21,21.6,19.4,23,17,23z"/>
	</g>
    <g>
		<path class="st3" d="M20.5,17.9c-0.6,0-1.2-0.4-1.4-1v-0.1C19,16.7,19,16.6,19,16.4V9.5C19,9.2,19.2,9,19.5,9h0.1
			C22,9,24,11,24,13.5c0,1.9-1.2,3.6-3,4.3C20.8,17.8,20.6,17.9,20.5,17.9z M20,16.6c0.1,0.2,0.4,0.4,0.6,0.3C22,16.3,23,15,23,13.5
			c0-1.8-1.4-3.3-3.1-3.5v6.3C19.9,16.4,20,16.5,20,16.6z M19,16.7L19,16.7L19,16.7z M3.5,17.9c-0.2,0-0.4,0-0.5-0.1
			c-1.8-0.7-3-2.4-3-4.3C0,11,2,9,4.5,9C4.8,9,5,9.2,5,9.5l0.1,6.9c0,0.2-0.1,0.3-0.1,0.4l0,0v0.1c-0.1,0.4-0.4,0.7-0.8,0.8
			C4,17.8,3.7,17.9,3.5,17.9z M4,10c-1.7,0.2-3,1.7-3,3.5c0,1.5,1,2.8,2.4,3.3c0.2,0.1,0.3,0,0.4,0c0.1,0,0.2-0.1,0.2-0.2
			s0.1-0.2,0.1-0.2L4,10z M5,16.7L5,16.7L5,16.7z"/>
	</g>
    <g>
		<path class="st3" d="M19.4,11.6c-0.2,0-0.4-0.2-0.4-0.4v-2c0-3.8-3.2-7.1-7-7.1S5,5.3,5,9.2v2c0,0.2-0.2,0.4-0.4,0.4
			s-0.4-0.2-0.4-0.4v-2c0-4.3,3.6-7.9,7.9-7.9S20,4.9,20,9.2v2C19.8,11.4,19.6,11.6,19.4,11.6z"/>
	</g>
    <g>
		<path class="st4" d="M11.5,21.5h4c0.3,0,0.5,0.2,0.5,0.5v1c0,0.3-0.2,0.5-0.5,0.5h-4c-0.6,0-1-0.4-1-1l0,0
			C10.5,21.9,10.9,21.5,11.5,21.5z"/>
      <path class="st3" d="M15.5,24h-4c-0.9,0-1.5-0.6-1.5-1.5s0.6-1.5,1.5-1.5h4c0.6,0,1,0.4,1,1v1C16.5,23.6,16.1,24,15.5,24z
			 M11.5,22c-0.3,0-0.5,0.2-0.5,0.5s0.2,0.5,0.5,0.5h4v-1H11.5z"/>
	</g>
    <g>
		<path class="st3" d="M12,17.6C11.9,17.6,11.9,17.5,12,17.6c-1.4,0-2.6-0.6-3.5-1.5c-0.2-0.2-0.2-0.5,0-0.7s0.5-0.2,0.7,0
			c0.7,0.8,1.7,1.2,2.7,1.2c0,0,0,0,0.1,0c1.1,0,2.1-0.4,2.9-1.2c0.2-0.2,0.5-0.2,0.7,0s0.2,0.5,0,0.7C14.6,17,13.3,17.6,12,17.6z
			 M15.2,11.6c-0.4,0-0.7-0.3-0.7-0.7s0.3-0.7,0.7-0.7s0.7,0.3,0.7,0.7S15.6,11.6,15.2,11.6z M9.2,11.6c-0.4,0-0.7-0.3-0.7-0.7
			s0.3-0.7,0.7-0.7s0.7,0.3,0.7,0.7S9.5,11.6,9.2,11.6z"/>
	</g>
</g>
</svg>
