<?xml version="1.0" encoding="utf-8"?>
<!-- Generator: Adobe Illustrator 26.0.2, SVG Export Plug-In . SVG Version: 6.00 Build 0)  -->
<svg id="Layer_1" style="enable-background:new 0 0 48 48;" version="1.1" viewBox="0 0 48 48" x="0px"
     xml:space="preserve"
     xmlns="http://www.w3.org/2000/svg" xmlns:xlink="http://www.w3.org/1999/xlink" y="0px">
<style type="text/css">
	.st0 {
    fill: #E3E3E3;
  }

  .st1 {
    fill: #FFFFFF;
  }

  .st2 {
    fill: #002567;
  }

  .st3 {
    fill: #29ED29;
  }

  .st4 {
    fill: #78EB7B;
  }

  .st5 {
    fill: #C9F7CA;
  }

  .st6 {
    fill: none;
  }
</style>
  <g transform="matrix(2,0,0,2,0,0)">
	<path class="st0" d="M23.5,17.1c0,0.3-0.1,0.5-0.3,0.7l-5.4,5.4c-0.2,0.2-0.4,0.3-0.7,0.3H1.5c-0.6,0-1-0.4-1-1v-21
		c0-0.6,0.4-1,1-1h21c0.6,0,1,0.4,1,1V17.1z"/>
    <path class="st1" d="M22.5,0.5h-21c-0.6,0-1,0.4-1,1v21c0,0.2,0.1,0.4,0.2,0.6L23.1,0.7C22.9,0.6,22.7,0.5,22.5,0.5z"/>
    <g>
		<path class="st2" d="M17.1,24H1.5C0.7,24,0,23.3,0,22.5v-21C0,0.7,0.7,0,1.5,0h21C23.3,0,24,0.7,24,1.5v15.6
			c0,0.4-0.2,0.8-0.4,1.1l-5.4,5.4C17.9,23.8,17.5,24,17.1,24z M1.5,1C1.2,1,1,1.2,1,1.5v21C1,22.8,1.2,23,1.5,23h15.6
			c0.1,0,0.3-0.1,0.4-0.1l5.4-5.4c0.1-0.1,0.1-0.2,0.1-0.4V1.5C23,1.2,22.8,1,22.5,1H1.5z"/>
	</g>
    <g>
		<path class="st3" d="M17.1,13.5c-0.3,0-0.6-0.1-0.8-0.4l-1.1-1.3c-0.2-0.2-0.2-0.5,0-0.7s0.5-0.2,0.7,0l1.2,1.3l3.1-2.8
			c0.2-0.2,0.5-0.2,0.7,0s0.2,0.5,0,0.7l-3.1,2.9c0,0-0.1,0-0.1,0.1C17.5,13.4,17.3,13.5,17.1,13.5z M17.1,7.5
			c-0.3,0-0.6-0.1-0.8-0.4l-1.1-1.3c-0.2-0.2-0.2-0.5,0-0.7s0.5-0.2,0.7,0L17,6.5l3.1-2.8c0.2-0.2,0.5-0.2,0.7,0s0.2,0.5,0,0.7
			l-3.1,2.9c0,0-0.1,0-0.1,0.1C17.5,7.4,17.3,7.5,17.1,7.5z"/>
	</g>
    <g>
		<path class="st1"
          d="M23.4,17.5c0,0.1-0.1,0.2-0.2,0.3l-5.4,5.4c-0.1,0.1-0.2,0.1-0.3,0.2v-4.9c0-0.6,0.4-1,1-1H23.4z"/>
      <path class="st2" d="M17.5,23.9c-0.1,0-0.2,0-0.3-0.1c-0.1-0.1-0.2-0.2-0.2-0.4v-4.9c0-0.8,0.7-1.5,1.5-1.5h4.9
			c0.2,0,0.3,0.1,0.4,0.2s0.1,0.3,0.1,0.5c-0.1,0.2-0.2,0.3-0.3,0.5l-5.4,5.4c-0.1,0.1-0.3,0.2-0.5,0.3
			C17.6,23.9,17.6,23.9,17.5,23.9z M18.5,18c-0.3,0-0.5,0.2-0.5,0.5v3.8l4.3-4.3H18.5z"/>
	</g>
    <g>
		<path class="st2" d="M17.5,23.9c-0.3,0-0.5-0.2-0.5-0.5l0,0c0-0.3,0.2-0.5,0.5-0.5s0.5,0.2,0.5,0.5S17.8,23.9,17.5,23.9z M23.4,18
			L23.4,18c-0.3,0-0.5-0.2-0.5-0.5s0.2-0.5,0.5-0.5s0.5,0.2,0.5,0.5S23.7,18,23.4,18z"/>
	</g>
</g>
  <g transform="matrix(2,0,0,2,0,0)">
	<path class="st4" d="M11.6,7.5c0,2.3-1.9,4.2-4.2,4.2l0,0c-2.3-0.1-4.2-1.9-4.2-4.3c0-2.3,1.8-4.1,4-4.1c0.1,0,0.1,0,0.2,0
		C9.8,3.3,11.6,5.2,11.6,7.5C11.6,7.4,11.6,7.5,11.6,7.5z"/>
    <path class="st5" d="M7.3,3.3c-2.3,0.1-4,1.9-4,4.1c0,0.6,0.1,1.4,0.5,1.9C4.4,9.6,5,9.7,5.6,9.7c2.3,0,4.2-1.9,4.2-4.2
		c0-0.6-0.1-1.2-0.4-1.8C8.7,3.4,8.1,3.3,7.3,3.3L7.3,3.3z"/>
    <g>
		<path class="st2" d="M7.4,12c-2.5-0.1-4.5-2.1-4.5-4.6C2.9,5,4.9,3,7.3,3c0.1,0,0.1,0,0.2,0C10,3,12,5,12,7.5v0.1
			C12,9.9,10,12,7.4,12z M7.5,3.6c-0.1,0-0.1,0-0.2,0c-2,0.1-3.7,1.8-3.7,3.8c0,2.1,1.7,3.9,3.9,3.9s3.9-1.7,3.9-3.9l0,0l0,0
			C11.3,5.4,9.6,3.6,7.5,3.6z M12,7.5L12,7.5L12,7.5z"/>
	</g>
    <g>
		<path class="st2" d="M7.3,11.9c-0.1,0-0.2,0-0.3-0.1c-1-1.4-1.5-2.7-1.7-4.1H3.2C3,7.7,3,7.6,3,7.4s0-0.3,0.2-0.3h2.1
			C5.3,5.6,5.9,4.2,7,3c0.1,0,0.3,0,0.4,0c0.2,0,0.4,0,0.5,0.1C9,4.3,9.6,5.7,9.6,7.2h2.1c0.2,0,0.1,0.1,0.1,0.3
			c0,0.2,0.1,0.3-0.1,0.3H9.6C9.5,9.2,9,10.5,8,11.9c-0.1,0-0.2,0.1-0.5,0.1C7.4,12,7.3,11.9,7.3,11.9z M6,7.8
			c0.1,1.2,0.6,2.4,1.5,3.6C8.3,10.2,8.8,9,8.9,7.8H6z M6,7.2h3c0-1.3-0.5-2.5-1.5-3.6C6.5,4.6,6,5.9,6,7.2z"/>
	</g>
</g>
  <g>
	<line class="st6" x1="23.2" x2="7" y1="28.1" y2="28.1"/>
    <path class="st2" d="M23.2,29.1H7c-0.6,0-1-0.4-1-1s0.4-1,1-1h16.2c0.6,0,1,0.4,1,1S23.8,29.1,23.2,29.1z"/>
</g>
  <g>
	<line class="st6" x1="23.2" x2="7" y1="34.1" y2="34.1"/>
    <path class="st2" d="M23.2,35.1H7c-0.6,0-1-0.4-1-1s0.4-1,1-1h16.2c0.6,0,1,0.4,1,1S23.8,35.1,23.2,35.1z"/>
</g>
  <g>
	<line class="st6" x1="23.2" x2="7" y1="40" y2="40"/>
    <path class="st2" d="M23.2,41H7c-0.6,0-1-0.4-1-1s0.4-1,1-1h16.2c0.6,0,1,0.4,1,1S23.8,41,23.2,41z"/>
</g>
</svg>
