<?xml version="1.0" encoding="utf-8"?>
<!-- Generator: Adobe Illustrator 26.1.0, SVG Export Plug-In . SVG Version: 6.00 Build 0)  -->
<svg style="enable-background:new 0 0 567.4 85;" version="1.1" viewBox="0 0 567.4 85" x="0px" xml:space="preserve"
     xmlns="http://www.w3.org/2000/svg" xmlns:xlink="http://www.w3.org/1999/xlink" y="0px">
<style type="text/css">
	.st0 {
    fill: #FFFFFF;
  }

  .st1 {
    fill: url(#SVGID_1_);
  }

  .st2 {
    opacity: 0.26;
    fill: #FFFFFF;
  }

  .st3 {
    fill: #C1CED3;
  }

  .st4 {
    fill: #9BF315;
  }

  .st5 {
    fill: #01B5FF;
  }

  .st6 {
    fill: none;
    stroke: #000000;
    stroke-width: 0.5782;
    stroke-linecap: round;
    stroke-linejoin: round;
    stroke-miterlimit: 10;
  }

  .st7 {
    fill: none;
    stroke: #000000;
    stroke-width: 0.5782;
    stroke-miterlimit: 10;
  }

  .st8 {
    opacity: 0.35;
    fill: #FFFFFF;
  }

  .st9 {
    opacity: 0.45;
    fill: #FFFFFF;
  }

  .st10 {
    opacity: 0.8;
    fill: #FFFFFF;
  }

  .st11 {
    opacity: 7.000000e-02;
    fill: #FFFFFF;
  }

  .st12 {
    opacity: 0.1;
    fill: #FFFFFF;
  }
</style>
  <g id="Words">
	<g>
		<path class="st0" d="M144,69h-14.2l-18-31.5V69H98.3V16.5h14.2l18,31.5V16.5H144V69z"/>
    <path class="st0" d="M188,69h-37V22.4h37v9.3h-25v9h19.7V50H163v9.7h25V69z"/>
    <path class="st0" d="M218,69h-12V31.7h-14v-9.3h40v9.3h-14V69z"/>
    <path class="st0" d="M250.6,69h-13.5V16.5h41.6V27h-28.1v12.4h22.1v10.5h-22.1V69z"/>
    <path class="st0" d="M325.5,56.3c0,4.7-1.1,8.1-3.2,10.2c-2.1,2.1-5.5,3.2-10.2,3.2h-16.7c-4.7,0-8.1-1.1-10.2-3.2
			c-2.1-2.1-3.2-5.5-3.2-10.2V35c0-4.7,1.1-8.1,3.2-10.2c2.1-2.1,5.5-3.2,10.2-3.2h16.7c4.7,0,8.1,1.1,10.2,3.2
			c2.1,2.1,3.2,5.5,3.2,10.2V56.3z M313.5,35c0-2.7-1.3-4-4-4h-11.3c-2.7,0-4,1.3-4,4v21.3c0,2.7,1.3,4,4,4h11.3c2.7,0,4-1.3,4-4V35
			z"/>
    <path class="st0" d="M362.1,22.4h12v34c0,4.7-1.1,8.1-3.2,10.2c-2.1,2.1-5.5,3.2-10.2,3.2h-15.3c-4.7,0-8.1-1.1-10.2-3.2
			c-2.1-2.1-3.2-5.5-3.2-10.2v-34h12v34c0,2.7,1.3,4,4,4h10c2.7,0,4-1.3,4-4V22.4z"/>
    <path class="st0" d="M422.1,69h-12.7l-16-28v28h-12V22.4h12.7l16,28v-28h12V69z"/>
    <path class="st0" d="M455.4,22.4c5,0,8.8,1.3,11.4,3.9c2.6,2.6,3.9,6.4,3.9,11.4v16c0,5-1.3,8.8-3.9,11.4
			c-2.6,2.6-6.4,3.9-11.4,3.9h-26V22.4H455.4z M458.8,37.7c0-4-2-6-6-6h-11.3v28h11.3c4,0,6-2,6-6V37.7z"/>
    <path class="st0" d="M477.4,22.4h28c4.7,0,8.1,1.1,10.2,3.2c2.1,2.1,3.2,5.5,3.2,10.2v6c0,3.7-0.6,6.6-1.8,8.6
			c-1.2,2-3.2,3.4-5.8,4.1l8.3,14.7h-13l-7.7-14h-9.3v14h-12V22.4z M506.7,35.7c0-2.7-1.3-4-4-4h-13.3v14h13.3c2.7,0,4-1.3,4-4V35.7
			z"/>
    <path class="st0" d="M520.1,22.4h12.7l11,22.7l11-22.7h12.7l-17.7,34.3V69h-12V56.7L520.1,22.4z"/>
	</g>
    <g>
		<path class="st0" d="M559.5,69.2h-1.2v-3.7h-1.4v-0.9h4v0.9h-1.4V69.2z"/>
      <path class="st0" d="M565.2,66.6l-0.9,1.7h-0.9l-0.9-1.7v2.6h-1.2v-4.7h1.3l1.3,2.5l1.3-2.5h1.3v4.7h-1.2V66.6z"/>
	</g>
</g>
  <g id="Logo_Mark">
	<linearGradient gradientUnits="userSpaceOnUse" id="SVGID_1_" x1="7.1864" x2="80.4189" y1="7.1864" y2="80.4189">
		<stop offset="0" style="stop-color:#026CFF"/>
    <stop offset="1" style="stop-color:#0545B8"/>
	</linearGradient>
    <circle class="st1" cx="42.5" cy="42.5" r="42.5"/>
    <polygon class="st2" points="10.8,23.7 10.8,60.6 43,79.2 75.1,60.7 75.1,23.8 42.9,5.2 	"/>
    <polyline class="st3" points="58.8,33 42.9,42.1 27.1,33 27.1,14.3 42.8,5.2 58.7,14.3 58.8,33 42.9,42.1 	"/>
    <polyline class="st4" points="59.4,69.8 75.1,60.7 75.1,42.1 58.8,32.9 42.9,42.1 42.9,60.4 	"/>
    <polyline class="st5" points="42.9,42.1 27.1,32.9 10.8,42.1 10.8,60.7 27.1,70.1 42.9,60.4 	"/>
    <path class="st6" d="M58.8,51.2"/>
    <path class="st7" d="M27.1,51.2"/>
    <polygon class="st8" points="27.1,32.9 42.9,42.1 42.9,60.4 27.1,51.2 	"/>
    <polygon class="st9" points="58.8,32.9 58.8,51.2 42.9,60.4 42.9,42.1 	"/>
    <polygon class="st10" points="42.9,23.8 27.1,32.9 42.9,42.1 58.8,32.9 	"/>
    <polygon class="st11" points="10.8,23.7 42.8,5.2 75.1,23.7 42.9,42.1 	"/>
    <polygon class="st12" points="10.8,60.6 43,79.2 42.9,42.1 10.8,23.7 	"/>
</g>
</svg>
