<?xml version="1.0" encoding="utf-8"?>
<!-- Generator: Adobe Illustrator 27.0.1, SVG Export Plug-In . SVG Version: 6.00 Build 0)  -->
<svg id="Layer_1" style="enable-background:new 0 0 24 24;" version="1.1" viewBox="0 0 24 24" x="0px"
     xml:space="preserve"
     xmlns="http://www.w3.org/2000/svg" xmlns:xlink="http://www.w3.org/1999/xlink" y="0px">
<style type="text/css">
	.st0 {
    fill: #FFFFFF;
  }

  .st1 {
    fill: #E4F1F5;
  }

  .st2 {
    fill: none;
    stroke: #032467;
    stroke-width: 0.75;
    stroke-linecap: round;
    stroke-linejoin: round;
  }

  .st3 {
    fill: #65E1FF;
    stroke: #032467;
    stroke-width: 0.75;
    stroke-linecap: round;
    stroke-linejoin: round;
  }
</style>
  <path class="st0" d="M12,23.5c6.4,0,11.5-5.1,11.5-11.5S18.4,0.5,12,0.5S0.5,5.6,0.5,12S5.6,23.5,12,23.5z"/>
  <path class="st1" d="M12,20.5c-2.8,0-5.5-1-7.6-2.9c-2.1-1.8-3.5-4.4-3.8-7.1c-0.2,1.6-0.1,3.1,0.3,4.7c0.4,1.5,1.2,2.9,2.2,4.1
	c1,1.2,2.2,2.2,3.6,2.9c1.4,0.7,2.9,1.1,4.5,1.2s3.1-0.1,4.6-0.6s2.8-1.4,4-2.4c1.1-1.1,2.1-2.4,2.7-3.8s0.9-3,0.9-4.6
	c0-0.5,0-1-0.1-1.5c-0.4,2.8-1.7,5.3-3.8,7.1C17.5,19.5,14.8,20.5,12,20.5z"/>
  <path class="st2" d="M12,23.5c6.4,0,11.5-5.1,11.5-11.5S18.4,0.5,12,0.5S0.5,5.6,0.5,12S5.6,23.5,12,23.5z"/>
  <path class="st3" d="M9.2,16.1c-0.1,0-0.2,0.1-0.2,0.1c-0.1,0-0.2,0-0.2-0.1c-0.1,0-0.1-0.1-0.2-0.2c0-0.1-0.1-0.2-0.1-0.2V8.3
	c0-0.1,0-0.2,0.1-0.2C8.6,8,8.7,8,8.8,7.9C8.9,7.9,9,7.8,9,7.8c0.1,0,0.2,0,0.2,0.1l7.4,3.7c0.1,0,0.2,0.1,0.2,0.2
	c0,0.1,0.1,0.2,0.1,0.3s0,0.2-0.1,0.3c0,0.1-0.1,0.1-0.2,0.2L9.2,16.1z"/>
</svg>
