<svg fill="none" height="24" viewBox="0 0 24 24" width="24" xmlns="http://www.w3.org/2000/svg">
  <path d="M12 23.5C18.3513 23.5 23.5 18.3513 23.5 12C23.5 5.64873 18.3513 0.5 12 0.5C5.64873 0.5 0.5 5.64873 0.5 12C0.5 18.3513 5.64873 23.5 12 23.5Z"
        fill="#ffffff"></path>
  <path d="M12 20.5C9.21012 20.4996 6.51553 19.485 4.41821 17.6452C2.3209 15.8055 0.96389 13.266 0.599993 10.5C0.392797 12.0609 0.508369 13.6478 0.939549 15.1622C1.37073 16.6767 2.10833 18.0865 3.10664 19.3042C4.10495 20.5219 5.3427 21.5216 6.74319 22.2414C8.14368 22.9612 9.67707 23.3857 11.2483 23.4886C12.8196 23.5915 14.3953 23.3707 15.8777 22.8397C17.3601 22.3088 18.7177 21.4791 19.8663 20.402C21.0149 19.3249 21.9301 18.0234 22.5552 16.5781C23.1802 15.1329 23.5018 13.5746 23.5 12C23.4991 11.4984 23.4657 10.9973 23.4 10.5C23.0361 13.266 21.6791 15.8055 19.5818 17.6452C17.4845 19.485 14.7899 20.4996 12 20.5Z"
        fill="#E4F1F5"></path>
  <path d="M12 23.499C18.3513 23.499 23.5 18.3503 23.5 11.999C23.5 5.64773 18.3513 0.499001 12 0.499001C5.64873 0.499001 0.5 5.64773 0.5 11.999C0.5 18.3503 5.64873 23.499 12 23.499Z" stroke="#002567" stroke-linecap="round"
        stroke-linejoin="round"></path>
  <path d="M9.224 16.137C9.14777 16.1752 9.06304 16.1933 8.97786 16.1895C8.89268 16.1857 8.80988 16.1602 8.73733 16.1154C8.66478 16.0706 8.60489 16.008 8.56335 15.9336C8.52181 15.8591 8.5 15.7753 8.5 15.69V8.308C8.5 8.22273 8.52181 8.13889 8.56335 8.06442C8.60489 7.98996 8.66478 7.92736 8.73733 7.88257C8.80988 7.83778 8.89268 7.81228 8.97786 7.8085C9.06304 7.80473 9.14777 7.8228 9.224 7.861L16.606 11.552C16.6889 11.5936 16.7587 11.6574 16.8074 11.7363C16.8562 11.8153 16.882 11.9062 16.882 11.999C16.882 12.0918 16.8562 12.1827 16.8074 12.2617C16.7587 12.3406 16.6889 12.4044 16.606 12.446L9.224 16.137Z" fill="#78EB7B" stroke="#002567" stroke-linecap="round"
        stroke-linejoin="round"></path>
</svg>
