<?xml version="1.0" encoding="utf-8"?>
<!-- Generator: Adobe Illustrator 26.0.2, SVG Export Plug-In . SVG Version: 6.00 Build 0)  -->
<svg id="Layer_1" style="enable-background:new 0 0 48 48;" version="1.1" viewBox="0 0 48 48" x="0px"
     xml:space="preserve"
     xmlns="http://www.w3.org/2000/svg" xmlns:xlink="http://www.w3.org/1999/xlink" y="0px">
<style type="text/css">
	.st0 {
    fill: #66E1FF;
  }

  .st1 {
    fill: #C2F3FF;
  }

  .st2 {
    fill: #FFDDA1;
  }

  .st3 {
    fill: #002567;
  }

  .st4 {
    fill: #FFFFFF;
  }
</style>
  <g transform="matrix(2,0,0,2,0,0)">
	<path class="st0" d="M2,0.5h20c0.8,0,1.5,0.7,1.5,1.5v15c0,0.8-0.7,1.5-1.5,1.5H2c-0.8,0-1.5-0.7-1.5-1.5V2C0.5,1.2,1.2,0.5,2,0.5z
		"/>
    <path class="st1" d="M22,0.5H2C1.2,0.5,0.5,1.2,0.5,2v15c0,0.8,0.7,1.5,1.5,1.5h2.2l18-18C22.2,0.5,22.1,0.5,22,0.5z"/>
    <path class="st2" d="M22.5,23.5v-2.7c0-1.8-1.5-3.3-3.3-3.3h-1.7V13c0-0.8-0.7-1.5-1.5-1.5c-0.8,0-1.5,0.7-1.5,1.5v7l-1.3-1.1
		c-0.4-0.5-1.2-0.6-1.8-0.2c-0.5,0.4-0.6,1.2-0.2,1.8l2.5,3"/>
    <g>
		<path class="st3" d="M9,19H2c-1.1,0-2-1-2-2.1V2.1C0,1,0.9,0,2,0h20c1.1,0,2,1,2,2.1v14.8c0,0.3-0.2,0.5-0.5,0.5S23,17.2,23,16.9
			V2.1C23,1.5,22.6,1,22,1H2C1.4,1,1,1.5,1,2.1v14.8C1,17.5,1.4,18,2,18h7c0.3,0,0.5,0.2,0.5,0.5S9.3,19,9,19z M5.5,16
			C5.2,16,5,15.8,5,15.5V15H3.5C3.2,15,3,14.8,3,14.5S3.2,14,3.5,14H5v-0.5C5,13.2,5.2,13,5.5,13S6,13.2,6,13.5V14h6.5
			c0.3,0,0.5,0.2,0.5,0.5S12.8,15,12.5,15H6v0.5C6,15.8,5.8,16,5.5,16z M20.5,15h-1c-0.3,0-0.5-0.2-0.5-0.5s0.2-0.5,0.5-0.5h1
			c0.3,0,0.5,0.2,0.5,0.5S20.8,15,20.5,15z"/>
	</g>
    <path class="st4" d="M8,7.1V4.4C8,4,8.3,3.7,8.6,3.7c0.1,0,0.2,0,0.3,0.1l5.9,2.7c0.3,0.2,0.4,0.6,0.2,0.9
		c-0.1,0.1-0.1,0.2-0.2,0.2L9,10.4c-0.3,0.2-0.7,0.1-0.9-0.2C8,10.1,8,10,8,9.9V7.1z"/>
    <g>
		<path class="st3" d="M13.8,24c-0.1,0-0.3-0.1-0.4-0.2l-2.5-3c-0.6-0.7-0.5-1.8,0.2-2.5c0.7-0.6,1.8-0.5,2.4,0.2l0.4,0.4V13
			c0-1.1,0.9-2,2-2s2,0.9,2,2v4h1.2c2.1,0,3.8,1.7,3.8,3.8v2.7c0,0.3-0.2,0.5-0.5,0.5S22,23.8,22,23.5v-2.7c0-1.6-1.3-2.8-2.8-2.8
			h-1.7c-0.3,0-0.5-0.2-0.5-0.5V13c0-0.6-0.4-1-1-1s-1,0.4-1,1v7c0,0.2-0.1,0.4-0.3,0.5s-0.4,0.1-0.5-0.1l-1.3-1.1c0,0,0,0-0.1-0.1
			c-0.3-0.3-0.7-0.4-1.1-0.1c-0.3,0.3-0.4,0.7-0.1,1.1l2.5,3c0.2,0.2,0.1,0.5-0.1,0.7C14,24,13.9,24,13.8,24z M8.6,11
			c-0.1,0-0.2,0-0.3,0c-0.3-0.1-0.5-0.3-0.7-0.5c-0.1-0.2-0.2-0.4-0.2-0.6V4.4c0-0.6,0.5-1.1,1.1-1.1c0.2,0,0.4,0.1,0.6,0.1L15,6.1
			l0,0c0.3,0.2,0.4,0.4,0.5,0.7c0.1,0.3,0,0.6-0.1,0.9C15.3,7.9,15.2,8,15,8.1l0,0l-5.9,2.7C9,11,8.8,11,8.6,11z M8.6,4.2
			c-0.1,0-0.1,0.1-0.1,0.1v5.5v0.1c0,0.1,0.1,0.1,0.2,0l0,0l5.9-2.7l0,0V7.1c0,0,0-0.1-0.1-0.1L8.8,4.3C8.8,4.3,8.7,4.3,8.6,4.2
			C8.7,4.3,8.7,4.2,8.6,4.2z"/>
	</g>
</g>
</svg>
