<?xml version="1.0" encoding="utf-8"?>
<!-- Generator: Adobe Illustrator 26.0.2, SVG Export Plug-In . SVG Version: 6.00 Build 0)  -->
<svg id="Layer_1" style="enable-background:new 0 0 48 48;" version="1.1" viewBox="0 0 48 48" x="0px"
     xml:space="preserve"
     xmlns="http://www.w3.org/2000/svg" xmlns:xlink="http://www.w3.org/1999/xlink" y="0px">
<style type="text/css">
	.st0 {
    fill: #66E1FF;
  }

  .st1 {
    fill: #C2F3FF;
  }

  .st2 {
    fill: #FF808C;
  }

  .st3 {
    fill: #FFBFC5;
  }

  .st4 {
    fill: #002567;
  }

  .st5 {
    fill: #FFFFFF;
  }
</style>
  <g transform="matrix(2,0,0,2,0,0)">
	<circle class="st0" cx="12" cy="12" r="11.5"/>
    <path class="st1" d="M3.9,20.1c-4.5-4.5-4.5-11.8,0-16.3s11.8-4.5,16.3,0L3.9,20.1z"/>
    <path class="st2" d="M14.5,14.5l-5-5l-3,7.4c-0.1,0.3,0,0.5,0.3,0.7c0.1,0.1,0.3,0.1,0.4,0L14.5,14.5z"/>
    <path class="st3" d="M9.5,9.5l-3,7.4c-0.1,0.2,0,0.4,0.1,0.5L12,12L9.5,9.5z"/>
    <g>
		<path class="st4" d="M12,24C5.4,24,0,18.6,0,12S5.4,0,12,0s12,5.4,12,12S18.6,24,12,24z M12,1C5.9,1,1,5.9,1,12s4.9,11,11,11
			s11-4.9,11-11S18.1,1,12,1z"/>
	</g>
    <path class="st5" d="M9.5,9.5l7.4-3c0.3-0.1,0.5,0,0.7,0.3c0.1,0.1,0.1,0.3,0,0.4l-3,7.4L9.5,9.5z"/>
    <g>
		<path class="st4" d="M14.5,15c-0.1,0-0.3-0.1-0.4-0.1l-5-5C9,9.7,9,9.6,9,9.4C9,9.2,9.2,9.1,9.3,9l7.4-3c0.5-0.2,1,0,1.3,0.5
			c0.1,0.1,0.2,0.3,0.2,0.5s-0.1,0.3-0.1,0.5L15,14.7C14.9,14.8,14.8,15,14.5,15C14.6,15,14.5,15,14.5,15z M10.4,9.7l3.9,3.9L17.1,7
			l0,0l0,0L10.4,9.7z M17.2,7.2L17.2,7.2L17.2,7.2z M17.2,6.8L17.2,6.8L17.2,6.8z"/>
	</g>
    <g>
		<path class="st4" d="M7,18.2c-0.2,0-0.4-0.1-0.5-0.2C6,17.7,5.9,17.2,6,16.7l3-7.4C9.1,9.2,9.2,9,9.4,9s0.3,0,0.5,0.1l5,5
			c0.1,0.1,0.2,0.3,0.1,0.4s-0.1,0.3-0.3,0.4L7.5,18C7.3,18.1,7.2,18.2,7,18.2z M7.2,17.2L7.2,17.2L7.2,17.2z M6.8,17.2L6.8,17.2
			L6.8,17.2z M7,17.1L7,17.1l6.7-2.8l-3.9-3.9L7,17.1L7,17.1L7,17.1z"/>
	</g>
</g>
  <g>
	<path class="st4" d="M23.6,44c-0.6,0-1-0.4-1-1v-2c0-0.6,0.4-1,1-1s1,0.4,1,1v2C24.6,43.6,24.2,44,23.6,44z M37.1,38.4
		c-0.2,0-0.5-0.1-0.7-0.3l-1.5-1.4c-0.4-0.4-0.4-1,0-1.4s1-0.4,1.4,0l1.5,1.4c0.4,0.4,0.4,1,0,1.4C37.6,38.3,37.4,38.4,37.1,38.4z
		 M42.6,25h-2c-0.6,0-1-0.4-1-1s0.4-1,1-1h2c0.6,0,1,0.4,1,1S43.2,25,42.6,25z M6.6,25h-2c-0.6,0-1-0.4-1-1s0.4-1,1-1h2
		c0.6,0,1,0.4,1,1S7.2,25,6.6,25z M11.6,13c-0.3,0-0.5-0.1-0.7-0.3l-1.4-1.4c-0.4-0.4-0.4-1,0-1.4s1-0.4,1.4,0l1.4,1.4
		c0.4,0.4,0.4,1,0,1.4C12.1,12.9,11.9,13,11.6,13z M23.6,8c-0.6,0-1-0.4-1-1V5c0-0.6,0.4-1,1-1s1,0.4,1,1v2C24.6,7.6,24.2,8,23.6,8z
		"/>
</g>
</svg>
